#N canvas 43 23 1203 716 10;
#X obj 228 392 *~, f 8;
#X obj 228 454 dac~;
#X obj 228 419 *~ 0.3;
#X obj 228 261 mtof;
#X floatatom 228 234 5 0 0 0 - - -, f 5;
#X obj 228 315 line~;
#X msg 228 289 \$1 50;
#X obj 228 165 r pitch @hv_param 15 105 60, f 13;
#N canvas 0 23 450 278 (subpatch) 0;
#X array pattern1 16 float 3;
#A 0 1 1 0 0 1 0 0 1 0 0 1 0 0 1 0 0;
#X coords 0 1 16 0 400 140 2 0 0;
#X restore 299 544 graph;
#X obj 523 150 tgl 15 0 empty empty empty 17 7 0 10 -262144 -1 -1 1
1;
#X obj 523 211 f;
#X obj 553 211 + 1;
#X floatatom 523 297 5 0 0 0 - - -, f 5;
#X obj 505 189 bng 15 250 50 0 empty empty empty 17 7 0 10 -262144
-1 -1;
#X floatatom 523 255 5 0 0 0 - - -, f 5;
#X obj 523 233 % 16;
#X obj 523 189 metro 450;
#X obj 523 317 sel 1;
#X obj 523 340 bng 15 250 50 0 empty empty empty 17 7 0 10 -262144
-1 -1;
#X obj 523 439 line~;
#X obj 523 367 pipe 10, f 15;
#X msg 523 401 1 0;
#X msg 566 401 0 10;
#X obj 523 461 *~;
#X obj 574 73 loadbang;
#X msg 574 95 120;
#X floatatom 574 117 5 0 0 0 - - -, f 5;
#N canvas 0 22 480 462 tempoCalc 0;
#X obj 143 138 inlet;
#X obj 143 161 / 60;
#X obj 101 81 loadbang;
#X msg 101 103 1;
#X obj 101 321 * 0.25;
#X obj 101 276 /, f 12;
#X obj 143 210 t b f;
#X obj 101 346 outlet;
#X text 190 159 bps;
#X text 191 183 bpMs;
#X obj 143 183 / 1000;
#X floatatom 101 298 5 0 0 0 - - -, f 5;
#X obj 101 245 f;
#X text 156 321 16ths;
#X connect 0 0 1 0;
#X connect 1 0 10 0;
#X connect 2 0 3 0;
#X connect 3 0 12 0;
#X connect 4 0 7 0;
#X connect 5 0 11 0;
#X connect 6 0 12 0;
#X connect 6 1 5 1;
#X connect 10 0 6 0;
#X connect 11 0 4 0;
#X connect 12 0 5 0;
#X restore 574 144 pd tempoCalc;
#X floatatom 574 166 5 0 0 0 - - -, f 5;
#X obj 228 337 osc~;
#N canvas 0 23 450 278 (subpatch) 0;
#X array pattern2 16 float 3;
#A 0 1 1 1 1 0 0 1 0 1 1 1 1 0 0 0 0;
#X coords 0 1 16 0 400 140 2 0 0;
#X restore 760 559 graph;
#X msg 624 192 set pattern1;
#X msg 688 236 set pattern2;
#X obj 523 275 tabread4 pattern1;
#X obj 624 167 r pattern1 @hv_event;
#X obj 688 213 r pattern2 @hv_event;
#X obj 523 45 r start @hv_event;
#X connect 0 0 2 0;
#X connect 2 0 1 0;
#X connect 2 0 1 1;
#X connect 3 0 6 0;
#X connect 4 0 3 0;
#X connect 5 0 29 0;
#X connect 6 0 5 0;
#X connect 7 0 4 0;
#X connect 9 0 16 0;
#X connect 10 0 11 0;
#X connect 10 0 15 0;
#X connect 11 0 10 1;
#X connect 12 0 17 0;
#X connect 14 0 33 0;
#X connect 15 0 14 0;
#X connect 16 0 10 0;
#X connect 16 0 13 0;
#X connect 17 0 18 0;
#X connect 18 0 20 0;
#X connect 19 0 23 0;
#X connect 19 0 0 1;
#X connect 20 0 21 0;
#X connect 20 0 22 0;
#X connect 21 0 19 0;
#X connect 22 0 19 0;
#X connect 24 0 25 0;
#X connect 25 0 26 0;
#X connect 26 0 27 0;
#X connect 27 0 28 0;
#X connect 28 0 16 1;
#X connect 29 0 0 0;
#X connect 31 0 33 0;
#X connect 32 0 33 0;
#X connect 33 0 12 0;
#X connect 34 0 31 0;
#X connect 35 0 32 0;
#X connect 36 0 9 0;
