#N canvas 108 23 1203 716 10;
#X obj 523 521 dac~;
#X obj 523 150 tgl 15 0 empty empty empty 17 7 0 10 -262144 -1 -1 1
1;
#X obj 523 211 f;
#X obj 553 211 + 1;
#X floatatom 523 327 5 0 0 0 - - -, f 5;
#X obj 505 189 bng 15 250 50 0 empty empty empty 17 7 0 10 -262144
-1 -1;
#X floatatom 523 255 5 0 0 0 - - -, f 5;
#X obj 523 233 % 16;
#X obj 523 189 metro 450;
#X obj 523 347 sel 1;
#X obj 523 370 bng 15 250 50 0 empty empty empty 17 7 0 10 -262144
-1 -1;
#X obj 574 73 loadbang;
#X msg 574 95 120;
#X floatatom 574 117 5 0 0 0 - - -, f 5;
#N canvas 0 22 480 462 tempoCalc 0;
#X obj 143 138 inlet;
#X obj 143 161 / 60;
#X obj 101 81 loadbang;
#X msg 101 103 1;
#X obj 101 321 * 0.25;
#X obj 101 276 /, f 12;
#X obj 143 210 t b f;
#X obj 101 346 outlet;
#X text 190 159 bps;
#X text 191 183 bpMs;
#X obj 143 183 / 1000;
#X floatatom 101 298 5 0 0 0 - - -, f 5;
#X obj 101 245 f;
#X text 156 321 16ths;
#X connect 0 0 1 0;
#X connect 1 0 10 0;
#X connect 2 0 3 0;
#X connect 3 0 12 0;
#X connect 4 0 7 0;
#X connect 5 0 11 0;
#X connect 6 0 12 0;
#X connect 6 1 5 1;
#X connect 10 0 6 0;
#X connect 11 0 4 0;
#X connect 12 0 5 0;
#X restore 574 144 pd tempoCalc;
#X floatatom 574 166 5 0 0 0 - - -, f 5;
#X obj 523 45 r start @hv_event;
#X obj 523 305 tabread pattern1;
#X text 902 183 float held in right inlet only changes every start
bar select object sends bang to apporiate array change;
#X obj 523 397 f;
#X obj 553 397 + 1;
#X obj 523 419 % 4;
#X obj 523 441 route 0 1 2 3, f 34;
#N canvas 0 22 652 716 oscV 0;
#X obj 228 392 *~, f 8;
#X obj 228 419 *~ 0.3;
#X obj 228 261 mtof;
#X floatatom 228 234 5 0 0 0 - - -, f 5;
#X obj 228 315 line~;
#X msg 228 289 \$1 50;
#X obj 228 165 r pitch @hv_param 15 105 60, f 13;
#X obj 228 337 osc~;
#X obj 228 441 outlet~;
#X obj 328 325 line~;
#X obj 328 253 pipe 10, f 15;
#X msg 328 287 1 0;
#X obj 328 211 inlet;
#X msg 371 287 0 100;
#X connect 0 0 1 0;
#X connect 1 0 8 0;
#X connect 2 0 5 0;
#X connect 3 0 2 0;
#X connect 4 0 7 0;
#X connect 5 0 4 0;
#X connect 6 0 3 0;
#X connect 7 0 0 0;
#X connect 9 0 0 1;
#X connect 10 0 11 0;
#X connect 10 0 13 0;
#X connect 11 0 9 0;
#X connect 12 0 10 0;
#X connect 13 0 9 0;
#X restore 523 476 pd oscV;
#N canvas 0 22 652 716 oscV 0;
#X obj 228 392 *~, f 8;
#X obj 228 419 *~ 0.3;
#X obj 228 261 mtof;
#X floatatom 228 234 5 0 0 0 - - -, f 5;
#X obj 228 315 line~;
#X msg 228 289 \$1 50;
#X obj 228 165 r pitch @hv_param 15 105 60, f 13;
#X obj 228 337 osc~;
#X obj 228 441 outlet~;
#X obj 328 325 line~;
#X obj 328 253 pipe 10, f 15;
#X msg 328 287 1 0;
#X obj 328 211 inlet;
#X msg 371 287 0 50;
#X connect 0 0 1 0;
#X connect 1 0 8 0;
#X connect 2 0 5 0;
#X connect 3 0 2 0;
#X connect 4 0 7 0;
#X connect 5 0 4 0;
#X connect 6 0 3 0;
#X connect 7 0 0 0;
#X connect 9 0 0 1;
#X connect 10 0 11 0;
#X connect 10 0 13 0;
#X connect 11 0 9 0;
#X connect 12 0 10 0;
#X connect 13 0 9 0;
#X restore 573 476 pd oscV;
#N canvas 0 22 652 716 oscV 0;
#X obj 228 392 *~, f 8;
#X obj 228 419 *~ 0.3;
#X obj 228 261 mtof;
#X floatatom 228 234 5 0 0 0 - - -, f 5;
#X obj 228 315 line~;
#X msg 228 289 \$1 50;
#X obj 228 165 r pitch @hv_param 15 105 60, f 13;
#X obj 228 337 osc~;
#X obj 228 441 outlet~;
#X obj 328 325 line~;
#X obj 328 253 pipe 10, f 15;
#X msg 328 287 1 0;
#X msg 371 287 0 10;
#X obj 328 211 inlet;
#X connect 0 0 1 0;
#X connect 1 0 8 0;
#X connect 2 0 5 0;
#X connect 3 0 2 0;
#X connect 4 0 7 0;
#X connect 5 0 4 0;
#X connect 6 0 3 0;
#X connect 7 0 0 0;
#X connect 9 0 0 1;
#X connect 10 0 11 0;
#X connect 10 0 12 0;
#X connect 11 0 9 0;
#X connect 12 0 9 0;
#X connect 13 0 10 0;
#X restore 623 476 pd oscV;
#N canvas 0 22 652 716 oscV 0;
#X obj 228 392 *~, f 8;
#X obj 228 419 *~ 0.3;
#X obj 228 261 mtof;
#X floatatom 228 234 5 0 0 0 - - -, f 5;
#X obj 228 315 line~;
#X msg 228 289 \$1 50;
#X obj 228 165 r pitch @hv_param 15 105 60, f 13;
#X obj 228 337 osc~;
#X obj 228 441 outlet~;
#X obj 328 325 line~;
#X obj 328 253 pipe 10, f 15;
#X msg 328 287 1 0;
#X obj 328 211 inlet;
#X msg 371 287 0 150;
#X connect 0 0 1 0;
#X connect 1 0 8 0;
#X connect 2 0 5 0;
#X connect 3 0 2 0;
#X connect 4 0 7 0;
#X connect 5 0 4 0;
#X connect 6 0 3 0;
#X connect 7 0 0 0;
#X connect 9 0 0 1;
#X connect 10 0 11 0;
#X connect 10 0 13 0;
#X connect 11 0 9 0;
#X connect 12 0 10 0;
#X connect 13 0 9 0;
#X restore 673 476 pd oscV;
#X text 410 422 pseudo poly wrapping 4 route to voices;
#X obj 308 370 sel 0 4 8 12;
#X obj 308 405 bng 15 250 50 0 empty empty empty 17 7 0 10 -262144
-1 -1;
#X obj 195 440 osc~ 90;
#X obj 180 563 dac~;
#X obj 308 496 line~;
#X obj 308 424 pipe 10, f 15;
#X msg 308 458 1 0;
#X msg 351 458 0 100;
#X obj 195 462 *~;
#X obj 308 324 spigot;
#X msg 356 222 0;
#X msg 387 223 1;
#X obj 341 261 f;
#X obj 294 220 sel 0;
#X floatatom 341 283 5 0 0 0 - - -, f 5;
#X obj 365 114 r kickStart @hv_event;
#X obj 255 82 r kickStop @hv_event;
#N canvas 0 22 1052 716 tables 0;
#N canvas 0 23 450 278 (subpatch) 0;
#X array pattern1 16 float 3;
#A 0 1 1 0 0 1 0 0 1 0 0 1 0 0 1 0 0;
#X coords 0 1 16 0 400 140 2 0 0;
#X restore 24 31 graph;
#N canvas 0 23 450 278 (subpatch) 0;
#X array pattern2 16 float 3;
#A 0 1 1 -0.228583 1 0 0 1 0 1 -0.150006 1 1 0 0 0 0;
#X coords 0 1 16 0 400 140 2 0 0;
#X restore 485 46 graph;
#X restore 883 528 pd tables;
#X obj 473 302 s clk;
#X obj 225 173 r clk;
#N canvas 0 22 927 641 patternChange 0;
#X msg 298 428 set pattern1;
#X msg 388 428 set pattern2;
#X obj 278 306 sel 0 1 2 3 4 5, f 21;
#X obj 278 337 bng 15 250 50 0 empty empty empty 17 7 0 10 -262144
-1 -1;
#X obj 298 337 bng 15 250 50 0 empty empty empty 17 7 0 10 -262144
-1 -1;
#X obj 318 337 bng 15 250 50 0 empty empty empty 17 7 0 10 -262144
-1 -1;
#X obj 338 337 bng 15 250 50 0 empty empty empty 17 7 0 10 -262144
-1 -1;
#X floatatom 317 245 5 0 0 0 - - -, f 5;
#X msg 317 195 1;
#X msg 357 195 2;
#X obj 278 242 sel 0;
#X obj 278 276 f;
#X obj 317 150 r pattern1 @hv_event;
#X obj 357 171 r pattern2 @hv_event;
#X obj 278 218 r clk;
#X obj 298 494 outlet;
#X connect 0 0 15 0;
#X connect 1 0 15 0;
#X connect 2 0 3 0;
#X connect 2 1 4 0;
#X connect 2 2 5 0;
#X connect 2 3 6 0;
#X connect 4 0 0 0;
#X connect 5 0 1 0;
#X connect 7 0 11 1;
#X connect 8 0 7 0;
#X connect 9 0 7 0;
#X connect 10 0 11 0;
#X connect 11 0 2 0;
#X connect 12 0 8 0;
#X connect 13 0 9 0;
#X connect 14 0 10 0;
#X restore 633 239 pd patternChange;
#X connect 1 0 8 0;
#X connect 2 0 3 0;
#X connect 2 0 7 0;
#X connect 3 0 2 1;
#X connect 4 0 9 0;
#X connect 6 0 17 0;
#X connect 6 0 46 0;
#X connect 7 0 6 0;
#X connect 8 0 2 0;
#X connect 8 0 5 0;
#X connect 9 0 10 0;
#X connect 10 0 19 0;
#X connect 11 0 12 0;
#X connect 12 0 13 0;
#X connect 13 0 14 0;
#X connect 14 0 15 0;
#X connect 15 0 8 1;
#X connect 16 0 1 0;
#X connect 17 0 4 0;
#X connect 19 0 20 0;
#X connect 19 0 21 0;
#X connect 20 0 19 1;
#X connect 21 0 22 0;
#X connect 22 0 23 0;
#X connect 22 1 24 0;
#X connect 22 2 25 0;
#X connect 22 3 26 0;
#X connect 23 0 0 0;
#X connect 23 0 0 1;
#X connect 24 0 0 0;
#X connect 24 0 0 1;
#X connect 25 0 0 0;
#X connect 25 0 0 1;
#X connect 26 0 0 0;
#X connect 26 0 0 1;
#X connect 28 0 29 0;
#X connect 28 1 29 0;
#X connect 28 2 29 0;
#X connect 28 3 29 0;
#X connect 29 0 33 0;
#X connect 30 0 36 0;
#X connect 32 0 36 1;
#X connect 33 0 34 0;
#X connect 33 0 35 0;
#X connect 34 0 32 0;
#X connect 35 0 32 0;
#X connect 36 0 31 0;
#X connect 36 0 31 1;
#X connect 37 0 28 0;
#X connect 38 0 40 1;
#X connect 39 0 40 1;
#X connect 40 0 42 0;
#X connect 41 0 40 0;
#X connect 42 0 37 1;
#X connect 43 0 39 0;
#X connect 44 0 38 0;
#X connect 47 0 41 0;
#X connect 47 0 37 0;
#X connect 48 0 17 0;
