#N canvas 425 167 1251 847 10;
#X declare -path droneMachine;
#X declare -path heavyLib;
#X obj 98 513 droneMachine;
#N canvas 1000 208 648 566 ranDom 0;
#X obj 115 88 bng 15 250 50 0 empty empty empty 17 7 0 10 -262144 -1
-1;
#X obj 115 108 random;
#X obj 115 130 t b f b f, f 25;
#X obj 115 242 f;
#X obj 115 264 sel 0;
#X obj 115 306 f;
#X floatatom 115 328 5 0 0 0 - - -, f 5;
#X obj 175 175 f;
#X floatatom 190 60 5 0 0 0 - - -, f 5;
#X obj 175 207 ==;
#X obj 29 189 sel 1;
#X obj 190 37 inlet;
#X obj 115 58 inlet;
#X obj 115 347 outlet;
#X text 322 219 Non-repeating random index;
#X connect 0 0 1 0;
#X connect 1 0 2 0;
#X connect 2 0 3 0;
#X connect 2 1 7 1;
#X connect 2 2 7 0;
#X connect 2 3 9 1;
#X connect 2 3 5 1;
#X connect 3 0 4 0;
#X connect 3 0 10 0;
#X connect 4 0 5 0;
#X connect 5 0 6 0;
#X connect 6 0 13 0;
#X connect 7 0 9 0;
#X connect 8 0 1 1;
#X connect 8 0 7 1;
#X connect 9 0 3 1;
#X connect 10 0 1 0;
#X connect 11 0 8 0;
#X connect 12 0 0 0;
#X restore 98 335 pd ranDom;
#X floatatom 149 315 5 0 0 0 - - -, f 5;
#X floatatom 98 357 5 0 0 0 - - -, f 5;
#X obj 149 255 loadbang;
#X floatatom 537 37 5 0 0 0 - - -, f 5;
#X obj 537 56 s binauralPhase;
#X obj 567 -35 loadbang;
#X floatatom 637 37 5 0 0 0 - - -, f 5;
#X floatatom 694 37 5 0 0 0 - - -, f 5;
#X obj 637 56 s fRatio;
#X obj 694 56 s FMamount;
#X msg 667 15 1;
#X msg 724 15 0;
#X floatatom 167 210 5 0 0 0 - - -, f 5;
#X obj 167 165 loadbang;
#X obj 98 191 r clk_1/1;
#X obj 98 232 chanceObject;
#X text 207 210 perCent_chance;
#X msg 149 277 6;
#X obj 69 280 bng 15 250 50 0 empty empty empty 17 7 0 10 -262144 -1
-1;
#X text 596 85 droneMachine Controls;
#X obj 232 181 r droneChance @hv_param 0 100 25;
#X obj 217 276 r dronePitchRange @hv_param 2 24 6;
#X obj 69 106 r triggerDrone @hv_event;
#X obj 537 -125 r droneBinPhase @hv_param 0 20 6;
#X msg 567 15 6;
#X obj 637 -101 r droneFmFratio @hv_param 0.1 4 1;
#X obj 694 -71 r droneFmAmount @hv_param 0 2000 0;
#X obj 4 -145 declare -path droneMachine;
#X obj 4 -128 declare -path heavyLib;
#X obj 673 600 monoSawObject;
#X floatatom 742 358 5 0 0 0 - - -, f 5;
#X obj 742 313 loadbang;
#X msg 742 333 25;
#X obj 673 414 chanceObject;
#X text 782 358 perCent_chance;
#X floatatom 816 588 5 0 0 0 - - -, f 5;
#X obj 816 566 + 14;
#X floatatom 816 544 5 0 0 0 - - -, f 5;
#X text 778 544 index;
#X floatatom 838 479 5 0 0 0 - - -, f 5;
#X floatatom 861 497 5 0 0 0 - - -, f 5;
#X obj 673 390 r clk_1/16;
#X obj 802 331 r monoMelChance @hv_param 0 100 60;
#X obj 673 648 throw~ monoMel;
#X obj 98 541 throw~ drMachL, f 7;
#X obj 167 541 throw~ drMachR, f 7;
#N canvas 475 241 1213 739 summingOutput 0;
#X obj 164 78 catch~ monoMel;
#X obj 443 158 catch~ drMachL;
#X obj 515 178 catch~ drMachR;
#X obj 233 98 catch~ drum_1;
#X obj 305 117 catch~ kickObject;
#X obj 377 137 catch~ jazzChordObject;
#X obj 515 230 gainObject, f 5;
#X obj 164 230 gainObject, f 5;
#X obj 233 230 gainObject, f 5;
#X obj 305 230 gainObject, f 5;
#X obj 377 230 gainObject, f 5;
#X obj 443 230 gainObject, f 5;
#X obj 164 390 dac~, f 59;
#X obj 164 269 +~, f 12;
#X obj 164 289 +~, f 24;
#X obj 164 309 +~, f 36;
#X obj 164 329 +~, f 47;
#X obj 191 198 r mx1;
#X obj 260 198 r mx2;
#X obj 332 198 r mx3;
#X obj 404 198 r mx4;
#X obj 470 198 r mx5;
#X connect 0 0 7 0;
#X connect 1 0 11 0;
#X connect 2 0 6 0;
#X connect 3 0 8 0;
#X connect 4 0 9 0;
#X connect 5 0 10 0;
#X connect 6 0 12 1;
#X connect 7 0 13 0;
#X connect 8 0 13 1;
#X connect 9 0 14 1;
#X connect 10 0 15 1;
#X connect 11 0 16 1;
#X connect 13 0 14 0;
#X connect 14 0 15 0;
#X connect 15 0 16 0;
#X connect 16 0 12 0;
#X connect 16 0 12 1;
#X connect 17 0 7 1;
#X connect 18 0 8 1;
#X connect 19 0 9 1;
#X connect 20 0 10 1;
#X connect 21 0 6 1;
#X connect 21 0 11 1;
#X restore 4 -87 pd summingOutput;
#X obj 816 517 dbDrunk, f 8;
#X obj 673 622 *~ 0.5;
#N canvas 419 310 1346 806 tablesScales 0;
#N canvas 0 22 450 278 (subpatch) 0;
#X array scale_minorPent 5 float 3;
#A 0 0 3 5 7 10;
#X coords 0 12 5 0 200 140 1 0 0;
#X restore 163 294 graph;
#N canvas 0 22 450 278 (subpatch) 0;
#X array scale_major 7 float 3;
#A 0 0 2 4 5 7 9 11;
#X coords 0 12 7 0 200 140 1 0 0;
#X restore 164 126 graph;
#N canvas 0 22 450 278 (subpatch) 0;
#X array arp1_triad_4_major 4 float 3;
#A 0 1 2 4 6;
#X coords 0 8 4 0 200 140 1 0 0;
#X restore 797 183 graph;
#N canvas 0 22 450 278 (subpatch) 0;
#X array arp1_triad_4_minorPent 4 float 3;
#A 0 0 1 3 5;
#X coords 0 8 4 0 200 140 1 0 0;
#X restore 797 351 graph;
#X restore 4 -70 pd tablesScales;
#X obj 98 466 scaleWrapObject;
#N canvas 188 284 981 826 arp 1;
#X obj 171 89 inlet trigger;
#X obj 171 151 f;
#X obj 214 151 + 1;
#X floatatom 171 173 5 0 0 0 - - -, f 5;
#X msg 117 88 0;
#X obj 171 192 % 4;
#X floatatom 171 276 5 0 0 0 - - -, f 5;
#X obj 171 745 outlet arpInt;
#X obj 171 254 tabread arp1_triad_4_major;
#X msg 278 189 set arp1_triad_4_major;
#X msg 307 206 set arp1_triad_4_minorPent;
#X obj 117 44 r clkTrig;
#X obj 171 375 spigot;
#X obj 204 328 tgl 15 0 empty empty empty 17 7 0 10 -262144 -1 -1 0
1;
#X text 226 328 active;
#X obj 204 351 startSyncObject;
#X obj 204 305 r monoMelToggle @hv_param 0 1 0;
#X obj 188 696 bng 15 250 50 0 empty empty empty 17 7 0 10 -262144
-1 -1;
#X floatatom 277 514 5 0 0 0 - - -, f 5;
#X obj 277 621 spigot;
#X obj 310 589 tgl 15 0 empty empty empty 17 7 0 10 -262144 -1 -1 0
1;
#X obj 310 534 sel 0;
#X obj 277 643 % 4, f 37;
#X floatatom 277 665 5 0 0 0 - - -, f 5;
#X obj 277 452 r clk_1/16;
#X obj 277 484 f;
#X obj 311 484 + 1;
#X msg 246 452 0;
#X obj 477 352 bng 15 250 50 0 empty empty empty 17 7 0 10 -262144
-1 -1;
#X obj 496 615 random 6;
#X text 573 520 trigger resets counter toggles spigot count flow randomises
mod wrap which turns self off after wrap;
#X obj 188 716 random 12;
#X obj 477 328 r monoMelStairTrigger @hv_event;
#X obj 477 377 t b b b;
#X connect 0 0 1 0;
#X connect 1 0 2 0;
#X connect 1 0 3 0;
#X connect 2 0 1 1;
#X connect 3 0 5 0;
#X connect 4 0 1 0;
#X connect 5 0 8 0;
#X connect 6 0 12 0;
#X connect 8 0 6 0;
#X connect 9 0 8 0;
#X connect 10 0 8 0;
#X connect 11 0 4 0;
#X connect 12 0 7 0;
#X connect 13 0 15 0;
#X connect 15 0 12 1;
#X connect 16 0 13 0;
#X connect 17 0 31 0;
#X connect 18 0 19 0;
#X connect 19 0 22 0;
#X connect 20 0 19 1;
#X connect 21 0 20 0;
#X connect 22 0 23 0;
#X connect 23 0 21 0;
#X connect 23 0 17 0;
#X connect 24 0 25 0;
#X connect 25 0 26 0;
#X connect 25 0 18 0;
#X connect 26 0 25 1;
#X connect 27 0 25 0;
#X connect 28 0 33 0;
#X connect 29 0 22 1;
#X connect 31 0 7 0;
#X connect 32 0 28 0;
#X connect 33 0 20 0;
#X connect 33 1 29 0;
#X connect 33 2 27 0;
#X restore 673 519 pd arp;
#X obj 673 574 scaleWrapObject;
#X obj 673 541 +, f 8;
#X obj 718 501 r drone;
#X obj 142 386 s drone;
#X obj 4 -30 masterHarmony;
#X obj 732 159 jazzChordObject;
#N canvas 920 215 1346 806 tablesRhythms 0;
#N canvas 0 22 450 278 (subpatch) 0;
#X array jazzChord_1 16 float 3;
#A 0 0.985715 0 0.271429 0 0 0.464286 0 0 0.878571 0 0 0.2 -2.26498e-06
-2.20537e-06 0 0;
#X coords 0 1 16 -0 400 140 1 0 0;
#X restore 100 20 graph;
#X restore 4 -53 pd tablesRhythms;
#X msg 167 185 50;
#X obj 537 161 drum_1;
#N canvas 735 183 519 261 clock 0;
#X obj 311 141 loadbang;
#X msg 311 163 120;
#X floatatom 311 193 5 0 0 0 - - -, f 5;
#X obj 248 141 tgl 15 0 empty empty empty 17 7 0 10 -262144 -1 -1 0
1;
#X obj 248 213 clockEngine;
#X obj 267 115 r clockStart @hv_event;
#X obj 248 115 bng 15 250 50 0 empty empty empty 17 7 0 10 -262144
-1 -1;
#X obj 344 162 r BPM @hv_param 20 200 120;
#X obj 100 100 bng 15 250 50 0 empty empty empty 17 7 0 10 -262144
-1 -1;
#X floatatom 118 100 5 0 0 0 - - -, f 5;
#X connect 0 0 1 0;
#X connect 1 0 2 0;
#X connect 1 0 9 0;
#X connect 2 0 4 1;
#X connect 3 0 4 0;
#X connect 5 0 3 0;
#X connect 6 0 3 0;
#X connect 7 0 2 0;
#X connect 8 0 6 0;
#X connect 9 0 2 0;
#X coords 0 -1 1 1 55 20 2 100 100;
#X restore 205 -122 pd clock interface;
#X text 202 -97 clock;
#X obj 623 160 kickObject;
#X obj 537 182 throw~ drum_1;
#X obj 623 182 throw~ kickObject;
#X obj 732 181 throw~ jazzChordObject;
#N canvas 806 272 668 479 Mixer_UI 0;
#X obj 253 250 hsl 128 15 0 1 0 0 empty empty empty -2 -8 0 10 -262144
-1 -1 5080 1;
#X obj 253 265 hsl 128 15 0 1 0 0 empty empty empty -2 -8 0 10 -262144
-1 -1 5080 1;
#X obj 253 280 hsl 128 15 0 1 0 0 empty empty empty -2 -8 0 10 -262144
-1 -1 10160 1;
#X obj 253 295 hsl 128 15 0 1 0 0 empty empty empty -2 -8 0 10 -262144
-1 -1 6350 1;
#X obj 253 310 hsl 128 15 0 1 0 0 empty empty empty -2 -8 0 10 -262144
-1 -1 5080 1;
#X text 386 250 [1] monoMel;
#X text 386 265 [2] hats;
#X text 386 279 [3] kick;
#X text 386 294 [4] jazzChord;
#X text 386 308 [5] Drone;
#X obj 156 152 loadbang;
#X obj 211 334 s mx1;
#X obj 211 351 s mx2;
#X obj 211 368 s mx3;
#X obj 211 385 s mx4;
#X obj 211 402 s mx5;
#X obj 156 226 unpack f f f f f;
#X msg 156 204 0.4 0.4 0.8 0.5 0.4;
#X obj 175 180 bng 15 250 50 0 empty empty empty 17 7 0 10 -262144
-1 -1;
#N canvas 768 453 766 424 mxParamsPack 0;
#X obj 48 82 inlet;
#X obj 114 82 inlet;
#X obj 186 82 inlet;
#X obj 252 82 inlet;
#X obj 334 82 inlet;
#X obj 379 99 inlet;
#X obj 48 176 pack f f;
#X msg 48 201 \$1 \$2;
#X obj 48 225 line, f 6;
#X obj 48 281 outlet;
#X obj 114 281 outlet;
#X obj 186 281 outlet;
#X obj 252 281 outlet;
#X obj 334 281 outlet;
#X obj 114 176 pack f f;
#X msg 114 201 \$1 \$2;
#X obj 114 225 line, f 6;
#X obj 186 176 pack f f;
#X msg 186 201 \$1 \$2;
#X obj 186 225 line, f 6;
#X obj 252 176 pack f f;
#X msg 252 201 \$1 \$2;
#X obj 252 225 line, f 6;
#X obj 334 176 pack f f;
#X msg 334 201 \$1 \$2;
#X obj 334 225 line, f 6;
#X text 421 99 Mix interpolation time;
#X text 48 30 individual mix channel settings from Unity;
#X connect 0 0 6 0;
#X connect 1 0 14 0;
#X connect 2 0 17 0;
#X connect 3 0 20 0;
#X connect 4 0 23 0;
#X connect 5 0 6 1;
#X connect 5 0 14 1;
#X connect 5 0 17 1;
#X connect 5 0 20 1;
#X connect 5 0 23 1;
#X connect 6 0 7 0;
#X connect 7 0 8 0;
#X connect 8 0 9 0;
#X connect 14 0 15 0;
#X connect 15 0 16 0;
#X connect 16 0 10 0;
#X connect 17 0 18 0;
#X connect 18 0 19 0;
#X connect 19 0 11 0;
#X connect 20 0 21 0;
#X connect 21 0 22 0;
#X connect 22 0 12 0;
#X connect 23 0 24 0;
#X connect 24 0 25 0;
#X connect 25 0 13 0;
#X restore 294 215 pd mxParamsPack;
#X obj 294 84 r mxh1 @hv_param 0 1 0.4;
#X obj 311 101 r mxh2 @hv_param 0 1 0.4;
#X obj 328 118 r mxh3 @hv_param 0 1 0.8;
#X obj 346 135 r mxh4 @hv_param 0 1 0.5;
#X obj 363 152 r mxh5 @hv_param 0 1 0.4;
#X obj 405 181 r mxhGlideTime @hv_param 0 10000 5000;
#X connect 0 0 11 0;
#X connect 1 0 12 0;
#X connect 2 0 13 0;
#X connect 3 0 14 0;
#X connect 4 0 15 0;
#X connect 10 0 17 0;
#X connect 10 0 18 0;
#X connect 16 0 0 0;
#X connect 16 1 1 0;
#X connect 16 2 2 0;
#X connect 16 3 3 0;
#X connect 16 4 4 0;
#X connect 17 0 16 0;
#X connect 18 0 17 0;
#X connect 19 0 0 0;
#X connect 19 1 1 0;
#X connect 19 2 2 0;
#X connect 19 3 3 0;
#X connect 19 4 4 0;
#X connect 20 0 19 0;
#X connect 21 0 19 1;
#X connect 22 0 19 2;
#X connect 23 0 19 3;
#X connect 24 0 19 4;
#X connect 25 0 19 5;
#X coords 0 -1 1 1 250 75 2 250 250;
#X restore 210 -25 pd Mixer_UI;
#X connect 0 0 46 0;
#X connect 0 1 47 0;
#X connect 1 0 3 0;
#X connect 2 0 1 1;
#X connect 3 0 52 0;
#X connect 3 0 57 0;
#X connect 4 0 19 0;
#X connect 5 0 6 0;
#X connect 7 0 26 0;
#X connect 7 0 12 0;
#X connect 7 0 13 0;
#X connect 8 0 10 0;
#X connect 9 0 11 0;
#X connect 12 0 8 0;
#X connect 13 0 9 0;
#X connect 14 0 17 1;
#X connect 15 0 61 0;
#X connect 16 0 17 0;
#X connect 17 0 1 0;
#X connect 19 0 2 0;
#X connect 20 0 1 0;
#X connect 22 0 14 0;
#X connect 23 0 2 0;
#X connect 24 0 20 0;
#X connect 25 0 5 0;
#X connect 26 0 5 0;
#X connect 27 0 8 0;
#X connect 28 0 9 0;
#X connect 31 0 50 0;
#X connect 32 0 35 1;
#X connect 33 0 34 0;
#X connect 34 0 32 0;
#X connect 35 0 49 0;
#X connect 35 0 53 0;
#X connect 38 0 37 0;
#X connect 39 0 38 0;
#X connect 41 0 49 1;
#X connect 42 0 49 2;
#X connect 43 0 35 0;
#X connect 44 0 32 0;
#X connect 49 0 39 0;
#X connect 50 0 45 0;
#X connect 52 0 0 0;
#X connect 53 0 55 0;
#X connect 54 0 31 0;
#X connect 55 0 54 0;
#X connect 56 0 55 1;
#X connect 59 0 68 0;
#X connect 61 0 14 0;
#X connect 62 0 66 0;
#X connect 65 0 67 0;
#X coords 0 847 10 846 85 60 0;
