#N canvas 175 140 1280 664 10;
#X declare -path droneMachine;
#X declare -path heavyLib;
#X obj 98 330 droneMachine;
#N canvas 1000 208 648 566 ranDom 0;
#X obj 115 88 bng 15 250 50 0 empty empty empty 17 7 0 10 -262144 -1
-1;
#X obj 115 108 random;
#X obj 115 130 t b f b f, f 25;
#X obj 115 242 f;
#X obj 115 264 sel 0;
#X obj 115 306 f;
#X floatatom 115 328 5 0 0 0 - - -, f 5;
#X obj 175 175 f;
#X floatatom 190 60 5 0 0 0 - - -, f 5;
#X obj 175 207 ==;
#X obj 29 189 sel 1;
#X obj 190 37 inlet;
#X obj 115 58 inlet;
#X obj 115 347 outlet;
#X text 322 219 Non-repeating random index;
#X connect 0 0 1 0;
#X connect 1 0 2 0;
#X connect 2 0 3 0;
#X connect 2 1 7 1;
#X connect 2 2 7 0;
#X connect 2 3 9 1;
#X connect 2 3 5 1;
#X connect 3 0 4 0;
#X connect 3 0 10 0;
#X connect 4 0 5 0;
#X connect 5 0 6 0;
#X connect 6 0 13 0;
#X connect 7 0 9 0;
#X connect 8 0 1 1;
#X connect 8 0 7 1;
#X connect 9 0 3 1;
#X connect 10 0 1 0;
#X connect 11 0 8 0;
#X connect 12 0 0 0;
#X restore 98 152 pd ranDom;
#X floatatom 149 132 5 0 0 0 - - -, f 5;
#X floatatom 98 174 5 0 0 0 - - -, f 5;
#X obj 149 72 loadbang;
#X floatatom 537 -146 5 0 0 0 - - -, f 5;
#X obj 537 -127 s binauralPhase;
#X obj 567 -218 loadbang;
#X floatatom 637 -146 5 0 0 0 - - -, f 5;
#X floatatom 694 -146 5 0 0 0 - - -, f 5;
#X obj 637 -127 s fRatio;
#X obj 694 -127 s FMamount;
#X msg 667 -168 1;
#X msg 724 -168 0;
#X obj 279 -281 loadbang;
#X msg 279 -259 120;
#X floatatom 279 -229 5 0 0 0 - - -, f 5;
#X obj 216 -270 tgl 15 0 empty empty empty 17 7 0 10 -262144 -1 -1
0 1;
#X obj 216 -209 clockEngine;
#X floatatom 167 27 5 0 0 0 - - -, f 5;
#X obj 167 -18 loadbang;
#X obj 98 8 r clk_1/1;
#X obj 98 49 chanceObject;
#X text 207 27 perCent_chance;
#X msg 149 94 6;
#X obj 69 87 bng 15 250 50 0 empty empty empty 17 7 0 10 -262144 -1
-1;
#X text 596 -98 droneMachine Controls;
#X obj 216 -317 r clockStart @hv_event;
#X obj 197 -317 bng 15 250 50 0 empty empty empty 17 7 0 10 -262144
-1 -1;
#X obj 312 -260 r BPM @hv_param 20 200 120;
#X obj 232 -2 r droneChance @hv_param 0 100 25;
#X obj 217 93 r dronePitchRange @hv_param 2 24 6;
#X obj 69 -77 r triggerDrone @hv_event;
#X obj 537 -308 r droneBinPhase @hv_param 0 20 6;
#X msg 567 -168 6;
#X obj 637 -284 r droneFmFratio @hv_param 0.1 4 1;
#X obj 694 -254 r droneFmAmount @hv_param 0 2000 0;
#X obj 4 -328 declare -path droneMachine;
#X obj 4 -311 declare -path heavyLib;
#X obj 673 417 monoSawObject;
#X floatatom 742 175 5 0 0 0 - - -, f 5;
#X obj 742 130 loadbang;
#X msg 742 150 25;
#X obj 673 231 chanceObject;
#X text 782 175 perCent_chance;
#X floatatom 816 405 5 0 0 0 - - -, f 5;
#X obj 816 383 + 14;
#X floatatom 816 361 5 0 0 0 - - -, f 5;
#X text 778 361 index;
#X floatatom 838 296 5 0 0 0 - - -, f 5;
#X floatatom 861 314 5 0 0 0 - - -, f 5;
#X obj 673 207 r clk_1/16;
#X obj 802 148 r monoMelChance @hv_param 0 100 60;
#X obj 673 465 throw~ monoMel;
#X obj 98 358 throw~ drMachL, f 7;
#X obj 167 358 throw~ drMachR, f 7;
#N canvas 262 195 838 434 summingOutput 0;
#X obj 119 227 dac~, f 19;
#X obj 245 107 catch~ monoMel;
#X obj 119 186 +~;
#X obj 230 182 +~;
#X obj 119 81 catch~ drMachL;
#X obj 230 81 catch~ drMachR;
#X connect 1 0 2 1;
#X connect 1 0 3 1;
#X connect 2 0 0 0;
#X connect 3 0 0 1;
#X connect 4 0 2 0;
#X connect 5 0 3 0;
#X restore 4 -270 pd summingOutput;
#X obj 816 334 dbDrunk, f 8;
#X obj 673 439 *~ 0.5;
#N canvas 419 310 1346 806 tablesScales 0;
#N canvas 0 22 450 278 (subpatch) 0;
#X array scale_minorPent 5 float 3;
#A 0 0 3 5 7 10;
#X coords 0 12 5 0 200 140 1 0 0;
#X restore 163 294 graph;
#N canvas 0 22 450 278 (subpatch) 0;
#X array scale_major 7 float 3;
#A 0 0 2 4 5 7 9 11;
#X coords 0 12 7 0 200 140 1 0 0;
#X restore 164 126 graph;
#N canvas 0 22 450 278 (subpatch) 0;
#X array arp1_triad_4_major 4 float 3;
#A 0 1 2 4 6;
#X coords 0 8 4 0 200 140 1 0 0;
#X restore 797 183 graph;
#N canvas 0 22 450 278 (subpatch) 0;
#X array arp1_triad_4_minorPent 4 float 3;
#A 0 0 1 3 5;
#X coords 0 8 4 0 200 140 1 0 0;
#X restore 797 351 graph;
#X restore 4 -253 pd tablesScales;
#X obj 98 283 scaleWrapObject;
#N canvas 281 277 534 363 arp 0;
#X obj 181 69 inlet trigger;
#X obj 181 131 f;
#X obj 224 131 + 1;
#X obj 159 69 bng 15 250 50 0 empty empty empty 17 7 0 10 -262144 -1
-1;
#X floatatom 181 153 5 0 0 0 - - -, f 5;
#X msg 127 68 0;
#X obj 181 172 % 4;
#X floatatom 181 256 5 0 0 0 - - -, f 5;
#X obj 181 275 outlet arpInt;
#X obj 181 234 tabread arp1_triad_4_major;
#X msg 288 169 set arp1_triad_4_major;
#X msg 317 186 set arp1_triad_4_minorPent;
#X obj 127 24 r clkTrig;
#X connect 0 0 1 0;
#X connect 1 0 2 0;
#X connect 1 0 4 0;
#X connect 2 0 1 1;
#X connect 3 0 1 0;
#X connect 4 0 6 0;
#X connect 5 0 1 0;
#X connect 6 0 9 0;
#X connect 7 0 8 0;
#X connect 9 0 7 0;
#X connect 10 0 9 0;
#X connect 11 0 9 0;
#X connect 12 0 5 0;
#X restore 673 336 pd arp;
#X obj 43 212 r mstrOffset;
#X obj 673 391 scaleWrapObject;
#X obj 673 358 +, f 8;
#X obj 718 318 r drone;
#X obj 142 203 s drone;
#X obj 4 -213 masterHarmony;
#X obj 794 35 jazzChordObject;
#N canvas 1284 264 1346 806 tablesRhythms 0;
#N canvas 0 22 450 278 (subpatch) 0;
#X array jazzChord_1 16 float 3;
#A 0 0.985715 0 0.0714286 0 0 0.671429 0 0 0.807143 0 0 0 0 0 0 0;
#X coords 0 1 16 -0 400 140 1 0 0;
#X restore 100 20 graph;
#X restore 4 -236 pd tablesRhythms;
#X msg 167 2 50;
#X obj 537 -22 drum_1;
#X obj 537 -1 throw~ monoMel;
#X connect 0 0 54 0;
#X connect 0 1 55 0;
#X connect 1 0 3 0;
#X connect 2 0 1 1;
#X connect 3 0 60 0;
#X connect 3 0 66 0;
#X connect 4 0 24 0;
#X connect 5 0 6 0;
#X connect 7 0 34 0;
#X connect 7 0 12 0;
#X connect 7 0 13 0;
#X connect 8 0 10 0;
#X connect 9 0 11 0;
#X connect 12 0 8 0;
#X connect 13 0 9 0;
#X connect 14 0 15 0;
#X connect 15 0 16 0;
#X connect 16 0 18 1;
#X connect 17 0 18 0;
#X connect 19 0 22 1;
#X connect 20 0 70 0;
#X connect 21 0 22 0;
#X connect 22 0 1 0;
#X connect 24 0 2 0;
#X connect 25 0 1 0;
#X connect 27 0 17 0;
#X connect 28 0 17 0;
#X connect 29 0 16 0;
#X connect 30 0 19 0;
#X connect 31 0 2 0;
#X connect 32 0 25 0;
#X connect 33 0 5 0;
#X connect 34 0 5 0;
#X connect 35 0 8 0;
#X connect 36 0 9 0;
#X connect 39 0 58 0;
#X connect 40 0 43 1;
#X connect 41 0 42 0;
#X connect 42 0 40 0;
#X connect 43 0 57 0;
#X connect 43 0 61 0;
#X connect 46 0 45 0;
#X connect 47 0 46 0;
#X connect 49 0 57 1;
#X connect 50 0 57 2;
#X connect 51 0 43 0;
#X connect 52 0 40 0;
#X connect 57 0 47 0;
#X connect 58 0 53 0;
#X connect 60 0 0 0;
#X connect 61 0 64 0;
#X connect 63 0 39 0;
#X connect 64 0 63 0;
#X connect 65 0 64 1;
#X connect 70 0 19 0;
#X connect 71 0 72 0;
#X coords 0 664 10 663 85 60 0;
