#N canvas 596 274 450 300 10;
#X obj 98 72 random 100;
#X floatatom 55 111 5 0 0 0 - - -, f 5;
#X floatatom 36 199 5 0 0 0 - - -, f 5;
#X obj 98 167 <, f 5;
#X obj 98 189 sel 1;
#X obj 98 48 inlet clk;
#X obj 98 251 outlet chanceModified;
#X obj 125 121 inlet % chance;
#X obj 158 206 bng 15 250 50 0 empty empty empty 17 7 0 10 -262144
-1 -1;
#X connect 0 0 1 0;
#X connect 0 0 3 0;
#X connect 3 0 2 0;
#X connect 3 0 4 0;
#X connect 4 0 6 0;
#X connect 5 0 0 0;
#X connect 7 0 3 1;
#X connect 8 0 6 0;
