#N canvas 0 22 778 742 10;
#X obj 147 381 - 1;
#X floatatom 147 403 5 0 0 0 - - -, f 5;
#X obj 147 336 random 2;
#X obj 72 226 inlet;
#X obj 122 700 outlet;
#X floatatom 207 197 5 0 0 0 - - -, f 5;
#X obj 207 338 -, f 11;
#X obj 243 273 t b f;
#X floatatom 207 360 5 0 0 0 - - -, f 5;
#X obj 147 482 *, f 25;
#X obj 147 578 +, f 15;
#X floatatom 147 600 5 0 0 0 - - -, f 5;
#X obj 207 507 t b f;
#X obj 267 412 t b f;
#X obj 207 168 r drunk;
#X obj 207 383 * -1;
#X floatatom 302 391 5 0 0 0 - - -, f 5;
#X obj 302 347 +, f 10;
#X obj 302 369 - 1;
#X obj 302 255 < 6;
#X obj 332 255 > -6;
#X obj 332 278 t b f;
#X obj 207 246 > 5;
#X obj 243 246 < -5;
#X obj 120 640 +, f 5;
#X obj 72 700 s drunk;
#X text 348 449 Left creates value to add if outside range Right checks
if value is in range to cancel it Value is always plus or minus 1;
#X obj 147 357 * 2, f 4;
#X obj 264 29 inlet lowerBound, f 10;
#X obj 317 75 inlet upperBound, f 10;
#X obj 222 123 - 2;
#X obj 317 184 - 1;
#X obj 264 123 + 2;
#X obj 353 184 + 1;
#X obj 72 641 f 0;
#X obj 207 306 f;
#X obj 302 311 f;
#X obj 147 548 f;
#X obj 147 453 f;
#X connect 0 0 1 0;
#X connect 1 0 38 0;
#X connect 2 0 27 0;
#X connect 3 0 2 0;
#X connect 3 0 34 0;
#X connect 5 0 19 0;
#X connect 5 0 20 0;
#X connect 5 0 22 0;
#X connect 5 0 23 0;
#X connect 6 0 8 0;
#X connect 7 0 35 0;
#X connect 7 1 6 1;
#X connect 8 0 15 0;
#X connect 9 0 37 0;
#X connect 10 0 11 0;
#X connect 11 0 24 1;
#X connect 12 0 37 0;
#X connect 12 1 10 1;
#X connect 13 0 38 0;
#X connect 13 1 9 1;
#X connect 14 0 5 0;
#X connect 15 0 12 0;
#X connect 16 0 13 0;
#X connect 17 0 18 0;
#X connect 18 0 16 0;
#X connect 19 0 36 0;
#X connect 20 0 21 0;
#X connect 21 0 36 0;
#X connect 21 1 17 1;
#X connect 22 0 35 0;
#X connect 23 0 7 0;
#X connect 24 0 34 1;
#X connect 27 0 0 0;
#X connect 28 0 32 0;
#X connect 28 0 33 0;
#X connect 29 0 30 0;
#X connect 29 0 31 0;
#X connect 30 0 22 1;
#X connect 31 0 19 1;
#X connect 32 0 23 1;
#X connect 33 0 20 1;
#X connect 34 0 24 0;
#X connect 34 0 25 0;
#X connect 34 0 4 0;
#X connect 35 0 6 0;
#X connect 36 0 17 0;
#X connect 37 0 10 0;
#X connect 38 0 9 0;
