#N canvas 783 231 820 578 10;
#N canvas 748 227 804 769 delay 0;
#X obj 46 653 delwrite~ \$0-delay 1000, f 9;
#X obj 46 627 +~;
#X obj 46 537 inlet~;
#X obj 203 217 inlet dlyL, f 5;
#X obj 242 217 inlet modF, f 5;
#X obj 305 216 inlet modDpth, f 7;
#X obj 332 387 inlet Fback;
#X floatatom 203 252 0 0 1000 0 - - -;
#X obj 203 412 delread4~ \$0-delay;
#X obj 203 479 *~, f 22;
#X obj 332 455 sig~;
#X floatatom 332 413 5 0 100 0 - - -, f 5;
#X obj 332 432 / 100;
#X obj 242 272 osc~ 0.2;
#X obj 252 370 snapshot~;
#X obj 252 346 metro 5;
#X obj 203 275 sig~;
#X obj 203 325 +~, f 7;
#X floatatom 252 392 5 0 0 0 - - -, f 5;
#X obj 242 299 *~, f 11;
#X floatatom 305 252 0 0 1000 0 - - -;
#X obj 305 275 sig~;
#X floatatom 242 252 5 0.01 10 0 - - -, f 5;
#X obj 61 602 r~ fbackSend;
#X obj 263 524 s~ fbackSend;
#X obj 140 654 outlet~, f 11;
#X floatatom 505 110 5 0 1 0 - - -, f 5;
#X floatatom 590 218 5 0 1 0 - - -, f 5;
#X msg 632 120 1;
#X obj 632 100 loadbang;
#X obj 632 141 t b f, f 6;
#X obj 632 165 f;
#X obj 590 195 -, f 13;
#X obj 590 237 * -1;
#X floatatom 590 259 5 0 0 0 - - -, f 5;
#X text 591 35 DryWet;
#X obj 505 64 inlet Dry/Wet;
#X obj 505 319 s dry;
#X obj 590 367 s wet;
#X obj 155 529 r dry;
#X obj 155 557 sig~;
#X obj 218 575 sig~;
#X obj 218 552 r wet;
#X obj 140 581 *~;
#X obj 203 602 *~;
#X obj 140 630 +~, f 11;
#N canvas 366 256 1059 620 (subpatch) 0;
#X array volumeCurve 100 float 3;
#A 0 1 0.992857 0.992857 0.992857 0.992857 0.985714 0.978571 0.978571
0.971429 0.971429 0.964286 0.957143 0.957143 0.95 0.95 0.942857 0.942857
0.935714 0.935714 0.935714 0.928572 0.928572 0.928572 0.921429 0.921429
0.921429 0.921429 0.914286 0.907143 0.907143 0.9 0.892857 0.892857
0.892857 0.885715 0.878572 0.871429 0.864286 0.864286 0.857143 0.857143
0.85 0.842857 0.828572 0.828572 0.821429 0.814286 0.807143 0.792858
0.785715 0.778572 0.771429 0.764286 0.757143 0.750001 0.742858 0.735715
0.728572 0.721429 0.714286 0.700001 0.700001 0.692858 0.692858 0.685715
0.678572 0.671429 0.664286 0.657143 0.642858 0.621429 0.614286 0.614286
0.607144 0.600001 0.600001 0.585715 0.585715 0.571429 0.557144 0.542858
0.492858 0.471429 0.450001 0.428572 0.392858 0.364287 0.335715 0.314287
0.271429 0.257144 0.235715 0.214287 0.200001 0.178572 0.157144 0.12143
0.114287 0.0785724 0;
#X coords 0 0 100 1 200 140 1 0 0;
#X restore -6 19 graph;
#X obj 505 237 tabread volumeCurve, f 11;
#X floatatom 505 217 5 0 100 0 - - -, f 5;
#X floatatom 505 299 5 0 0 0 - - -, f 5;
#X obj 505 192 * 100;
#X obj 590 278 * 100;
#X obj 590 323 tabread volumeCurve;
#X floatatom 590 303 5 0 100 0 - - -, f 5;
#X floatatom 590 345 5 0 0 0 - - -, f 5;
#X connect 1 0 0 0;
#X connect 2 0 1 0;
#X connect 2 0 43 0;
#X connect 3 0 7 0;
#X connect 4 0 22 0;
#X connect 5 0 20 0;
#X connect 6 0 11 0;
#X connect 7 0 16 0;
#X connect 8 0 9 0;
#X connect 9 0 24 0;
#X connect 9 0 44 0;
#X connect 10 0 9 1;
#X connect 11 0 12 0;
#X connect 12 0 10 0;
#X connect 13 0 19 0;
#X connect 14 0 18 0;
#X connect 15 0 14 0;
#X connect 16 0 17 0;
#X connect 17 0 14 0;
#X connect 17 0 8 0;
#X connect 19 0 17 1;
#X connect 20 0 21 0;
#X connect 21 0 19 1;
#X connect 22 0 13 0;
#X connect 23 0 1 1;
#X connect 26 0 32 0;
#X connect 26 0 50 0;
#X connect 27 0 33 0;
#X connect 28 0 30 0;
#X connect 29 0 28 0;
#X connect 30 0 31 0;
#X connect 30 1 32 1;
#X connect 31 0 32 0;
#X connect 32 0 27 0;
#X connect 33 0 34 0;
#X connect 34 0 51 0;
#X connect 36 0 26 0;
#X connect 39 0 40 0;
#X connect 40 0 43 1;
#X connect 41 0 44 1;
#X connect 42 0 41 0;
#X connect 43 0 45 0;
#X connect 44 0 45 1;
#X connect 45 0 25 0;
#X connect 47 0 49 0;
#X connect 48 0 47 0;
#X connect 49 0 37 0;
#X connect 50 0 48 0;
#X connect 51 0 53 0;
#X connect 52 0 54 0;
#X connect 53 0 52 0;
#X connect 54 0 38 0;
#X restore 217 423 pd delay, f 29;
#X floatatom 251 336 5 0 0 0 - - -, f 5;
#X floatatom 285 356 5 0 0 0 - - -, f 5;
#X floatatom 319 371 5 0 0 0 - - -, f 5;
#X floatatom 353 386 5 0 0 0 - - -, f 5;
#X obj 251 266 loadbang;
#X msg 251 288 30 0.05 2 85 0.5;
#X obj 251 310 unpack 0 0 0 0 0, f 23;
#X floatatom 388 402 5 0 1 0 - - -, f 5;
#X text 252 242 Del Length / modFreq / modDepth / Feedback / DryWet
;
#X obj 217 445 *~ 0.25;
#X obj 217 467 outlet~;
#X obj 217 213 inlet~;
#X connect 0 0 10 0;
#X connect 1 0 0 1;
#X connect 2 0 0 2;
#X connect 3 0 0 3;
#X connect 4 0 0 4;
#X connect 5 0 6 0;
#X connect 6 0 7 0;
#X connect 7 0 1 0;
#X connect 7 1 2 0;
#X connect 7 2 3 0;
#X connect 7 3 4 0;
#X connect 7 4 8 0;
#X connect 8 0 0 5;
#X connect 10 0 11 0;
#X connect 12 0 0 0;
