#N canvas 314 23 545 653 10;
#X obj 178 341 makenote 127 50;
#X floatatom 265 305 5 0 0 0 - - -, f 5;
#X obj 178 457 route 1 2 3 4, f 56;
#X obj 178 413 poly 4 1, f 10;
#N canvas 0 22 616 523 voiceSumming 0;
#X obj 86 130 inlet~;
#X obj 187 130 inlet~;
#X obj 287 130 inlet~;
#X obj 387 130 inlet~;
#X obj 86 192 +~;
#X obj 86 224 +~;
#X obj 86 261 +~;
#X obj 86 407 outlet~;
#X obj 86 385 *~ 0.2;
#X floatatom 170 348 5 0 0 0 - - -, f 5;
#X obj 170 299 loadbang;
#X msg 170 321 0.3;
#X connect 0 0 4 0;
#X connect 1 0 4 1;
#X connect 2 0 5 1;
#X connect 3 0 6 1;
#X connect 4 0 5 0;
#X connect 5 0 6 0;
#X connect 6 0 8 0;
#X connect 8 0 7 0;
#X connect 9 0 8 1;
#X connect 10 0 11 0;
#X connect 11 0 9 0;
#X restore 178 520 pd voiceSumming, f 42;
#X obj 178 572 outlet~;
#X text 323 305 noteLength;
#X text 104 227 note input;
#X obj 178 435 pack f f f;
#X obj 178 363 pack f f;
#X obj 178 485 drum_1_voice;
#N canvas 0 22 450 278 (subpatch) 0;
#X array drum_1_1 16 float 3;
#A 0 122.464 -6.86646e-05 33.02 -5.08002 -15.2401 99.06 -7.62004 99.06
86.3599 -17.7801 -17.7801 -17.7801 -25.4001 -25.4001 -25.4001 -25.4001
;
#X coords 0 127 16 0 400 50 1 0 0;
#X restore 20 18 graph;
#X obj 178 183 tabread drum_1_1;
#X obj 178 213 sel 0;
#X floatatom 221 213 5 0 0 0 - - -, f 5;
#X obj 66 476 print;
#X obj 178 242 f;
#X obj 221 242 + 1;
#X floatatom 178 264 5 0 0 0 - - -, f 5;
#X obj 178 283 % 4;
#X obj 178 305 + 60;
#X obj 178 542 *~ 1;
#X obj 261 485 drum_1_voice;
#X obj 344 485 drum_1_voice;
#X obj 427 485 drum_1_voice;
#X obj 178 156 r clk_1/16e;
#X floatatom 124 185 5 0 0 0 - - -, f 5;
#X obj 257 271 bng 15 250 50 0 empty empty empty 17 7 0 10 -262144
-1 -1;
#X connect 0 0 9 0;
#X connect 0 1 9 1;
#X connect 1 0 0 2;
#X connect 2 0 10 0;
#X connect 2 1 22 0;
#X connect 2 2 23 0;
#X connect 2 3 24 0;
#X connect 3 0 8 0;
#X connect 3 0 15 0;
#X connect 3 1 8 1;
#X connect 3 2 8 2;
#X connect 4 0 21 0;
#X connect 8 0 2 0;
#X connect 9 0 3 0;
#X connect 10 0 4 0;
#X connect 12 0 13 0;
#X connect 12 0 14 0;
#X connect 13 0 16 0;
#X connect 14 0 0 1;
#X connect 14 0 27 0;
#X connect 16 0 17 0;
#X connect 16 0 18 0;
#X connect 17 0 16 1;
#X connect 18 0 19 0;
#X connect 19 0 20 0;
#X connect 20 0 0 0;
#X connect 21 0 5 0;
#X connect 22 0 4 1;
#X connect 23 0 4 2;
#X connect 24 0 4 3;
#X connect 25 0 12 0;
#X connect 25 0 26 0;
#X connect 27 0 20 0;
