#N canvas 583 100 657 592 10;
#X obj 431 112 sel 0;
#X obj 296 23 inlet p;
#X obj 371 340 outlet~;
#X obj 458 185 hv.vline;
#X obj 458 229 *~;
#X obj 296 45 unpack f f, f 23;
#X obj 371 292 *~, f 15;
#X obj 371 264 noise~;
#X obj 547 242 snapshot~;
#X obj 547 196 metro 20;
#X floatatom 547 264 5 0 0 0 - - -, f 5;
#X obj 557 173 tgl 15 0 empty empty empty 17 7 0 10 -262144 -1 -1 1
1;
#X msg 503 74 127;
#X obj 503 96 / 127;
#X floatatom 296 87 5 0 0 0 - - -, f 5;
#X floatatom 390 84 5 0 0 0 - - -, f 5;
#X msg 458 143 0 2 \, 1 2 2 \, 0 50 4;
#X connect 0 1 16 0;
#X connect 1 0 5 0;
#X connect 3 0 4 0;
#X connect 3 0 4 1;
#X connect 3 0 8 0;
#X connect 4 0 6 1;
#X connect 5 0 14 0;
#X connect 5 1 12 0;
#X connect 5 1 15 0;
#X connect 5 1 0 0;
#X connect 6 0 2 0;
#X connect 7 0 6 0;
#X connect 8 0 10 0;
#X connect 9 0 8 0;
#X connect 11 0 9 0;
#X connect 12 0 13 0;
#X connect 16 0 3 0;
