#N canvas 526 126 657 592 10;
#X obj 323 47 inlet p;
#X obj 371 238 outlet~;
#X obj 458 165 hv.vline;
#X obj 458 189 *~;
#X obj 323 69 unpack f f, f 23;
#X obj 371 212 *~, f 15;
#X obj 371 184 noise~;
#X obj 458 91 / 127;
#X obj 458 113 pack f f;
#X floatatom 503 89 5 0 0 0 - - -, f 5;
#X obj 503 43 loadbang;
#X msg 458 143 0 2 \, \$1 2 2 \, 0 \$2 4;
#X msg 503 65 50;
#X text 552 90 hat decay;
#X connect 0 0 4 0;
#X connect 2 0 3 0;
#X connect 2 0 3 1;
#X connect 3 0 5 1;
#X connect 4 1 7 0;
#X connect 5 0 1 0;
#X connect 6 0 5 0;
#X connect 7 0 8 0;
#X connect 8 0 11 0;
#X connect 9 0 8 1;
#X connect 10 0 12 0;
#X connect 11 0 2 0;
#X connect 12 0 9 0;
