#N canvas 393 210 1184 880 10;
#X obj 178 391 makenote 127 50, f 20;
#X floatatom 295 367 5 0 0 0 - - -, f 5;
#X obj 178 627 route 1 2 3 4, f 56;
#X obj 178 583 poly 4 1, f 10;
#N canvas 0 22 616 523 voiceSumming 0;
#X obj 86 130 inlet~;
#X obj 187 130 inlet~;
#X obj 287 130 inlet~;
#X obj 387 130 inlet~;
#X obj 86 192 +~;
#X obj 86 224 +~;
#X obj 86 261 +~;
#X obj 86 407 outlet~;
#X obj 86 385 *~ 0.2;
#X floatatom 170 348 5 0 0 0 - - -, f 5;
#X obj 170 299 loadbang;
#X msg 170 321 0.3, f 42;
#X connect 0 0 4 0;
#X connect 1 0 4 1;
#X connect 2 0 5 1;
#X connect 3 0 6 1;
#X connect 4 0 5 0;
#X connect 5 0 6 0;
#X connect 6 0 8 0;
#X connect 8 0 7 0;
#X connect 9 0 8 1;
#X connect 10 0 11 0;
#X connect 11 0 9 0;
#X restore 178 690 pd voiceSumming;
#X obj 178 742 outlet~;
#X text 333 363 noteLength;
#X text 6 280 note input;
#X obj 178 605 pack f f f;
#X obj 178 433 pack f f, f 20;
#X obj 178 655 drum_1_voice;
#N canvas 0 22 450 278 (subpatch) 0;
#X array drum_1_2 16 float 3;
#A 0 116.84 10.1597 17.7797 76.2 25.3997 25.3997 33.0198 38.0998 45.7198
58.4198 66.0399 73.6599 81.2799 86.3599 93.98 101.6;
#X coords 0 127 16 0 400 50 1 0 0;
#X restore 456 29 graph;
#X obj 151 193 sel 0;
#X obj 178 280 f;
#X obj 204 280 + 1;
#X floatatom 178 305 5 0 0 0 - - -, f 5;
#X obj 178 327 % 4;
#X obj 178 355 + 60;
#X obj 178 712 *~ 1;
#X obj 151 120 r clk_1/16e;
#X obj 178 555 spigot;
#X obj 211 503 tgl 15 0 empty empty empty 17 7 0 10 -262144 -1 -1 1
1;
#X obj 537 426 s hatDecay;
#X floatatom 537 388 5 0 0 0 - - -, f 5;
#X obj 537 342 loadbang;
#X msg 537 364 50;
#X obj 261 655 drum_1_voice;
#X obj 344 655 drum_1_voice;
#X obj 427 655 drum_1_voice;
#X obj 113 223 r clkTrig;
#X text 233 503 active;
#X obj 22 81 hsl 400 15 0 15 0 0 empty empty empty -2 -8 0 10 -262144
-1 -1 10640 1;
#N canvas 0 22 450 278 (subpatch) 0;
#X array drum_1_1 16 float 3;
#A 0 116.84 55.8801 0 0 0 22.8599 71.12 50.8 99.06 0 -8.39233e-05 48.26
0 0 0 0;
#X coords 0 127 16 0 400 50 1 0 0;
#X restore 21 29 graph;
#X obj 178 222 t b f, f 10;
#X text 247 234 sel only outputs if NOT zero passes self to v in then
bangs note index;
#X obj 151 163 tabread drum_1_2;
#X obj 211 476 r hatsToggle @hv_param 0 1 0;
#X obj 211 526 startSyncObject;
#N canvas 897 136 927 641 patternChange 1;
#X obj 278 306 sel 0 1 2 3 4 5, f 21;
#X obj 278 337 bng 15 250 50 0 empty empty empty 17 7 0 10 -262144
-1 -1;
#X obj 298 337 bng 15 250 50 0 empty empty empty 17 7 0 10 -262144
-1 -1;
#X obj 319 337 bng 15 250 50 0 empty empty empty 17 7 0 10 -262144
-1 -1;
#X obj 339 337 bng 15 250 50 0 empty empty empty 17 7 0 10 -262144
-1 -1;
#X floatatom 389 245 5 0 0 0 - - -, f 5;
#X obj 298 488 outlet;
#X obj 389 150 r A_patternIndex @hv_param 1 10 1;
#X obj 408 179 loadbang;
#X msg 408 201 1;
#X obj 278 275 patternChangeObject;
#X obj 278 218 r clk_1/1;
#X msg 319 391 set drum_1_2;
#X msg 298 364 set drum_1_1;
#X connect 0 0 1 0;
#X connect 0 1 2 0;
#X connect 0 2 3 0;
#X connect 0 3 4 0;
#X connect 2 0 13 0;
#X connect 3 0 12 0;
#X connect 5 0 10 1;
#X connect 7 0 5 0;
#X connect 8 0 9 0;
#X connect 9 0 5 0;
#X connect 10 0 0 0;
#X connect 11 0 10 0;
#X connect 12 0 6 0;
#X connect 13 0 6 0;
#X restore 229 120 pd patternChange;
#X connect 0 0 9 0;
#X connect 0 1 9 1;
#X connect 1 0 0 2;
#X connect 2 0 10 0;
#X connect 2 1 26 0;
#X connect 2 2 27 0;
#X connect 2 3 28 0;
#X connect 3 0 8 0;
#X connect 3 1 8 1;
#X connect 3 2 8 2;
#X connect 4 0 18 0;
#X connect 8 0 2 0;
#X connect 9 0 20 0;
#X connect 10 0 4 0;
#X connect 12 1 33 0;
#X connect 13 0 14 0;
#X connect 13 0 15 0;
#X connect 14 0 13 1;
#X connect 15 0 16 0;
#X connect 16 0 17 0;
#X connect 17 0 0 0;
#X connect 18 0 5 0;
#X connect 19 0 31 0;
#X connect 19 0 35 0;
#X connect 20 0 3 0;
#X connect 21 0 37 0;
#X connect 23 0 22 0;
#X connect 24 0 25 0;
#X connect 25 0 23 0;
#X connect 26 0 4 1;
#X connect 27 0 4 2;
#X connect 28 0 4 3;
#X connect 29 0 13 0;
#X connect 33 0 13 0;
#X connect 33 1 0 1;
#X connect 35 0 12 0;
#X connect 36 0 21 0;
#X connect 37 0 20 1;
#X connect 38 0 35 0;
