#N canvas 244 307 187 227 10;
#X floatatom 90 47 5 0 0 0 - - -, f 5;
#X obj 90 77 *;
#X obj 90 128 line~, f 6;
#X msg 90 100 \$1 10;
#X obj 33 21 inlet~;
#X obj 90 21 inlet vol;
#X obj 33 159 *~, f 10;
#X obj 33 181 outlet~;
#X connect 0 0 1 0;
#X connect 0 0 1 1;
#X connect 1 0 3 0;
#X connect 2 0 6 1;
#X connect 3 0 2 0;
#X connect 4 0 6 0;
#X connect 5 0 0 0;
#X connect 6 0 7 0;
