#N canvas 792 90 1120 664 10;
#X obj 159 169 + 4;
#X obj 259 169 + 6;
#X obj 359 169 + 8;
#X obj 459 169 + 9;
#X obj 560 169 + 11;
#X floatatom 258 44 5 0 0 0 - - -, f 5;
#X obj 59 190 scaleWrapObject;
#N canvas 0 22 889 519 voiceSumming 0;
#X obj 86 130 inlet~;
#X obj 137 130 inlet~;
#X obj 187 130 inlet~;
#X obj 237 130 inlet~;
#X obj 337 130 inlet~;
#X obj 86 192 +~;
#X obj 86 224 +~;
#X obj 86 261 +~;
#X obj 86 437 outlet~;
#X obj 287 130 inlet~;
#X obj 86 284 +~;
#X obj 86 321 +~;
#X floatatom 119 392 5 0 0 0 - - -, f 5;
#X obj 119 346 loadbang;
#X msg 119 368 0.1;
#X obj 86 415 *~ 0.1, f 84;
#X connect 0 0 5 0;
#X connect 1 0 5 1;
#X connect 2 0 6 1;
#X connect 3 0 7 1;
#X connect 4 0 11 1;
#X connect 5 0 6 0;
#X connect 6 0 7 0;
#X connect 7 0 10 0;
#X connect 9 0 10 1;
#X connect 10 0 11 0;
#X connect 11 0 15 0;
#X connect 12 0 15 1;
#X connect 13 0 14 0;
#X connect 14 0 12 0;
#X connect 15 0 8 0;
#X restore 59 256 pd voiceSumming;
#X obj 159 190 scaleWrapObject;
#X obj 259 190 scaleWrapObject;
#X obj 359 190 scaleWrapObject;
#X obj 459 190 scaleWrapObject;
#X obj 560 190 scaleWrapObject;
#X obj 59 568 *~, f 30;
#X obj 59 607 dac~;
#X obj 59 233 hv.osc sine;
#X obj 159 233 hv.osc sine;
#X obj 259 233 hv.osc sine;
#X obj 359 233 hv.osc sine;
#X obj 459 233 hv.osc sine;
#X obj 560 233 hv.osc sine;
#X obj 59 212 mtof;
#X obj 159 212 mtof;
#X obj 259 212 mtof;
#X obj 359 212 mtof;
#X obj 459 212 mtof;
#X obj 560 212 mtof;
#X obj 258 63 + 0;
#X obj 258 10 r drone;
#X floatatom 209 436 5 0 0 0 - - -, f 5;
#X obj 209 414 tabread jazzChord_1;
#X obj 236 509 hv.vline;
#X obj 236 546 *~;
#X obj 209 461 sel 0;
#X msg 236 484 1 4 \, 0 400 4;
#X obj 539 432 s clk_1/16e;
#X obj 209 390 r clk_1/16e;
#X connect 0 0 8 0;
#X connect 1 0 9 0;
#X connect 2 0 10 0;
#X connect 3 0 11 0;
#X connect 4 0 12 0;
#X connect 5 0 27 0;
#X connect 6 0 21 0;
#X connect 7 0 13 0;
#X connect 8 0 22 0;
#X connect 9 0 23 0;
#X connect 10 0 24 0;
#X connect 11 0 25 0;
#X connect 12 0 26 0;
#X connect 13 0 14 0;
#X connect 13 0 14 1;
#X connect 15 0 7 0;
#X connect 16 0 7 1;
#X connect 17 0 7 2;
#X connect 18 0 7 3;
#X connect 19 0 7 4;
#X connect 20 0 7 5;
#X connect 21 0 15 0;
#X connect 22 0 16 0;
#X connect 23 0 17 0;
#X connect 24 0 18 0;
#X connect 25 0 19 0;
#X connect 26 0 20 0;
#X connect 27 0 0 0;
#X connect 27 0 1 0;
#X connect 27 0 2 0;
#X connect 27 0 3 0;
#X connect 27 0 4 0;
#X connect 27 0 6 0;
#X connect 28 0 5 0;
#X connect 29 0 33 0;
#X connect 30 0 29 0;
#X connect 31 0 32 0;
#X connect 31 0 32 1;
#X connect 32 0 13 1;
#X connect 33 1 34 0;
#X connect 34 0 31 0;
#X connect 36 0 30 0;
