#N canvas 349 63 1527 885 10;
#X obj 159 219 + 4;
#X obj 459 219 + 9;
#X floatatom 258 94 5 0 0 0 - - -, f 5;
#X obj 59 240 scaleWrapObject;
#N canvas 437 89 889 519 voiceSumming 0;
#X obj 86 130 inlet~;
#X obj 137 130 inlet~;
#X obj 187 130 inlet~;
#X obj 237 130 inlet~;
#X obj 337 130 inlet~;
#X obj 86 192 +~;
#X obj 86 224 +~;
#X obj 86 261 +~;
#X obj 86 437 outlet~;
#X obj 287 130 inlet~;
#X obj 86 284 +~;
#X obj 86 321 +~;
#X floatatom 119 392 5 0 0 0 - - -, f 5;
#X obj 119 346 loadbang;
#X obj 86 415 *~ 0.1, f 84;
#X msg 119 368 0.12, f 84;
#X connect 0 0 5 0;
#X connect 1 0 5 1;
#X connect 2 0 6 1;
#X connect 3 0 7 1;
#X connect 4 0 11 1;
#X connect 5 0 6 0;
#X connect 6 0 7 0;
#X connect 7 0 10 0;
#X connect 9 0 10 1;
#X connect 10 0 11 0;
#X connect 11 0 14 0;
#X connect 12 0 14 1;
#X connect 13 0 15 0;
#X connect 14 0 8 0;
#X connect 15 0 12 0;
#X restore 59 336 pd voiceSumming;
#X obj 159 240 scaleWrapObject;
#X obj 259 240 scaleWrapObject;
#X obj 359 240 scaleWrapObject;
#X obj 459 240 scaleWrapObject;
#X obj 560 240 scaleWrapObject;
#X obj 59 618 *~, f 30;
#X obj 59 283 hv.osc sine;
#X obj 159 283 hv.osc sine;
#X obj 259 283 hv.osc sine;
#X obj 359 283 hv.osc sine;
#X obj 459 283 hv.osc sine;
#X obj 560 283 hv.osc sine;
#X obj 59 262 mtof;
#X obj 159 262 mtof;
#X obj 259 262 mtof;
#X obj 359 262 mtof;
#X obj 459 262 mtof;
#X obj 560 262 mtof;
#X obj 258 143 + 0;
#X obj 258 60 r drone;
#X floatatom 209 426 5 0 0 0 - - -, f 5;
#X obj 209 404 tabread jazzChord_1;
#X obj 236 559 hv.vline;
#X obj 236 596 *~;
#X obj 209 451 sel 0;
#X obj 209 380 r clk_1/16e;
#X obj 560 219 + 11;
#X obj 259 219 + 6;
#X obj 359 219 + 8;
#X obj 236 492 spigot;
#X obj 269 472 tgl 15 0 empty empty empty 17 7 0 10 -262144 -1 -1 1
1;
#X obj 207 493 bng 15 250 50 0 empty empty empty 17 7 0 10 -262144
-1 -1;
#X text 154 493 oneShot;
#X text 290 471 on/off;
#X obj 59 657 outlet~;
#X obj 269 448 loadbang;
#X msg 236 534 0 4 \, 1 6 2 \, 0 200 10;
#X obj 342 63 r jzChordOffset @hv_param 0 48 0;
#X obj 258 120 f;
#X obj 342 85 t b f;
#X connect 0 0 5 0;
#X connect 1 0 8 0;
#X connect 2 0 43 0;
#X connect 3 0 17 0;
#X connect 4 0 10 0;
#X connect 5 0 18 0;
#X connect 6 0 19 0;
#X connect 7 0 20 0;
#X connect 8 0 21 0;
#X connect 9 0 22 0;
#X connect 10 0 39 0;
#X connect 11 0 4 0;
#X connect 12 0 4 1;
#X connect 13 0 4 2;
#X connect 14 0 4 3;
#X connect 15 0 4 4;
#X connect 16 0 4 5;
#X connect 17 0 11 0;
#X connect 18 0 12 0;
#X connect 19 0 13 0;
#X connect 20 0 14 0;
#X connect 21 0 15 0;
#X connect 22 0 16 0;
#X connect 23 0 0 0;
#X connect 23 0 1 0;
#X connect 23 0 3 0;
#X connect 23 0 31 0;
#X connect 23 0 32 0;
#X connect 23 0 33 0;
#X connect 24 0 2 0;
#X connect 25 0 29 0;
#X connect 26 0 25 0;
#X connect 27 0 28 0;
#X connect 27 0 28 1;
#X connect 28 0 10 1;
#X connect 29 1 34 0;
#X connect 29 1 36 0;
#X connect 30 0 26 0;
#X connect 31 0 9 0;
#X connect 32 0 6 0;
#X connect 33 0 7 0;
#X connect 34 0 41 0;
#X connect 35 0 34 1;
#X connect 40 0 35 0;
#X connect 41 0 27 0;
#X connect 42 0 44 0;
#X connect 43 0 23 0;
#X connect 44 0 43 0;
#X connect 44 1 23 1;
