#N canvas 707 88 932 788 10;
#N canvas 0 22 616 523 voiceSumming 0;
#X obj 86 130 inlet~;
#X obj 187 130 inlet~;
#X obj 287 130 inlet~;
#X obj 387 130 inlet~;
#X obj 86 192 +~;
#X obj 86 224 +~;
#X obj 86 261 +~;
#X obj 86 407 outlet~;
#X obj 86 385 *~ 0.2;
#X floatatom 170 348 5 0 0 0 - - -, f 5;
#X obj 170 299 loadbang;
#X msg 170 321 0.3, f 42;
#X connect 0 0 4 0;
#X connect 1 0 4 1;
#X connect 2 0 5 1;
#X connect 3 0 6 1;
#X connect 4 0 5 0;
#X connect 5 0 6 0;
#X connect 6 0 8 0;
#X connect 8 0 7 0;
#X connect 9 0 8 1;
#X connect 10 0 11 0;
#X connect 11 0 9 0;
#X restore 171 670 pd voiceSumming;
#X obj 171 722 outlet~;
#N canvas 0 22 450 278 (subpatch) 0;
#X array kick_1 16 float 3;
#A 0 119.38 0 0 0 0 0 83.82 0 0 0 0 0 0 0 0 0;
#X coords 0 127 16 0 400 50 1 0 0;
#X restore 20 18 graph;
#X obj 171 692 *~ 1;
#X floatatom 100 185 5 0 0 0 - - -, f 5;
#X obj 144 156 r clk_1/16e;
#X obj 171 635 kick_voice;
#X obj 144 183 tabread kick_1;
#X obj 22 71 hsl 400 15 0 15 0 0 empty empty empty -2 -8 0 10 -262144
-1 -1 37240 1;
#X obj 171 408 makenote 127 50, f 20;
#X floatatom 288 384 5 0 0 0 - - -, f 5;
#X obj 171 604 route 1 2 3 4, f 56;
#X obj 171 560 poly 4 1, f 10;
#X text 326 380 noteLength;
#X obj 171 582 pack f f f;
#X obj 171 450 pack f f;
#X obj 144 210 sel 0;
#X obj 171 297 f;
#X obj 197 297 + 1;
#X floatatom 171 322 5 0 0 0 - - -, f 5;
#X obj 171 344 % 4;
#X obj 171 372 + 60;
#X obj 171 532 spigot;
#X obj 204 507 tgl 15 0 empty empty empty 17 7 0 10 -262144 -1 -1 1
1;
#X obj 106 240 r clkTrig;
#X text 231 507 active;
#X obj 171 239 t b f, f 10;
#X text 240 251 sel only outputs if NOT zero passes self to v in then
bangs note index;
#X obj 485 351 s kickDecay;
#X floatatom 485 333 5 0 0 0 - - -, f 5;
#X obj 485 292 loadbang;
#X obj 254 635 kick_voice;
#X obj 337 635 kick_voice;
#X obj 420 635 kick_voice;
#X msg 485 313 600;
#X obj 204 480 loadbang;
#X obj 313 464 r kickActive @hv_event;
#X connect 0 0 3 0;
#X connect 3 0 1 0;
#X connect 4 0 8 0;
#X connect 5 0 4 0;
#X connect 5 0 7 0;
#X connect 6 0 0 0;
#X connect 7 0 16 0;
#X connect 9 0 15 0;
#X connect 9 1 15 1;
#X connect 10 0 9 2;
#X connect 11 0 6 0;
#X connect 11 1 31 0;
#X connect 11 2 32 0;
#X connect 11 3 33 0;
#X connect 12 0 14 0;
#X connect 12 1 14 1;
#X connect 12 2 14 2;
#X connect 14 0 11 0;
#X connect 15 0 22 0;
#X connect 16 1 26 0;
#X connect 17 0 18 0;
#X connect 17 0 19 0;
#X connect 18 0 17 1;
#X connect 19 0 20 0;
#X connect 20 0 21 0;
#X connect 21 0 9 0;
#X connect 22 0 12 0;
#X connect 23 0 22 1;
#X connect 24 0 17 0;
#X connect 26 0 17 0;
#X connect 26 1 9 1;
#X connect 29 0 28 0;
#X connect 30 0 34 0;
#X connect 31 0 0 1;
#X connect 32 0 0 2;
#X connect 33 0 0 3;
#X connect 34 0 29 0;
#X connect 35 0 23 0;
#X connect 36 0 23 0;
