#N canvas 76 70 1078 762 10;
#X obj 203 70 inlet p;
#X obj 278 373 outlet~;
#X obj 365 300 hv.vline;
#X obj 365 324 *~;
#X obj 203 106 unpack f f, f 23;
#X obj 278 347 *~, f 15;
#X obj 365 226 / 127;
#X obj 365 248 pack f f;
#X obj 338 151 sel 0;
#X obj 365 201 +;
#X obj 278 319 osc~ 51;
#X obj 410 198 r kickDecay;
#X msg 365 278 0 1 \, \$1 1 1 \, 0 \$2 4;
#X connect 0 0 4 0;
#X connect 2 0 3 0;
#X connect 2 0 3 1;
#X connect 3 0 5 1;
#X connect 4 1 8 0;
#X connect 4 1 9 1;
#X connect 5 0 1 0;
#X connect 6 0 7 0;
#X connect 7 0 12 0;
#X connect 8 1 9 0;
#X connect 9 0 6 0;
#X connect 10 0 5 0;
#X connect 11 0 7 1;
#X connect 12 0 2 0;
