#N canvas 27 114 1040 728 10;
#X msg 180 202 set scale_major;
#X msg 232 227 set scale_minorPent;
#X obj 180 174 sel 0 1, f 18;
#X obj 180 141 r mstrScale;
#X obj 399 177 sel 0 1;
#X obj 399 144 r mstrScale;
#X msg 399 205 7;
#X msg 418 225 5;
#X obj 180 295 s scaleName;
#X obj 399 303 s scaleLength;
#X obj 240 569 r scaleName;
#X msg 240 591 scale_major;
#X obj 373 569 r scaleLength;
#X floatatom 273 62 5 0 0 0 - - -, f 5;
#X obj 273 81 s mstrScale;
#X floatatom 373 592 5 0 0 0 - - -, f 5;
#X obj 273 17 loadbang;
#X msg 273 39 0;
#X floatatom 97 553 5 0 0 0 - - -, f 5;
#X floatatom 97 615 5 0 0 0 - - -, f 5;
#X floatatom 756 357 5 0 0 0 - - -, f 5;
#X obj 756 308 loadbang;
#X msg 756 330 0;
#X obj 756 376 s mstrOffset;
#X floatatom 873 355 5 0 0 0 - - -, f 5;
#X obj 873 306 loadbang;
#X msg 873 328 0;
#X obj 873 374 s keyOffset;
#X obj 97 593 scaleWrapObject;
#X text 174 327 sends scale Name;
#X text 397 327 sends scale interval length;
#X text 356 20 picks scale and allocates length;
#X text 754 397 offsets interval;
#X text 871 421 offsets key centre;
#X text 257 645 values being tested;
#X connect 0 0 8 0;
#X connect 1 0 8 0;
#X connect 2 0 0 0;
#X connect 2 1 1 0;
#X connect 3 0 2 0;
#X connect 4 0 6 0;
#X connect 4 1 7 0;
#X connect 5 0 4 0;
#X connect 6 0 9 0;
#X connect 7 0 9 0;
#X connect 10 0 11 0;
#X connect 12 0 15 0;
#X connect 13 0 14 0;
#X connect 16 0 17 0;
#X connect 17 0 13 0;
#X connect 18 0 28 0;
#X connect 20 0 23 0;
#X connect 21 0 22 0;
#X connect 22 0 20 0;
#X connect 24 0 27 0;
#X connect 25 0 26 0;
#X connect 26 0 24 0;
#X connect 28 0 19 0;
