#N canvas 840 114 951 738 10;
#X obj 348 542 hv.comb-ctrls;
#X obj 348 405 *~, f 27;
#X obj 348 359 sig~;
#X obj 483 259 sel 0;
#X obj 348 170 inlet p;
#X obj 510 342 hv.vline;
#X obj 348 254 mtof;
#X obj 510 386 *~;
#X obj 240 110 bng 15 250 50 0 empty empty empty 17 7 0 10 -262144
-1 -1;
#X obj 240 130 random 12;
#X obj 240 152 + 60;
#X obj 348 200 makenote 127 50, f 23;
#X obj 348 643 outlet~;
#X obj 348 516 hip~ 1000;
#X obj 348 592 lop~, f 23;
#X floatatom 483 568 5 0 0 0 - - -, f 5;
#X msg 483 523 \$1 4000;
#X obj 483 545 line, f 8;
#X floatatom 483 500 5 0 0 0 - - -, f 5;
#X obj 483 457 loadbang;
#X obj 348 381 hv.osc sine;
#X msg 510 300 1 5 \, 0 600 50;
#X obj 348 618 *~ 0.2;
#X msg 483 479 5000;
#X connect 0 0 14 0;
#X connect 1 0 13 0;
#X connect 2 0 20 0;
#X connect 3 1 21 0;
#X connect 4 0 11 0;
#X connect 5 0 7 0;
#X connect 5 0 7 1;
#X connect 6 0 2 0;
#X connect 7 0 1 1;
#X connect 8 0 9 0;
#X connect 9 0 10 0;
#X connect 10 0 11 0;
#X connect 11 0 6 0;
#X connect 11 1 3 0;
#X connect 13 0 0 0;
#X connect 14 0 22 0;
#X connect 15 0 14 1;
#X connect 16 0 17 0;
#X connect 17 0 15 0;
#X connect 18 0 16 0;
#X connect 19 0 23 0;
#X connect 20 0 1 0;
#X connect 21 0 5 0;
#X connect 22 0 12 0;
#X connect 23 0 18 0;
