#N canvas 438 153 951 738 10;
#X obj 348 473 hv.comb-ctrls;
#X obj 348 405 *~, f 27;
#X obj 348 359 sig~;
#X obj 483 259 sel 0;
#X obj 348 170 inlet p;
#X obj 510 342 hv.vline;
#X obj 348 254 mtof;
#X obj 510 386 *~;
#X obj 240 110 bng 15 250 50 0 empty empty empty 17 7 0 10 -262144
-1 -1;
#X obj 240 130 random 12;
#X obj 240 152 + 60;
#X obj 348 200 makenote 127 50, f 23;
#X obj 348 517 outlet~;
#X obj 348 495 *~ 0.2;
#X msg 510 300 1 5 \, 0 60 50;
#X obj 348 381 hv.osc saw;
#X obj 348 447 hip~ 1000;
#X obj 288 304 line;
#X floatatom 288 326 5 0 0 0 - - -, f 5;
#X msg 288 282 \$1 1;
#X connect 0 0 13 0;
#X connect 1 0 16 0;
#X connect 2 0 15 0;
#X connect 3 1 14 0;
#X connect 4 0 11 0;
#X connect 5 0 7 0;
#X connect 5 0 7 1;
#X connect 6 0 2 0;
#X connect 7 0 1 1;
#X connect 8 0 9 0;
#X connect 9 0 10 0;
#X connect 10 0 11 0;
#X connect 11 0 6 0;
#X connect 11 1 3 0;
#X connect 13 0 12 0;
#X connect 14 0 5 0;
#X connect 15 0 1 0;
#X connect 16 0 0 0;
#X connect 17 0 18 0;
#X connect 19 0 17 0;
