#N canvas 3 23 951 738 10;
#X declare -path droneMachine;
#X declare -path heavyLib;
#X obj 9 9 declare -path droneMachine;
#X obj 9 29 declare -path heavyLib;
#X obj 348 473 hv.comb-ctrls;
#X obj 348 405 *~, f 27;
#X obj 348 359 sig~;
#X obj 483 259 sel 0;
#X obj 348 170 inlet p;
#X obj 510 342 hv.vline;
#X obj 348 254 mtof;
#X obj 510 386 *~;
#X obj 348 304 line;
#X floatatom 348 326 5 0 0 0 - - -, f 5;
#X obj 240 110 bng 15 250 50 0 empty empty empty 17 7 0 10 -262144
-1 -1;
#X obj 240 130 random 12;
#X obj 240 152 + 60;
#X obj 348 200 makenote 127 50, f 23;
#X obj 348 517 outlet~;
#X msg 348 282 \$1 1;
#X obj 348 447 hip~ 100;
#X obj 348 495 *~ 0.2;
#X msg 510 300 1 5 \, 0 60 50;
#X obj 348 381 hv.osc sine;
#X connect 2 0 19 0;
#X connect 3 0 18 0;
#X connect 4 0 21 0;
#X connect 5 1 20 0;
#X connect 6 0 15 0;
#X connect 7 0 9 0;
#X connect 7 0 9 1;
#X connect 8 0 17 0;
#X connect 9 0 3 1;
#X connect 10 0 11 0;
#X connect 11 0 4 0;
#X connect 12 0 13 0;
#X connect 13 0 14 0;
#X connect 14 0 15 0;
#X connect 15 0 8 0;
#X connect 15 1 5 0;
#X connect 17 0 10 0;
#X connect 18 0 2 0;
#X connect 19 0 16 0;
#X connect 20 0 7 0;
#X connect 21 0 3 0;
