#N canvas 113 258 767 792 10;
#X obj 98 441 droneMachine;
#N canvas 1000 208 648 566 ranDom 0;
#X obj 115 88 bng 15 250 50 0 empty empty empty 17 7 0 10 -262144 -1
-1;
#X obj 115 108 random;
#X obj 115 130 t b f b f, f 25;
#X obj 115 242 f;
#X obj 115 264 sel 0;
#X obj 115 306 f;
#X floatatom 115 328 5 0 0 0 - - -, f 5;
#X obj 175 175 f;
#X floatatom 190 60 5 0 0 0 - - -, f 5;
#X obj 175 207 ==;
#X obj 29 189 sel 1;
#X obj 190 37 inlet;
#X obj 115 58 inlet;
#X obj 115 347 outlet;
#X connect 0 0 1 0;
#X connect 1 0 2 0;
#X connect 2 0 3 0;
#X connect 2 1 7 1;
#X connect 2 2 7 0;
#X connect 2 3 9 1;
#X connect 2 3 5 1;
#X connect 3 0 4 0;
#X connect 3 0 10 0;
#X connect 4 0 5 0;
#X connect 5 0 6 0;
#X connect 6 0 13 0;
#X connect 7 0 9 0;
#X connect 8 0 1 1;
#X connect 8 0 7 1;
#X connect 9 0 3 1;
#X connect 10 0 1 0;
#X connect 11 0 8 0;
#X connect 12 0 0 0;
#X restore 98 263 pd ranDom;
#X floatatom 149 243 5 0 0 0 - - -, f 5;
#X floatatom 98 285 5 0 0 0 - - -, f 5;
#X obj 149 200 loadbang;
#X floatatom 431 265 5 0 0 0 - - -, f 5;
#X obj 431 284 s binauralPhase;
#X obj 98 539 dac~, f 12;
#X obj 431 201 loadbang;
#X msg 431 243 8;
#X floatatom 531 265 5 0 0 0 - - -, f 5;
#X floatatom 588 265 5 0 0 0 - - -, f 5;
#X obj 531 284 s fRatio;
#X obj 588 284 s FMamount;
#X msg 531 243 1;
#X msg 588 243 0;
#X obj 462 29 loadbang;
#X msg 462 51 120;
#X floatatom 462 73 5 0 0 0 - - -, f 5;
#X obj 399 52 tgl 15 0 empty empty empty 17 7 0 10 -262144 -1 -1 0
1;
#X obj 399 93 clockEngine;
#X floatatom 167 155 5 0 0 0 - - -, f 5;
#X obj 167 115 loadbang;
#X obj 98 136 r clk_1/1;
#X msg 167 135 25;
#X obj 98 339 scaleWrapObject;
#X obj 98 177 chanceObject;
#X text 207 155 perCent_chance;
#N canvas 0 22 450 278 (subpatch) 0;
#X array array1 16 float 3;
#A 0 1 0 1 0 1 0 1 0 1 0 1 0 1 0 0 0;
#X coords 0 1 16 -1 200 140 1;
#X restore 182 592 graph;
#X msg 432 561 \; array1 read pattern2.txt;
#X msg 149 222 6;
#X obj 49 225 bng 15 250 50 0 empty empty empty 17 7 0 10 -262144 -1
-1;
#X connect 0 0 7 0;
#X connect 0 1 7 1;
#X connect 1 0 3 0;
#X connect 2 0 1 1;
#X connect 3 0 25 0;
#X connect 4 0 30 0;
#X connect 5 0 6 0;
#X connect 8 0 9 0;
#X connect 8 0 14 0;
#X connect 8 0 15 0;
#X connect 9 0 5 0;
#X connect 10 0 12 0;
#X connect 11 0 13 0;
#X connect 14 0 10 0;
#X connect 15 0 11 0;
#X connect 16 0 17 0;
#X connect 17 0 18 0;
#X connect 18 0 20 1;
#X connect 19 0 20 0;
#X connect 21 0 26 1;
#X connect 22 0 24 0;
#X connect 23 0 26 0;
#X connect 24 0 21 0;
#X connect 25 0 0 0;
#X connect 26 0 1 0;
#X connect 30 0 2 0;
#X connect 31 0 1 0;
