#N canvas 1117 74 766 916 10;
#X floatatom 170 176 5 0 0 0 - - -, f 5;
#X obj 248 355 div 7;
#X obj 170 355 mod 7;
#X floatatom 248 377 5 0 0 0 - - -, f 5;
#X floatatom 170 377 5 0 0 0 - - -, f 5;
#X floatatom 248 419 5 0 0 0 - - -, f 5;
#X obj 248 396 * 12;
#X floatatom 275 286 5 0 0 0 - - -, f 5;
#X obj 170 536 +, f 18;
#X obj 170 149 inlet;
#X obj 170 661 outlet;
#X obj 170 559 + 48;
#X obj 170 406 tabread scale_major, f 7;
#X obj 275 261 r scaleLength;
#X obj 18 320 r scaleName;
#X obj 209 219 r mstrOffset;
#X obj 170 245 +, f 7;
#X obj 170 502 f;
#X obj 248 458 t b f;
#X obj 170 611 +, f 12;
#X obj 239 579 r keyOffset;
#X text 294 218 Interval movement from master;
#X text 322 579 Key Change from master;
#X connect 0 0 16 0;
#X connect 1 0 3 0;
#X connect 2 0 4 0;
#X connect 3 0 6 0;
#X connect 4 0 12 0;
#X connect 5 0 18 0;
#X connect 6 0 5 0;
#X connect 7 0 1 1;
#X connect 7 0 2 1;
#X connect 8 0 11 0;
#X connect 9 0 0 0;
#X connect 11 0 19 0;
#X connect 12 0 17 0;
#X connect 13 0 7 0;
#X connect 14 0 12 0;
#X connect 15 0 16 1;
#X connect 16 0 2 0;
#X connect 16 0 1 0;
#X connect 17 0 8 0;
#X connect 18 0 17 0;
#X connect 18 1 8 1;
#X connect 19 0 10 0;
#X connect 20 0 19 1;
