#N canvas 583 72 227 188 10;
#N canvas 855 267 772 603 wrapped 1;
#X floatatom 194 233 5 0 0 0 - - -, f 5;
#X obj 248 292 div 7;
#X obj 194 292 mod 7;
#X floatatom 248 314 5 0 0 0 - - -, f 5;
#X floatatom 194 314 5 0 0 0 - - -, f 5;
#X floatatom 248 356 5 0 0 0 - - -, f 5;
#X obj 248 333 * 12;
#X floatatom 275 233 5 0 0 0 - - -, f 5;
#X obj 194 403 +, f 14;
#X obj 248 375 t b f;
#X obj 194 187 inlet;
#X obj 194 487 outlet;
#X floatatom 123 462 5 0 0 0 - - -, f 5;
#N canvas 0 22 450 278 (subpatch) 0;
#X array scale_major 7 float 3;
#A 0 0 2 4 5 7 9 11;
#X coords 0 12 7 0 200 140 1 0 0;
#X restore 437 89 graph;
#X obj 194 343 tabread scale_major, f 7;
#X obj 194 425 + 48;
#X connect 0 0 1 0;
#X connect 0 0 2 0;
#X connect 1 0 3 0;
#X connect 2 0 4 0;
#X connect 3 0 6 0;
#X connect 4 0 14 0;
#X connect 5 0 9 0;
#X connect 6 0 5 0;
#X connect 7 0 1 1;
#X connect 7 0 2 1;
#X connect 8 0 15 0;
#X connect 9 0 8 0;
#X connect 9 1 8 1;
#X connect 10 0 0 0;
#X connect 14 0 8 0;
#X connect 15 0 12 0;
#X connect 15 0 11 0;
#X restore 26 118 pd wrapped;
#X obj 26 140 outlet;
#X obj 26 20 inlet;
#X connect 0 0 1 0;
#X connect 2 0 0 0;
