#N canvas 583 71 321 458 10;
#X floatatom 81 97 5 0 0 0 - - -, f 5;
#X obj 144 156 div 7;
#X obj 81 156 mod 7;
#X floatatom 144 178 5 0 0 0 - - -, f 5;
#X floatatom 81 178 5 0 0 0 - - -, f 5;
#X floatatom 144 220 5 0 0 0 - - -, f 5;
#X obj 144 197 * 12;
#X floatatom 171 97 5 0 0 0 - - -, f 5;
#X obj 81 277 +, f 11;
#X obj 81 51 inlet;
#X obj 81 322 outlet;
#X obj 81 300 + 48;
#X obj 81 207 tabread scale_major, f 7;
#X connect 0 0 1 0;
#X connect 0 0 2 0;
#X connect 1 0 3 0;
#X connect 2 0 4 0;
#X connect 3 0 6 0;
#X connect 4 0 12 0;
#X connect 5 0 8 1;
#X connect 6 0 5 0;
#X connect 7 0 1 1;
#X connect 7 0 2 1;
#X connect 8 0 11 0;
#X connect 9 0 0 0;
#X connect 11 0 10 0;
#X connect 12 0 8 0;
