#N canvas 583 71 227 188 10;
#N canvas 860 203 772 603 wrapped 0;
#X floatatom 223 223 5 0 0 0 - - -, f 5;
#X obj 286 282 div 7;
#X obj 223 282 mod 7;
#X floatatom 286 304 5 0 0 0 - - -, f 5;
#X floatatom 223 304 5 0 0 0 - - -, f 5;
#X floatatom 286 346 5 0 0 0 - - -, f 5;
#X obj 286 323 * 12;
#X floatatom 313 223 5 0 0 0 - - -, f 5;
#X obj 223 403 +, f 11;
#X obj 223 177 inlet;
#X obj 223 448 outlet;
#N canvas 0 22 450 278 (subpatch) 0;
#X array scale_major 7 float 3;
#A 0 0 2 4 5 7 9 11;
#X coords 0 12 7 0 200 140 1 0 0;
#X restore 437 89 graph;
#X obj 223 426 + 48;
#X obj 223 333 tabread scale_minorPent, f 7;
#N canvas 0 22 450 278 (subpatch) 0;
#X array scale_minorPent 5 float 3;
#A 0 0 3 5 7 10;
#X coords 0 12 5 0 200 140 1 0 0;
#X restore 100 20 graph;
#X connect 0 0 1 0;
#X connect 0 0 2 0;
#X connect 1 0 3 0;
#X connect 2 0 4 0;
#X connect 3 0 6 0;
#X connect 4 0 13 0;
#X connect 5 0 8 1;
#X connect 6 0 5 0;
#X connect 7 0 1 1;
#X connect 7 0 2 1;
#X connect 8 0 12 0;
#X connect 9 0 0 0;
#X connect 12 0 10 0;
#X connect 13 0 8 0;
#X restore 26 118 pd wrapped;
#X obj 26 140 outlet;
#X obj 26 20 inlet;
#X connect 0 0 1 0;
#X connect 2 0 0 0;
