#N canvas 501 432 413 247 10;
#X obj 53 120 f, f 12;
#X obj 53 66 sel 0;
#X floatatom 53 142 5 0 0 0 - - -, f 5;
#X obj 53 24 r clk_1/16e;
#X obj 122 80 tgl 15 0 empty empty empty 17 7 0 10 -262144 -1 -1 0
1;
#X obj 53 173 outlet;
#X obj 122 55 inlet toggleStart;
#X text 155 129 float only changes on bar start;
#X connect 0 0 2 0;
#X connect 1 0 0 0;
#X connect 2 0 5 0;
#X connect 3 0 1 0;
#X connect 4 0 0 1;
#X connect 6 0 4 0;
