#N canvas 468 119 504 528 10;
#X obj 214 218 noise~;
#X obj 295 207 line~;
#X msg 295 158 1 0;
#X obj 295 130 bng 15 250 50 0 empty empty empty 17 7 0 10 -262144
-1 -1;
#X obj 214 240 *~, f 14;
#X obj 214 456 dac~;
#X obj 214 377 *~, f 17;
#X floatatom 313 359 5 0 0 0 - - -, f 5;
#X obj 214 478;
#X floatatom 277 337 5 0 0 0 - - -, f 5;
#X obj 335 157 pipe 1;
#X obj 295 68 tgl 15 0 empty empty empty 17 7 0 10 -262144 -1 -1 1
1;
#X floatatom 245 320 5 0 0 0 - - -, f 5;
#X obj 295 101 metro 200;
#X msg 335 179 0 1;
#X obj 277 270 loadbang;
#X msg 245 299 51;
#X msg 277 299 21;
#X msg 313 299 80;
#X obj 214 354 vcf~ 49 90, f 11;
#X connect 0 0 4 0;
#X connect 1 0 4 1;
#X connect 2 0 1 0;
#X connect 3 0 2 0;
#X connect 3 0 10 0;
#X connect 4 0 19 0;
#X connect 6 0 5 0;
#X connect 6 0 5 1;
#X connect 7 0 6 1;
#X connect 9 0 19 2;
#X connect 10 0 14 0;
#X connect 11 0 13 0;
#X connect 12 0 19 1;
#X connect 13 0 3 0;
#X connect 14 0 1 0;
#X connect 15 0 18 0;
#X connect 15 0 17 0;
#X connect 15 0 16 0;
#X connect 16 0 12 0;
#X connect 17 0 9 0;
#X connect 18 0 7 0;
#X connect 19 0 6 0;
