#N canvas 0 22 450 300 10;
#N canvas 45 88 647 456 source 0;
#X obj 284 179 noise~;
#X obj 355 179 osc~ 440;
#X obj 429 179 phasor~ 440;
#X obj 284 291 *~;
#X obj 355 291 *~;
#X obj 429 291 *~;
#X obj 284 333 +~;
#X obj 284 375 +~;
#X obj 284 397 outlet~;
#X obj 301 43 inlet;
#X obj 299 117 sig~;
#X obj 331 117 sig~;
#X obj 363 117 sig~;
#X obj 301 79 == 0;
#X obj 331 79 == 1;
#X obj 361 79 == 2;
#X connect 0 0 3 0;
#X connect 1 0 4 0;
#X connect 2 0 5 0;
#X connect 3 0 6 0;
#X connect 4 0 6 1;
#X connect 5 0 7 1;
#X connect 6 0 7 0;
#X connect 7 0 8 0;
#X connect 9 0 13 0;
#X connect 9 0 14 0;
#X connect 9 0 15 0;
#X connect 10 0 3 1;
#X connect 11 0 4 1;
#X connect 12 0 5 1;
#X connect 13 0 10 0;
#X connect 14 0 11 0;
#X connect 15 0 12 0;
#X restore 237 159 pd source;
#X obj 237 129 hradio 15 1 0 3 empty empty empty 0 -8 0 10 -262144
-1 -1 2;
#N canvas 527 116 661 338 ringmod 1;
#X obj 465 105 inlet~;
#X obj 115 248 outlet~;
#X obj 115 135 osc~;
#X floatatom 115 87 5 0 0 0 - - -, f 5;
#X msg 115 49 200;
#X obj 115 177 *~ 0.5, f 8;
#X obj 115 199 +~ 0.5;
#X obj 225 99 sel 0 1;
#X msg 224 147 0;
#X msg 259 123 0.5;
#X obj 225 69 hradio 15 1 0 3 empty empty empty 0 -8 0 10 -262144 -1
-1 0;
#X obj 270 178 bng 15 250 50 0 empty empty empty 17 7 0 10 -262144
-1 -1;
#X obj 302 188 bng 15 250 50 0 empty empty empty 17 7 0 10 -262144
-1 -1;
#X msg 225 127 1;
#X obj 52 239 snapshot~;
#X obj 32 164 tgl 15 0 empty empty empty 17 7 0 10 -262144 -1 -1 1
1;
#X floatatom 52 261 5 0 0 0 - - -, f 5;
#X obj 31 187 metro 100;
#X connect 2 0 5 0;
#X connect 3 0 2 0;
#X connect 4 0 3 0;
#X connect 5 0 6 0;
#X connect 6 0 14 0;
#X connect 6 0 1 0;
#X connect 7 0 8 0;
#X connect 7 0 8 0;
#X connect 7 0 13 0;
#X connect 7 1 9 0;
#X connect 8 0 6 1;
#X connect 9 0 5 1;
#X connect 9 0 6 1;
#X connect 9 0 12 0;
#X connect 10 0 7 0;
#X connect 13 0 5 1;
#X connect 13 0 11 0;
#X connect 14 0 16 0;
#X connect 15 0 17 0;
#X connect 17 0 14 0;
#X restore 237 211 pd ringmod;
#X obj 237 233 dac~;
#X connect 0 0 2 0;
#X connect 1 0 0 0;
#X connect 2 0 3 0;
