#N canvas 219 144 412 522 10;
#X obj 217 483 dac~;
#N canvas 0 22 570 416 soundSource 0;
#X obj 172 283 osc~ 440;
#X obj 172 309 *~, f 10;
#X obj 229 259 line~;
#X obj 282 193 del 5;
#X msg 229 226 1 10;
#X msg 282 225 0 350;
#X obj 229 160 metro 1250;
#X obj 172 338 outlet~;
#X obj 229 132 inlet;
#X connect 0 0 1 0;
#X connect 1 0 7 0;
#X connect 2 0 1 1;
#X connect 3 0 5 0;
#X connect 4 0 2 0;
#X connect 5 0 2 0;
#X connect 6 0 3 0;
#X connect 6 0 4 0;
#X connect 8 0 6 0;
#X restore 217 399 pd soundSource;
#X obj 217 373 tgl 15 0 empty empty empty 17 7 0 10 -262144 -1 -1 1
1;
#X floatatom 316 397 5 0 100 0 - - -, f 5;
#X obj 316 308 loadbang;
#X msg 316 330 100;
#N canvas 648 91 635 622 sampleDivider 1;
#X obj 161 332 inlet~;
#X obj 161 380 outlet~, f 11;
#X obj 296 228 samplerate~;
#X obj 296 198 loadbang;
#X floatatom 296 250 5 0 0 0 - - -, f 5;
#X obj 234 191 bng 15 250 50 0 empty empty empty 17 7 0 10 -262144
-1 -1;
#X obj 296 299 *, f 19;
#X obj 296 320 phasor~;
#X obj 161 356 samphold~, f 23;
#X floatatom 380 210 5 0 100 0 - - -, f 5;
#X obj 380 249 / 100;
#X obj 380 228 clip 0.1 99.9;
#X obj 380 181 inlet amount;
#X obj 380 271 t b f;
#X connect 0 0 8 0;
#X connect 2 0 4 0;
#X connect 3 0 2 0;
#X connect 4 0 6 0;
#X connect 5 0 2 0;
#X connect 6 0 7 0;
#X connect 7 0 8 1;
#X connect 8 0 1 0;
#X connect 9 0 11 0;
#X connect 10 0 13 0;
#X connect 11 0 10 0;
#X connect 12 0 9 0;
#X connect 13 0 6 0;
#X connect 13 1 6 1;
#X restore 217 423 pd sampleDivider, f 17;
#X connect 1 0 6 0;
#X connect 2 0 1 0;
#X connect 3 0 6 1;
#X connect 4 0 5 0;
#X connect 5 0 3 0;
#X connect 6 0 0 0;
#X connect 6 0 0 1;
