#N canvas 843 238 308 216 10;
#N canvas 1 23 511 696 tempo>Metro-Calc 0;
#X obj 203 140 inlet;
#X obj 203 163 / 60;
#X obj 161 83 loadbang;
#X msg 161 105 1;
#X obj 161 278 /, f 12;
#X obj 203 212 t b f;
#X text 250 161 bps;
#X text 251 185 bpMs;
#X obj 203 185 / 1000;
#X floatatom 161 300 5 0 0 0 - - -, f 5;
#X obj 161 247 f;
#X obj 161 323 * 0.125;
#X text 216 323 metro = 1/32;
#X obj 74 376 metro, f 15;
#X obj 74 341 tgl 15 0 empty empty empty 17 7 0 10 -262144 -1 -1 1
1;
#X obj 74 312 inlet ON;
#X obj 74 398 outlet 1/32;
#X floatatom 208 371 5 0 0 0 - - -, f 5;
#X connect 0 0 1 0;
#X connect 1 0 8 0;
#X connect 2 0 3 0;
#X connect 3 0 10 0;
#X connect 4 0 9 0;
#X connect 5 0 10 0;
#X connect 5 1 4 1;
#X connect 8 0 5 0;
#X connect 9 0 11 0;
#X connect 10 0 4 0;
#X connect 11 0 13 1;
#X connect 11 0 17 0;
#X connect 13 0 16 0;
#X connect 14 0 13 0;
#X connect 15 0 14 0;
#X restore 68 106 pd tempo>Metro-Calc;
#X obj 68 35 tgl 15 0 empty empty empty 17 7 0 10 -262144 -1 -1 1 1
;
#N canvas 128 338 896 537 pulseDivisor 1;
#X obj 612 19 inlet metro 1/32;
#X obj 612 71 f;
#X obj 641 71 + 1;
#X text 655 195 1/32;
#X obj 79 191 % 128;
#X obj 159 191 % 64;
#X obj 239 191 % 32;
#X obj 319 191 % 16;
#X obj 399 191 % 8;
#X obj 469 191 % 4;
#X obj 539 191 % 2;
#X obj 539 211 sel 0;
#X obj 469 211 sel 0;
#X obj 399 211 sel 0;
#X obj 319 211 sel 0;
#X obj 239 211 sel 0;
#X obj 159 211 sel 0;
#X obj 79 211 sel 0;
#X text 35 210 4/1;
#X text 133 210 2/1;
#X text 214 210 1/1;
#X text 289 210 1/2;
#X text 369 210 1/4;
#X text 447 210 1/8;
#X text 509 210 1/16;
#X obj 612 235 s clk_1/32;
#X obj 539 235 s clk_1/16;
#X obj 469 235 s clk_1/8;
#X obj 399 235 s clk_1/4;
#X obj 319 235 s clk_1/2;
#X obj 239 235 s clk_1/1;
#X obj 159 235 s clk_2/1;
#X obj 79 235 s clk_4/1;
#X obj 612 192 % 1;
#X obj 612 214 sel 0;
#X obj 539 355 f;
#X obj 582 355 + 1;
#X floatatom 539 377 5 0 0 0 - - -, f 5;
#X obj 539 396 % 16;
#X obj 477 295 r clkTrig;
#X obj 539 432 s clk_1/16e;
#X obj 541 19 r clkTrig;
#X floatatom 643 115 5 0 0 0 - - -, f 5;
#X msg 477 324 -1;
#X msg 541 48 -1;
#X connect 0 0 1 0;
#X connect 1 0 2 0;
#X connect 1 0 10 0;
#X connect 1 0 9 0;
#X connect 1 0 8 0;
#X connect 1 0 7 0;
#X connect 1 0 6 0;
#X connect 1 0 5 0;
#X connect 1 0 4 0;
#X connect 1 0 33 0;
#X connect 1 0 42 0;
#X connect 2 0 1 1;
#X connect 4 0 17 0;
#X connect 5 0 16 0;
#X connect 6 0 15 0;
#X connect 7 0 14 0;
#X connect 8 0 13 0;
#X connect 9 0 12 0;
#X connect 10 0 11 0;
#X connect 11 0 26 0;
#X connect 11 0 35 0;
#X connect 12 0 27 0;
#X connect 13 0 28 0;
#X connect 14 0 29 0;
#X connect 15 0 30 0;
#X connect 16 0 31 0;
#X connect 17 0 32 0;
#X connect 33 0 34 0;
#X connect 34 0 25 0;
#X connect 35 0 36 0;
#X connect 35 0 37 0;
#X connect 36 0 35 1;
#X connect 37 0 38 0;
#X connect 38 0 40 0;
#X connect 39 0 43 0;
#X connect 41 0 44 0;
#X connect 43 0 35 0;
#X connect 44 0 1 0;
#X restore 68 128 pd pulseDivisor;
#X obj 68 14 inlet on/off;
#X obj 179 76 inlet tempo;
#X text 11 160 All outputs are remotely sent \, 4/1 to 1/32;
#X obj 94 86 s clkTrig;
#X text 11 180 clkTrig for reseting sequencers;
#X obj 94 65 sel 0;
#X connect 0 0 2 0;
#X connect 1 0 0 0;
#X connect 1 0 8 0;
#X connect 3 0 1 0;
#X connect 4 0 0 1;
#X connect 8 0 6 0;
