#N canvas 176 185 812 602 10;
#X obj 214 218 noise~;
#X obj 295 207 line~;
#X msg 295 158 1 0;
#X obj 295 130 bng 15 250 50 0 empty empty empty 17 7 0 10 -262144
-1 -1;
#X obj 214 240 *~, f 14;
#X obj 277 533 dac~;
#X floatatom 277 323 5 0 0 0 - - -, f 5;
#X obj 335 157 pipe 1;
#X obj 295 68 tgl 15 0 empty empty empty 17 7 0 10 -262144 -1 -1 0
1;
#X floatatom 245 320 5 0 0 0 - - -, f 5;
#X msg 335 179 0 1;
#X obj 277 270 loadbang;
#X msg 245 299 51;
#X msg 277 299 21;
#X msg 313 299 80;
#X obj 214 364 vcf~ 49 90, f 11;
#X msg 441 184 1 0;
#X obj 481 183 pipe 1;
#X obj 441 233 line;
#X obj 277 397 *~ 10, f 17;
#X obj 277 419 *~ 10;
#X obj 277 342 + 5;
#X msg 481 205 0 2000;
#X obj 295 101 metro 2000;
#X obj 441 255 * 100;
#X obj 277 441 *~ 10;
#X obj 547 342 osc~ 51;
#X obj 547 364 *~, f 12;
#X obj 616 239 line~;
#X obj 616 161 bng 15 250 50 0 empty empty empty 17 7 0 10 -262144
-1 -1;
#X obj 616 99 tgl 15 0 empty empty empty 17 7 0 10 -262144 -1 -1 0
1;
#X obj 547 416 dac~;
#X obj 616 261 *~;
#X obj 616 283 *~;
#X msg 704 210 0 450;
#X obj 656 188 pipe 5;
#X msg 656 210 1 5;
#X obj 704 188 pipe 11;
#X msg 616 189 0 5;
#X obj 616 132 metro 200;
#X obj 616 305 *~;
#X obj 616 327 *~ 10;
#X connect 0 0 4 0;
#X connect 1 0 4 1;
#X connect 2 0 1 0;
#X connect 3 0 2 0;
#X connect 3 0 7 0;
#X connect 3 0 16 0;
#X connect 3 0 17 0;
#X connect 4 0 15 0;
#X connect 6 0 21 0;
#X connect 7 0 10 0;
#X connect 8 0 23 0;
#X connect 9 0 15 1;
#X connect 10 0 1 0;
#X connect 11 0 14 0;
#X connect 11 0 13 0;
#X connect 11 0 12 0;
#X connect 12 0 9 0;
#X connect 13 0 6 0;
#X connect 15 1 19 0;
#X connect 16 0 18 0;
#X connect 17 0 22 0;
#X connect 18 0 24 0;
#X connect 19 0 20 0;
#X connect 20 0 25 0;
#X connect 21 0 15 2;
#X connect 22 0 18 0;
#X connect 23 0 3 0;
#X connect 24 0 6 0;
#X connect 25 0 5 0;
#X connect 25 0 5 1;
#X connect 26 0 27 0;
#X connect 27 0 31 0;
#X connect 27 0 31 1;
#X connect 28 0 32 0;
#X connect 28 0 32 1;
#X connect 29 0 38 0;
#X connect 29 0 35 0;
#X connect 29 0 37 0;
#X connect 30 0 39 0;
#X connect 32 0 33 0;
#X connect 32 0 33 1;
#X connect 33 0 40 0;
#X connect 33 0 40 1;
#X connect 34 0 28 0;
#X connect 35 0 36 0;
#X connect 36 0 28 0;
#X connect 37 0 34 0;
#X connect 38 0 28 0;
#X connect 39 0 29 0;
#X connect 40 0 41 0;
#X connect 41 0 27 1;
