#N canvas 73 184 749 649 10;
#X obj 527 213 line~;
#X msg 527 144 1 0;
#X obj 527 116 bng 15 250 50 0 empty empty empty 17 7 0 10 -262144
-1 -1;
#X obj 337 364 *~, f 14;
#X obj 337 590 dac~;
#X obj 567 143 pipe 1;
#X obj 527 54 tgl 15 0 empty empty empty 17 7 0 10 -262144 -1 -1 1
1;
#X floatatom 436 527 5 0 0 0 - - -, f 5;
#X obj 446 361 noise~;
#N canvas 846 206 743 735 cymbal 0;
#N canvas 0 22 463 510 square 0;
#X floatatom 96 69 5 0 0 0 - - -, f 5;
#X obj 163 116 * -1;
#X msg 202 119 0;
#X obj 96 159 phasor~;
#X obj 163 157 phasor~;
#X obj 96 247 *~ 0.7;
#X msg 251 119 0.5;
#X obj 202 95 bng 15 250 50 0 empty empty empty 0 -6 0 8 -262144 -1
-1;
#X obj 96 224 -~ 1;
#X obj 96 197 +~;
#X text 270 59 phase synchronization;
#X obj 96 37 inlet f;
#X obj 202 69 loadbang;
#X obj 96 281 outlet~;
#X connect 0 0 1 0;
#X connect 0 0 3 0;
#X connect 1 0 4 0;
#X connect 2 0 3 1;
#X connect 3 0 9 0;
#X connect 4 0 9 1;
#X connect 5 0 13 0;
#X connect 6 0 4 1;
#X connect 7 0 2 0;
#X connect 7 0 6 0;
#X connect 8 0 5 0;
#X connect 9 0 8 0;
#X connect 11 0 0 0;
#X connect 12 0 7 0;
#X restore 109 139 pd square;
#N canvas 0 22 463 510 square 0;
#X floatatom 96 69 5 0 0 0 - - -, f 5;
#X obj 163 116 * -1;
#X msg 202 119 0;
#X obj 96 159 phasor~;
#X obj 163 157 phasor~;
#X obj 96 247 *~ 0.7;
#X msg 251 119 0.5;
#X obj 202 95 bng 15 250 50 0 empty empty empty 0 -6 0 8 -262144 -1
-1;
#X obj 96 224 -~ 1;
#X obj 96 197 +~;
#X text 270 59 phase synchronization;
#X obj 96 37 inlet f;
#X obj 202 69 loadbang;
#X obj 96 281 outlet~;
#X connect 0 0 1 0;
#X connect 0 0 3 0;
#X connect 1 0 4 0;
#X connect 2 0 3 1;
#X connect 3 0 9 0;
#X connect 4 0 9 1;
#X connect 5 0 13 0;
#X connect 6 0 4 1;
#X connect 7 0 2 0;
#X connect 7 0 6 0;
#X connect 8 0 5 0;
#X connect 9 0 8 0;
#X connect 11 0 0 0;
#X connect 12 0 7 0;
#X restore 178 139 pd square;
#N canvas 0 22 463 510 square 0;
#X floatatom 96 69 5 0 0 0 - - -, f 5;
#X obj 163 116 * -1;
#X msg 202 119 0;
#X obj 96 159 phasor~;
#X obj 163 157 phasor~;
#X obj 96 247 *~ 0.7;
#X msg 251 119 0.5;
#X obj 202 95 bng 15 250 50 0 empty empty empty 0 -6 0 8 -262144 -1
-1;
#X obj 96 224 -~ 1;
#X obj 96 197 +~;
#X text 270 59 phase synchronization;
#X obj 96 37 inlet f;
#X obj 202 69 loadbang;
#X obj 96 281 outlet~;
#X connect 0 0 1 0;
#X connect 0 0 3 0;
#X connect 1 0 4 0;
#X connect 2 0 3 1;
#X connect 3 0 9 0;
#X connect 4 0 9 1;
#X connect 5 0 13 0;
#X connect 6 0 4 1;
#X connect 7 0 2 0;
#X connect 7 0 6 0;
#X connect 8 0 5 0;
#X connect 9 0 8 0;
#X connect 11 0 0 0;
#X connect 12 0 7 0;
#X restore 244 139 pd square;
#N canvas 0 22 463 510 square 0;
#X floatatom 96 69 5 0 0 0 - - -, f 5;
#X obj 163 116 * -1;
#X msg 202 119 0;
#X obj 96 159 phasor~;
#X obj 163 157 phasor~;
#X obj 96 247 *~ 0.7;
#X msg 251 119 0.5;
#X obj 202 95 bng 15 250 50 0 empty empty empty 0 -6 0 8 -262144 -1
-1;
#X obj 96 224 -~ 1;
#X obj 96 197 +~;
#X text 270 59 phase synchronization;
#X obj 96 37 inlet f;
#X obj 202 69 loadbang;
#X obj 96 281 outlet~;
#X connect 0 0 1 0;
#X connect 0 0 3 0;
#X connect 1 0 4 0;
#X connect 2 0 3 1;
#X connect 3 0 9 0;
#X connect 4 0 9 1;
#X connect 5 0 13 0;
#X connect 6 0 4 1;
#X connect 7 0 2 0;
#X connect 7 0 6 0;
#X connect 8 0 5 0;
#X connect 9 0 8 0;
#X connect 11 0 0 0;
#X connect 12 0 7 0;
#X restore 310 139 pd square;
#N canvas 0 22 463 510 square 0;
#X floatatom 96 69 5 0 0 0 - - -, f 5;
#X obj 163 116 * -1;
#X msg 202 119 0;
#X obj 96 159 phasor~;
#X obj 163 157 phasor~;
#X obj 96 247 *~ 0.7;
#X msg 251 119 0.5;
#X obj 202 95 bng 15 250 50 0 empty empty empty 0 -6 0 8 -262144 -1
-1;
#X obj 96 224 -~ 1;
#X obj 96 197 +~;
#X text 270 59 phase synchronization;
#X obj 96 37 inlet f;
#X obj 202 69 loadbang;
#X obj 96 281 outlet~;
#X connect 0 0 1 0;
#X connect 0 0 3 0;
#X connect 1 0 4 0;
#X connect 2 0 3 1;
#X connect 3 0 9 0;
#X connect 4 0 9 1;
#X connect 5 0 13 0;
#X connect 6 0 4 1;
#X connect 7 0 2 0;
#X connect 7 0 6 0;
#X connect 8 0 5 0;
#X connect 9 0 8 0;
#X connect 11 0 0 0;
#X connect 12 0 7 0;
#X restore 376 139 pd square;
#N canvas 0 22 463 510 square 0;
#X floatatom 96 69 5 0 0 0 - - -, f 5;
#X obj 163 116 * -1;
#X msg 202 119 0;
#X obj 96 159 phasor~;
#X obj 163 157 phasor~;
#X obj 96 247 *~ 0.7;
#X msg 251 119 0.5;
#X obj 202 95 bng 15 250 50 0 empty empty empty 0 -6 0 8 -262144 -1
-1;
#X obj 96 224 -~ 1;
#X obj 96 197 +~;
#X text 270 59 phase synchronization;
#X obj 96 37 inlet f;
#X obj 202 69 loadbang;
#X obj 96 281 outlet~;
#X connect 0 0 1 0;
#X connect 0 0 3 0;
#X connect 1 0 4 0;
#X connect 2 0 3 1;
#X connect 3 0 9 0;
#X connect 4 0 9 1;
#X connect 5 0 13 0;
#X connect 6 0 4 1;
#X connect 7 0 2 0;
#X connect 7 0 6 0;
#X connect 8 0 5 0;
#X connect 9 0 8 0;
#X connect 11 0 0 0;
#X connect 12 0 7 0;
#X restore 442 139 pd square;
#X obj 109 229 +~, f 12;
#X obj 109 251 +~, f 23;
#X obj 109 273 +~, f 34;
#X obj 109 295 +~, f 45;
#X obj 109 317 +~, f 56;
#X obj 109 339 *~ 0.15, f 17;
#X obj 276 456 +~, f 14;
#X obj 157 579 outlet~;
#X obj 109 109 * 1;
#X obj 178 109 * 1.342;
#X obj 244 109 * 1.2312;
#X obj 310 109 * 1.6532;
#X obj 376 109 * 1.9523;
#X obj 442 109 * 2.1523;
#X floatatom 109 51 5 0 0 0 - - -, f 5;
#X msg 109 26 205.3;
#X obj 109 3 loadbang;
#X msg 173 444 7100;
#X msg 125 444 3600;
#X floatatom 125 464 5 0 0 0 - - -, f 5;
#X obj 125 416 loadbang;
#X floatatom 173 464 5 0 0 0 - - -, f 5;
#X obj 109 497 vcf~ 1;
#X obj 157 497 vcf~ 1;
#X obj 157 524 *~ 0.1, f 17;
#X obj 157 546 hip~ 5000 90;
#X connect 0 0 6 0;
#X connect 1 0 6 1;
#X connect 2 0 7 1;
#X connect 3 0 8 1;
#X connect 4 0 9 1;
#X connect 5 0 10 1;
#X connect 6 0 7 0;
#X connect 7 0 8 0;
#X connect 8 0 9 0;
#X connect 9 0 10 0;
#X connect 10 0 11 0;
#X connect 11 0 28 0;
#X connect 14 0 0 0;
#X connect 15 0 1 0;
#X connect 16 0 2 0;
#X connect 17 0 3 0;
#X connect 18 0 4 0;
#X connect 19 0 5 0;
#X connect 20 0 14 0;
#X connect 20 0 15 0;
#X connect 20 0 16 0;
#X connect 20 0 17 0;
#X connect 20 0 18 0;
#X connect 20 0 19 0;
#X connect 21 0 20 0;
#X connect 22 0 21 0;
#X connect 23 0 27 0;
#X connect 24 0 25 0;
#X connect 25 0 28 1;
#X connect 26 0 24 0;
#X connect 26 0 23 0;
#X connect 27 0 29 1;
#X connect 28 0 29 0;
#X connect 29 0 30 0;
#X connect 30 0 31 0;
#X connect 31 0 13 0;
#X restore 338 293 pd cymbal;
#X obj 337 548 *~, f 17;
#X obj 446 385 *~, f 14;
#X obj 446 407 hip~ 12000 20;
#X obj 337 466 +~;
#X obj 446 429 *~ 0.01;
#X obj 527 245 *~;
#X obj 527 269 *~;
#X obj 527 87 metro 3000;
#X obj 436 483 loadbang;
#X msg 436 505 10;
#X obj 527 291 *~;
#X msg 567 165 0 3000;
#X connect 0 0 15 0;
#X connect 0 0 15 1;
#X connect 1 0 0 0;
#X connect 2 0 1 0;
#X connect 2 0 5 0;
#X connect 3 0 13 0;
#X connect 5 0 21 0;
#X connect 6 0 17 0;
#X connect 7 0 10 1;
#X connect 8 0 11 0;
#X connect 9 0 3 0;
#X connect 10 0 4 0;
#X connect 10 0 4 1;
#X connect 11 0 12 0;
#X connect 12 0 14 0;
#X connect 13 0 10 0;
#X connect 14 0 13 1;
#X connect 15 0 16 0;
#X connect 15 0 16 1;
#X connect 16 0 20 0;
#X connect 16 0 20 1;
#X connect 17 0 2 0;
#X connect 18 0 19 0;
#X connect 19 0 7 0;
#X connect 20 0 3 1;
#X connect 20 0 11 1;
#X connect 21 0 0 0;
