#N canvas -42 28 820 578 10;
#X obj 217 483 dac~;
#N canvas 0 22 570 416 soundSource 0;
#X obj 172 283 osc~ 440;
#X obj 172 309 *~, f 10;
#X obj 229 259 line~;
#X obj 282 193 del 5;
#X msg 229 226 1 10;
#X msg 282 225 0 350;
#X obj 229 160 metro 1250;
#X obj 172 338 outlet~;
#X obj 229 132 inlet;
#X connect 0 0 1 0;
#X connect 1 0 7 0;
#X connect 2 0 1 1;
#X connect 3 0 5 0;
#X connect 4 0 2 0;
#X connect 5 0 2 0;
#X connect 6 0 3 0;
#X connect 6 0 4 0;
#X connect 8 0 6 0;
#X restore 280 399 pd soundSource;
#X obj 280 373 tgl 15 0 empty empty empty 17 7 0 10 -262144 -1 -1 1
1;
#N canvas 648 91 635 622 delay 1;
#X obj 395 512 delwrite~ \$0-delay 1000;
#X obj 375 486 +~;
#X obj 375 436 inlet~;
#X obj 133 205 inlet dlyL, f 5;
#X obj 172 205 inlet modF, f 5;
#X obj 235 204 inlet modDpth, f 7;
#X obj 262 375 inlet Fback;
#X floatatom 133 240 0 0 1000 0 - - -;
#X obj 133 400 delread4~ \$0-delay;
#X obj 133 467 *~, f 22;
#X obj 262 443 sig~;
#X floatatom 262 401 5 0 100 0 - - -, f 5;
#X obj 262 420 / 100;
#X obj 172 260 osc~ 0.2;
#X obj 182 358 snapshot~;
#X obj 182 334 metro 5;
#X obj 133 263 sig~;
#X obj 133 313 +~, f 7;
#X floatatom 182 380 5 0 0 0 - - -, f 5;
#X obj 172 287 *~, f 11;
#X floatatom 235 240 0 0 1000 0 - - -;
#X obj 235 263 sig~;
#X floatatom 172 240 5 0.01 10 0 - - -, f 5;
#X obj 390 461 r~ fbackSend;
#X obj 133 519 s~ fbackSend;
#X obj 360 531 +~;
#X obj 360 553 outlet~;
#X connect 1 0 0 0;
#X connect 1 0 25 1;
#X connect 2 0 1 0;
#X connect 3 0 7 0;
#X connect 4 0 22 0;
#X connect 5 0 20 0;
#X connect 6 0 11 0;
#X connect 7 0 16 0;
#X connect 8 0 9 0;
#X connect 9 0 24 0;
#X connect 9 0 25 0;
#X connect 10 0 9 1;
#X connect 11 0 12 0;
#X connect 12 0 10 0;
#X connect 13 0 19 0;
#X connect 14 0 18 0;
#X connect 15 0 14 0;
#X connect 16 0 17 0;
#X connect 17 0 14 0;
#X connect 17 0 8 0;
#X connect 19 0 17 1;
#X connect 20 0 21 0;
#X connect 21 0 19 1;
#X connect 22 0 13 0;
#X connect 23 0 1 1;
#X connect 25 0 26 0;
#X restore 217 423 pd delay, f 11;
#X floatatom 218 287 5 0 0 0 - - -, f 5;
#X floatatom 232 308 5 0 0 0 - - -, f 5;
#X floatatom 248 327 5 0 0 0 - - -, f 5;
#X floatatom 264 346 5 0 0 0 - - -, f 5;
#X obj 218 191 loadbang;
#X msg 218 213 20 0.1 5 75;
#X obj 218 235 unpack 0 0 0 0;
#X connect 1 0 3 4;
#X connect 2 0 1 0;
#X connect 3 0 0 0;
#X connect 3 0 0 1;
#X connect 4 0 3 0;
#X connect 5 0 3 1;
#X connect 6 0 3 2;
#X connect 7 0 3 3;
#X connect 8 0 9 0;
#X connect 9 0 10 0;
#X connect 10 0 4 0;
#X connect 10 1 5 0;
#X connect 10 2 6 0;
#X connect 10 3 7 0;
