#N canvas 668 389 467 453 10;
#X obj 154 179 rzero_rev~;
#X obj 154 199 rpole~, f 15;
#X obj 121 341 +~, f 6;
#X obj 121 120 noise~;
#X obj 121 383 dac~;
#X obj 154 219 rzero_rev~;
#X obj 154 239 rpole~, f 15;
#X obj 154 259 rzero_rev~;
#X obj 154 279 rpole~, f 15;
#X obj 154 299 rzero_rev~;
#X obj 154 319 rpole~, f 15;
#X obj 211 124 expr~ abs ($v1-0.5);
#X obj 211 146 expr~ 0.97 - 0.6*$v1*$v1;
#X obj 211 102 phasor~ 0.1;
#X connect 0 0 1 0;
#X connect 1 0 5 0;
#X connect 2 0 4 0;
#X connect 2 0 4 1;
#X connect 3 0 2 0;
#X connect 3 0 0 0;
#X connect 5 0 6 0;
#X connect 6 0 7 0;
#X connect 7 0 8 0;
#X connect 8 0 9 0;
#X connect 9 0 10 0;
#X connect 10 0 2 1;
#X connect 11 0 12 0;
#X connect 12 0 0 1;
#X connect 12 0 5 1;
#X connect 12 0 7 1;
#X connect 12 0 9 1;
#X connect 12 0 1 1;
#X connect 12 0 6 1;
#X connect 12 0 8 1;
#X connect 12 0 10 1;
#X connect 13 0 11 0;
