#N canvas 0 22 450 300 10;
#N canvas 383 503 647 456 source 0;
#X obj 208 182 noise~;
#X obj 279 182 osc~ 440;
#X obj 353 182 phasor~ 440;
#X obj 208 206 *~, f 8;
#X obj 279 206 *~, f 10;
#X obj 353 206 *~, f 14;
#X obj 208 248 +~;
#X obj 208 290 +~;
#X obj 208 312 outlet~;
#X obj 253 86 inlet;
#X obj 253 155 sig~;
#X obj 336 155 sig~;
#X obj 434 155 sig~;
#X obj 253 130 == 0;
#X obj 336 130 == 1;
#X obj 434 130 == 2;
#X connect 0 0 3 0;
#X connect 1 0 4 0;
#X connect 2 0 5 0;
#X connect 3 0 6 0;
#X connect 4 0 6 1;
#X connect 5 0 7 1;
#X connect 6 0 7 0;
#X connect 7 0 8 0;
#X connect 9 0 13 0;
#X connect 9 0 14 0;
#X connect 9 0 15 0;
#X connect 10 0 3 1;
#X connect 11 0 4 1;
#X connect 12 0 5 1;
#X connect 13 0 10 0;
#X connect 14 0 11 0;
#X connect 15 0 12 0;
#X restore 237 170 pd source;
#X obj 237 129 hradio 15 1 0 4 empty empty empty 0 -8 0 10 -262144
-1 -1 2;
#N canvas 527 116 661 338 ringmod 1;
#X obj 130 226 inlet~;
#X obj 115 278 outlet~;
#X obj 115 135 osc~;
#X floatatom 115 116 5 0 0 0 - - -, f 5;
#X msg 115 39 200;
#X obj 115 177 *~ 0.5, f 8;
#X obj 115 199 +~ 0.5;
#X obj 225 59 sel 0 1;
#X msg 200 121 0;
#X msg 300 107 0.5;
#X obj 225 29 hradio 15 1 0 2 empty empty empty 0 -8 0 10 -262144 -1
-1 1;
#X msg 241 88 1;
#X obj 115 251 *~;
#X text 300 69 AM / RingMod;
#X obj 115 20 loadbang;
#X obj 211 203 line;
#X obj 302 184 line;
#X msg 211 180 \$1 10;
#X msg 302 161 \$1 10;
#X connect 0 0 12 1;
#X connect 2 0 5 0;
#X connect 3 0 2 0;
#X connect 4 0 3 0;
#X connect 5 0 6 0;
#X connect 6 0 12 0;
#X connect 7 0 8 0;
#X connect 7 0 8 0;
#X connect 7 0 11 0;
#X connect 7 1 9 0;
#X connect 8 0 17 0;
#X connect 9 0 18 0;
#X connect 9 0 17 0;
#X connect 10 0 7 0;
#X connect 11 0 18 0;
#X connect 12 0 1 0;
#X connect 14 0 4 0;
#X connect 15 0 6 1;
#X connect 16 0 5 1;
#X connect 17 0 15 0;
#X connect 18 0 16 0;
#X restore 237 211 pd ringmod;
#X obj 237 255 dac~;
#X connect 0 0 2 0;
#X connect 1 0 0 0;
#X connect 2 0 3 0;
#X connect 2 0 3 1;
