#N canvas 0 22 827 679 10;
#X obj 50 371 line~;
#X obj 50 393 osc~;
#X obj 107 408 line~;
#X obj 50 448 *~, f 8;
#X obj 50 510 dac~;
#X obj 50 475 *~ 0.3;
#X obj 50 349 \$1 50;
#X floatatom 50 291 5 0 0 0 - - -, f 5;
#X msg 107 347 1 50;
#X obj 150 346 delay 50;
#X msg 150 370 0 50;
#X obj 50 317 mtof;
#X obj 50 221 r pitch @hv_param 48 84 60, f 13;
#X obj 107 279 r fbang @hv_param 0 1 0;
#X obj 107 325 bng 15 250 50 0 empty empty empty 17 7 0 10 -262144
-1 -1;
#X obj 150 325 bng 15 250 50 0 empty empty empty 17 7 0 10 -262144
-1 -1;
#X obj 107 303 sel 1 0, f 15;
#X connect 0 0 1 0;
#X connect 1 0 3 0;
#X connect 2 0 3 1;
#X connect 3 0 5 0;
#X connect 5 0 4 0;
#X connect 5 0 4 1;
#X connect 6 0 0 0;
#X connect 7 0 11 0;
#X connect 8 0 2 0;
#X connect 9 0 10 0;
#X connect 10 0 2 0;
#X connect 11 0 6 0;
#X connect 12 0 7 0;
#X connect 13 0 16 0;
#X connect 14 0 8 0;
#X connect 15 0 9 0;
#X connect 16 0 14 0;
#X connect 16 1 15 0;
