#N canvas 0 22 773 559 10;
#X obj 72 292 line~;
#X obj 72 314 osc~;
#X obj 106 313 line~;
#X obj 72 369 *~;
#X obj 72 431 dac~;
#X obj 33 59 adc~;
#X obj 72 396 *~ 0.3;
#X obj 72 270 \$1 50;
#X floatatom 45 179 5 0 0 0 - - -, f 5;
#X floatatom 153 155 5 0 0 0 - - -, f 5;
#X obj 160 201 bng 15 250 50 0 empty empty empty 17 7 0 10 -262144
-1 -1;
#X obj 161 38 bng 15 250 50 0 empty empty empty 17 7 0 10 -262144 -1
-1;
#X msg 157 237 1 50;
#X obj 209 251 delay 50;
#X msg 208 280 0 50;
#X msg 148 93 1 1;
#X msg 208 125 0 1;
#X obj 207 89 delay 5;
#X text 294 115 This pre bang setup is the equivalent of a float changing
from 0 - 1 - 0 based on a bool, f 81;
#X obj 50 204 mtof;
#X obj 30 101 r pitch @hv_param 48 84 60, f 13;
#X obj 231 171 r fbang @hv_param 0 1 0;
#X connect 0 0 1 0;
#X connect 1 0 3 0;
#X connect 2 0 3 1;
#X connect 3 0 6 0;
#X connect 6 0 4 0;
#X connect 6 0 4 1;
#X connect 7 0 0 0;
#X connect 8 0 19 0;
#X connect 9 0 10 0;
#X connect 10 0 12 0;
#X connect 10 0 13 0;
#X connect 11 0 15 0;
#X connect 11 0 17 0;
#X connect 12 0 2 0;
#X connect 13 0 14 0;
#X connect 14 0 2 0;
#X connect 15 0 9 0;
#X connect 16 0 9 0;
#X connect 17 0 16 0;
#X connect 19 0 7 0;
#X connect 20 0 8 0;
#X connect 21 0 10 0;
