#N canvas 352 56 854 639 10;
#X obj 494 154 vsl 15 128 0 1000 0 0 empty empty empty 0 -9 0 10 -262144
-1 -1 12700 1;
#X obj 534 154 vsl 15 128 0 1000 0 0 empty empty empty 0 -9 0 10 -262144
-1 -1 12700 1;
#X obj 574 154 vsl 15 128 0 1 0 0 empty empty empty 0 -9 0 10 -262144
-1 -1 7600 1;
#X obj 614 154 vsl 15 128 0 2000 0 0 empty empty empty 0 -9 0 10 -262144
-1 -1 12700 1;
#X floatatom 494 290 5 0 0 0 - - -, f 5;
#X floatatom 534 290 5 0 0 0 - - -, f 5;
#X floatatom 574 290 5 0 0 0 - - -, f 5;
#X floatatom 614 290 5 0 0 0 - - -, f 5;
#X obj 341 465 line~;
#X obj 272 434 osc~ 400;
#X obj 272 516 *~;
#X obj 473 334 pipe;
#X obj 272 588 dac~;
#X obj 505 361 pack f f f;
#X msg 505 383 \$3 \$2;
#X obj 374 83 bng 15 250 50 0 empty empty empty 17 7 0 10 -262144 -1
-1;
#X obj 374 342 pack f 1 f;
#X obj 402 253 loadbang 1, f 8;
#X msg 374 364 \$2 \$3;
#X obj 374 -8 tgl 15 0 empty empty empty 17 7 0 10 -262144 -1 -1 0
1;
#X obj 374 28 sel 1;
#X obj 272 538 *~ 0.1;
#X msg 651 388 \$2 \$3;
#X obj 651 366 pack f f f;
#X obj 679 284 loadbang 0;
#X obj 651 28 sel 0;
#X connect 0 0 4 0;
#X connect 1 0 5 0;
#X connect 2 0 6 0;
#X connect 3 0 7 0;
#X connect 4 0 11 1;
#X connect 4 0 16 2;
#X connect 5 0 13 1;
#X connect 6 0 13 2;
#X connect 7 0 23 2;
#X connect 8 0 10 1;
#X connect 9 0 10 0;
#X connect 10 0 21 0;
#X connect 11 0 13 0;
#X connect 13 0 14 0;
#X connect 14 0 8 0;
#X connect 15 0 11 0;
#X connect 15 0 16 0;
#X connect 16 0 18 0;
#X connect 17 0 16 1;
#X connect 18 0 8 0;
#X connect 19 0 20 0;
#X connect 19 0 25 0;
#X connect 20 0 15 0;
#X connect 21 0 12 0;
#X connect 21 0 12 1;
#X connect 22 0 8 0;
#X connect 23 0 22 0;
#X connect 24 0 23 1;
#X connect 25 0 23 0;
