#N canvas 33 32 757 553 10;
#X obj 185 277 pack 0 0 0;
#X obj 185 253 poly 4 1, f 10;
#X obj 185 299 route 1 2 3 4;
#X obj 92 298 print;
#X obj 87 378 print v1;
#X obj 82 442 print v1UP;
#N canvas 271 63 734 461 voices 0;
#X obj 76 60 inlet;
#X obj 76 307 outlet~;
#N canvas 200 241 450 300 vArchitecture 0;
#X obj 79 81 unpack 0 0;
#X obj 79 123 mtof;
#X obj 79 145 phasor~;
#X obj 79 167 *~;
#X obj 79 189 *~ 0.3;
#X obj 79 40 inlet;
#X obj 79 241 outlet~;
#X obj 136 145 *;
#X connect 0 0 1 0;
#X connect 0 1 7 0;
#X connect 1 0 2 0;
#X connect 2 0 3 0;
#X connect 3 0 4 0;
#X connect 4 0 6 0;
#X connect 5 0 0 0;
#X connect 7 0 3 1;
#X restore 76 122 pd vArchitecture;
#X obj 193 56 inlet;
#X obj 318 57 inlet;
#X obj 432 56 inlet;
#X obj 76 226 +~;
#X obj 76 248 +~;
#X obj 76 270 +~;
#N canvas 200 241 450 300 vArchitecture 0;
#X obj 79 81 unpack 0 0;
#X obj 79 123 mtof;
#X obj 79 145 phasor~;
#X obj 79 167 *~;
#X obj 79 189 *~ 0.3;
#X obj 79 40 inlet;
#X obj 79 241 outlet~;
#X obj 136 145 *;
#X connect 0 0 1 0;
#X connect 0 1 7 0;
#X connect 1 0 2 0;
#X connect 2 0 3 0;
#X connect 3 0 4 0;
#X connect 4 0 6 0;
#X connect 5 0 0 0;
#X connect 7 0 3 1;
#X restore 192 122 pd vArchitecture;
#N canvas 200 241 450 300 vArchitecture 0;
#X obj 79 81 unpack 0 0;
#X obj 79 123 mtof;
#X obj 79 145 phasor~;
#X obj 79 167 *~;
#X obj 79 189 *~ 0.3;
#X obj 79 40 inlet;
#X obj 79 241 outlet~;
#X obj 136 145 *;
#X connect 0 0 1 0;
#X connect 0 1 7 0;
#X connect 1 0 2 0;
#X connect 2 0 3 0;
#X connect 3 0 4 0;
#X connect 4 0 6 0;
#X connect 5 0 0 0;
#X connect 7 0 3 1;
#X restore 314 121 pd vArchitecture;
#N canvas 200 241 450 300 vArchitecture 0;
#X obj 79 81 unpack 0 0;
#X obj 79 123 mtof;
#X obj 79 145 phasor~;
#X obj 79 167 *~;
#X obj 79 189 *~ 0.3;
#X obj 79 40 inlet;
#X obj 79 241 outlet~;
#X obj 136 145 *, f 10;
#X connect 0 0 1 0;
#X connect 0 1 7 0;
#X connect 1 0 2 0;
#X connect 2 0 3 0;
#X connect 3 0 4 0;
#X connect 4 0 6 0;
#X connect 5 0 0 0;
#X connect 7 0 3 1;
#X restore 429 123 pd vArchitecture;
#X connect 0 0 2 0;
#X connect 2 0 6 0;
#X connect 3 0 9 0;
#X connect 4 0 10 0;
#X connect 5 0 11 0;
#X connect 6 0 7 0;
#X connect 7 0 8 0;
#X connect 8 0 1 0;
#X connect 9 0 6 1;
#X connect 10 0 7 1;
#X connect 11 0 8 1;
#X restore 203 330 pd voices;
#X obj 203 352 dac~;
#X obj 243 126 bng 15 250 50 0 empty empty empty 17 7 0 10 -262144
-1 -1;
#X obj 185 75 bng 15 250 50 0 empty empty empty 17 7 0 10 -262144 -1
-1;
#X msg 243 164 1;
#X msg 286 208 0;
#X obj 286 188 bng 15 250 50 0 empty empty empty 17 7 0 10 -262144
-1 -1;
#X obj 286 164 pipe 1500;
#X obj 185 99 t b b, f 10;
#X msg 185 49 60, f 2;
#X msg 185 135 60;
#X obj 460 191 pack 0 0;
#X msg 460 160 60;
#X msg 505 160 100;
#X obj 460 93 bng 15 250 50 0 empty empty empty 17 7 0 10 -262144 -1
-1;
#X obj 412 271 print;
#X obj 460 116 t b b, f 8;
#X obj 452 289 print d;
#X obj 477 246 pipe 1505;
#X text 60 18 note message triggers bang and gets feeded back to itself
to register the correct list index into poly - 60 1 // 60 0;
#X connect 0 0 2 0;
#X connect 0 0 3 0;
#X connect 1 0 0 0;
#X connect 1 1 0 1;
#X connect 1 2 0 2;
#X connect 2 1 6 0;
#X connect 2 2 6 1;
#X connect 2 3 6 2;
#X connect 2 4 6 3;
#X connect 6 0 7 0;
#X connect 8 0 10 0;
#X connect 8 0 13 0;
#X connect 9 0 14 0;
#X connect 10 0 1 1;
#X connect 11 0 1 1;
#X connect 12 0 11 0;
#X connect 12 0 16 0;
#X connect 13 0 12 0;
#X connect 14 0 16 0;
#X connect 14 1 8 0;
#X connect 15 0 9 0;
#X connect 16 0 1 0;
#X connect 17 0 21 0;
#X connect 17 0 24 1;
#X connect 18 0 17 0;
#X connect 19 0 17 1;
#X connect 20 0 22 0;
#X connect 22 0 18 0;
#X connect 22 1 19 0;
#X connect 24 0 23 0;
