#N canvas 2 23 1051 716 10;
#X obj 178 358 pack 0 0 0, f 11;
#X obj 178 383 route 1 2 3 4;
#N canvas 566 148 734 461 voices 0;
#X obj 76 72 inlet;
#X obj 76 377 outlet~;
#X obj 213 72 inlet;
#X obj 358 74 inlet;
#X obj 495 74 inlet;
#X obj 76 306 +~;
#X obj 76 328 +~;
#X obj 76 350 +~;
#X obj 76 166 vArchitecture-wADSR;
#X obj 606 84 inlet;
#X text 658 55 ADSR;
#X obj 213 166 vArchitecture-wADSR;
#X obj 358 166 vArchitecture-wADSR;
#X obj 495 166 vArchitecture-wADSR, f 13;
#X connect 0 0 8 0;
#X connect 2 0 11 0;
#X connect 3 0 12 0;
#X connect 4 0 13 0;
#X connect 5 0 6 0;
#X connect 6 0 7 0;
#X connect 7 0 1 0;
#X connect 8 0 5 0;
#X connect 9 0 13 1;
#X connect 9 0 12 1;
#X connect 9 0 11 1;
#X connect 9 0 8 1;
#X connect 11 0 5 1;
#X connect 12 0 6 1;
#X connect 13 0 7 1;
#X restore 178 417 pd voices;
#X obj 178 469 dac~;
#X obj 178 -30 tgl 15 0 empty empty empty 17 7 0 10 -262144 -1 -1 1
1;
#N canvas 7 82 731 551 notePipe 0;
#X msg 336 259 1;
#X msg 184 197 0;
#X obj 75 88 inlet;
#X obj 284 320 outlet;
#X obj 239 320 outlet;
#X obj 75 118 t f b f b, f 55;
#X msg 404 194 1200;
#X msg 372 170 50;
#X obj 75 234 pipe 0 0 50, f 37;
#X connect 0 0 3 0;
#X connect 1 0 8 1;
#X connect 2 0 5 0;
#X connect 5 0 8 0;
#X connect 5 1 1 0;
#X connect 5 2 4 0;
#X connect 5 3 0 0;
#X connect 6 0 8 2;
#X connect 7 0 8 2;
#X connect 8 0 4 0;
#X connect 8 1 3 0;
#X restore 178 307 pd notePipe;
#X obj 178 332 poly 4 1, f 11;
#X obj 178 439 *~ 0.3;
#X obj 178 -55 loadbang;
#N canvas 603 111 523 475 adsr 0;
#X obj 103 105 vsl 15 128 10 1000 0 0 empty empty empty 0 -9 0 10 -262130
-1 -1 0 0;
#X obj 142 105 vsl 15 128 0 1000 0 0 empty empty empty 0 -9 0 10 -262144
-1 -1 6150 1;
#X obj 181 105 vsl 15 128 0 1 0 0 empty empty empty 0 -9 0 10 -262144
-1 -1 1650 1;
#X obj 220 105 vsl 15 128 20 10000 1 0 empty empty empty 0 -9 0 10
-262144 -1 -1 9878 1;
#X obj 103 52 unpack f f f f, f 20;
#X msg 103 29 10 500 0.5 500;
#X obj 103 -34 loadbang;
#X obj 103 311 pack f f f f, f 24;
#X obj 103 333 outlet;
#X obj 220 255 t b f;
#X obj 181 255 t b f;
#X obj 142 255 t b f;
#X connect 0 0 7 0;
#X connect 1 0 11 0;
#X connect 2 0 10 0;
#X connect 3 0 9 0;
#X connect 4 0 0 0;
#X connect 4 1 1 0;
#X connect 4 2 2 0;
#X connect 4 3 3 0;
#X connect 5 0 4 0;
#X connect 6 0 5 0;
#X connect 7 0 8 0;
#X connect 9 0 7 0;
#X connect 9 1 7 3;
#X connect 10 0 7 0;
#X connect 10 1 7 2;
#X connect 11 0 7 0;
#X connect 11 1 7 1;
#X coords 0 -1 1 1 140 140 2 100 100;
#X restore 280 267 pd adsr control;
#N canvas 142 23 883 716 drunk 0;
#X obj 147 381 - 1;
#X floatatom 147 403 5 0 0 0 - - -, f 5;
#X obj 147 336 random 2;
#X obj 72 226 inlet;
#X obj 122 620 outlet;
#X floatatom 207 237 5 0 0 0 - - -, f 5;
#X obj 207 338 -, f 11;
#X obj 243 313 t b f;
#X floatatom 207 360 5 0 0 0 - - -, f 5;
#X obj 147 442 *, f 25;
#X obj 147 498 +, f 15;
#X floatatom 147 520 5 0 0 0 - - -, f 5;
#X obj 207 467 t b f;
#X obj 267 412 t b f;
#X obj 207 208 r drunk;
#X obj 207 383 * -1;
#X floatatom 302 391 5 0 0 0 - - -, f 5;
#X obj 302 347 +, f 10;
#X obj 302 369 - 1;
#X obj 302 295 < 6;
#X obj 332 295 > -6;
#X obj 332 318 t b f;
#X obj 207 286 > 5;
#X obj 243 286 < -5;
#X obj 120 560 +, f 5;
#X obj 72 620 s drunk;
#X text 348 449 Left creates value to add if outside range Right checks
if value is in range to cancel it Value is always plus or minus 1;
#X obj 147 357 * 2, f 4;
#X obj 264 69 inlet lowerBound, f 10;
#X obj 317 115 inlet upperBound, f 10;
#X obj 222 163 - 2;
#X obj 317 224 - 1;
#X obj 264 163 + 2;
#X obj 353 224 + 1;
#X obj 72 561 f 0;
#X connect 0 0 1 0;
#X connect 1 0 9 0;
#X connect 2 0 27 0;
#X connect 3 0 2 0;
#X connect 3 0 34 0;
#X connect 5 0 19 0;
#X connect 5 0 20 0;
#X connect 5 0 22 0;
#X connect 5 0 23 0;
#X connect 6 0 8 0;
#X connect 7 0 6 0;
#X connect 7 1 6 1;
#X connect 8 0 15 0;
#X connect 9 0 10 0;
#X connect 10 0 11 0;
#X connect 11 0 24 1;
#X connect 12 0 10 0;
#X connect 12 1 10 1;
#X connect 13 0 9 0;
#X connect 13 1 9 1;
#X connect 14 0 5 0;
#X connect 15 0 12 0;
#X connect 16 0 13 0;
#X connect 17 0 18 0;
#X connect 18 0 16 0;
#X connect 19 0 17 0;
#X connect 20 0 21 0;
#X connect 21 0 17 0;
#X connect 21 1 17 1;
#X connect 22 0 6 0;
#X connect 23 0 7 0;
#X connect 24 0 34 1;
#X connect 27 0 0 0;
#X connect 28 0 32 0;
#X connect 28 0 33 0;
#X connect 29 0 30 0;
#X connect 29 0 31 0;
#X connect 30 0 22 1;
#X connect 31 0 19 1;
#X connect 32 0 23 1;
#X connect 33 0 20 1;
#X connect 34 0 24 0;
#X connect 34 0 25 0;
#X connect 34 0 4 0;
#X restore 178 155 pd drunk;
#N canvas 0 22 648 566 ranDom 0;
#X obj 115 88 bng 15 250 50 0 empty empty empty 17 7 0 10 -262144 -1
-1;
#X obj 115 108 random;
#X obj 115 130 t b f b f, f 25;
#X obj 115 242 f;
#X obj 115 264 sel 0;
#X obj 115 306 f;
#X floatatom 115 328 5 0 0 0 - - -, f 5;
#X obj 175 175 f;
#X floatatom 190 60 5 0 0 0 - - -, f 5;
#X obj 175 207 ==;
#X obj 29 189 sel 1;
#X obj 190 37 inlet;
#X obj 115 58 inlet;
#X obj 115 347 outlet;
#X connect 0 0 1 0;
#X connect 1 0 2 0;
#X connect 2 0 3 0;
#X connect 2 1 7 1;
#X connect 2 2 7 0;
#X connect 2 3 9 1;
#X connect 2 3 5 1;
#X connect 3 0 4 0;
#X connect 3 0 10 0;
#X connect 4 0 5 0;
#X connect 5 0 6 0;
#X connect 6 0 13 0;
#X connect 7 0 9 0;
#X connect 8 0 1 1;
#X connect 8 0 7 1;
#X connect 9 0 3 1;
#X connect 10 0 1 0;
#X connect 11 0 8 0;
#X connect 12 0 0 0;
#X restore 473 100 pd ranDom;
#X obj 473 81 bng 15 250 50 0 empty empty empty 17 7 0 10 -262144 -1
-1;
#X floatatom 524 81 5 0 0 0 - - -, f 5;
#X floatatom 473 122 5 0 0 0 - - -, f 5;
#N canvas 0 22 450 278 (subpatch) 0;
#X array scale 7 float 3;
#A 0 0 3 5 7 10 9 11;
#X coords 0 12 7 0 200 140 1 0 0;
#X restore 536 218 graph;
#X obj 178 260 +, f 15;
#N canvas 499 23 243 350 scaleScaler 0;
#X obj 88 150 div 7;
#X obj 140 150 mod 7;
#X floatatom 88 172 5 0 0 0 - - -, f 5;
#X floatatom 140 172 5 0 0 0 - - -, f 5;
#X floatatom 88 214 5 0 0 0 - - -, f 5;
#X obj 88 191 * 12;
#X obj 88 91 inlet;
#X obj 167 90 inlet;
#X obj 140 250 outlet;
#X obj 88 250 outlet;
#X text 23 282 octave offset;
#X text 135 284 table index, f 15;
#X connect 0 0 2 0;
#X connect 1 0 3 0;
#X connect 2 0 5 0;
#X connect 3 0 8 0;
#X connect 4 0 9 0;
#X connect 5 0 4 0;
#X connect 6 0 1 0;
#X connect 6 0 0 0;
#X connect 7 0 1 1;
#X connect 7 0 0 1;
#X restore 178 217 pd scaleScaler;
#X floatatom 178 184 5 0 0 0 - - -, f 5;
#X floatatom 259 185 5 0 0 0 - - -, f 5;
#X text 140 184 index;
#X obj 265 238 tabread scale;
#X floatatom 200 115 5 0 0 0 - - -, f 5;
#X floatatom 223 133 5 0 0 0 - - -, f 5;
#X text 280 115 lo bound;
#X text 284 133 hi bound;
#X obj 178 282 + 72;
#X text 295 184 table/scale size;
#X msg 535 166 \; scale 0 0 3 5 7 10;
#X obj 178 -4 metro 150;
#X obj 199 28 loadbang;
#X msg 200 49 -3 6 3;
#X obj 200 71 unpack f f f, f 14;
#X connect 0 0 1 0;
#X connect 1 0 2 0;
#X connect 1 1 2 1;
#X connect 1 2 2 2;
#X connect 1 3 2 3;
#X connect 2 0 7 0;
#X connect 4 0 29 0;
#X connect 5 0 6 0;
#X connect 5 1 6 1;
#X connect 6 0 0 0;
#X connect 6 1 0 1;
#X connect 6 2 0 2;
#X connect 7 0 3 0;
#X connect 7 0 3 1;
#X connect 8 0 4 0;
#X connect 9 0 2 4;
#X connect 10 0 18 0;
#X connect 11 0 14 0;
#X connect 12 0 11 0;
#X connect 13 0 11 1;
#X connect 16 0 26 0;
#X connect 17 0 16 0;
#X connect 17 1 21 0;
#X connect 18 0 17 0;
#X connect 19 0 17 1;
#X connect 21 0 16 1;
#X connect 22 0 10 1;
#X connect 23 0 10 2;
#X connect 26 0 5 0;
#X connect 29 0 10 0;
#X connect 30 0 31 0;
#X connect 31 0 32 0;
#X connect 32 0 22 0;
#X connect 32 1 23 0;
#X connect 32 2 19 0;
