#N canvas 0 37 757 553 10;
#X obj 159 141 pack 0 0 0;
#X obj 159 225 unpack 0 0;
#X obj 159 267 mtof;
#X obj 159 289 phasor~;
#X obj 159 311 *~;
#X obj 216 289 / 127;
#X obj 159 333 *~ 0.3;
#X msg 100 4 60;
#X obj 109 53 makenote 64 2500;
#X msg 145 18 67;
#X obj 159 163 route 1 2 3 4;
#X obj 272 226 unpack 0 0;
#X obj 272 248 mtof;
#X obj 272 270 phasor~;
#X obj 272 292 *~;
#X obj 329 270 / 127;
#X obj 272 314 *~ 0.3;
#X obj 383 227 unpack 0 0;
#X obj 383 249 mtof;
#X obj 383 271 phasor~;
#X obj 383 293 *~;
#X obj 440 271 / 127;
#X obj 383 315 *~ 0.3;
#X obj 253 381 +~, f 9;
#X obj 313 434 +~, f 9;
#X obj 83 200 print;
#X obj 74 270 print v1;
#X obj 69 334 print v1UP;
#X obj 431 497 dac~;
#X obj 586 183 notein;
#X obj 583 421 pipe;
#X obj 159 117 poly 3 1, f 10;
#X connect 0 0 10 0;
#X connect 0 0 25 0;
#X connect 1 0 2 0;
#X connect 1 1 5 0;
#X connect 1 1 27 0;
#X connect 2 0 3 0;
#X connect 3 0 4 0;
#X connect 4 0 6 0;
#X connect 5 0 4 1;
#X connect 6 0 23 0;
#X connect 7 0 8 0;
#X connect 8 0 31 0;
#X connect 8 1 31 1;
#X connect 9 0 8 0;
#X connect 10 0 1 0;
#X connect 10 0 26 0;
#X connect 10 1 11 0;
#X connect 10 2 17 0;
#X connect 11 0 12 0;
#X connect 11 1 15 0;
#X connect 12 0 13 0;
#X connect 13 0 14 0;
#X connect 14 0 16 0;
#X connect 15 0 14 1;
#X connect 16 0 23 1;
#X connect 17 0 18 0;
#X connect 17 1 21 0;
#X connect 18 0 19 0;
#X connect 19 0 20 0;
#X connect 20 0 22 0;
#X connect 21 0 20 1;
#X connect 22 0 24 1;
#X connect 23 0 24 0;
#X connect 24 0 28 0;
#X connect 24 0 28 1;
#X connect 31 0 0 0;
#X connect 31 1 0 1;
#X connect 31 2 0 2;
