#N canvas 67 23 822 632 10;
#X obj 185 357 pack 0 0 0;
#X obj 185 333 poly 4 1, f 10;
#X obj 185 379 route 1 2 3 4;
#X obj 49 405 print;
#X obj 87 458 print v1;
#X obj 82 522 print v1UP;
#N canvas 271 63 734 461 voices 0;
#X obj 76 60 inlet;
#X obj 76 307 outlet~;
#N canvas 200 241 450 300 vArchitecture 0;
#X obj 79 81 unpack 0 0;
#X obj 79 123 mtof;
#X obj 79 145 phasor~;
#X obj 79 167 *~;
#X obj 79 189 *~ 0.3;
#X obj 79 40 inlet;
#X obj 79 241 outlet~;
#X obj 136 145 *;
#X connect 0 0 1 0;
#X connect 0 1 7 0;
#X connect 1 0 2 0;
#X connect 2 0 3 0;
#X connect 3 0 4 0;
#X connect 4 0 6 0;
#X connect 5 0 0 0;
#X connect 7 0 3 1;
#X restore 76 122 pd vArchitecture;
#X obj 193 56 inlet;
#X obj 318 57 inlet;
#X obj 432 56 inlet;
#X obj 76 226 +~;
#X obj 76 248 +~;
#X obj 76 270 +~;
#N canvas 200 241 450 300 vArchitecture 0;
#X obj 79 81 unpack 0 0;
#X obj 79 123 mtof;
#X obj 79 145 phasor~;
#X obj 79 167 *~;
#X obj 79 189 *~ 0.3;
#X obj 79 40 inlet;
#X obj 79 241 outlet~;
#X obj 136 145 *;
#X connect 0 0 1 0;
#X connect 0 1 7 0;
#X connect 1 0 2 0;
#X connect 2 0 3 0;
#X connect 3 0 4 0;
#X connect 4 0 6 0;
#X connect 5 0 0 0;
#X connect 7 0 3 1;
#X restore 192 122 pd vArchitecture;
#N canvas 200 241 450 300 vArchitecture 0;
#X obj 79 81 unpack 0 0;
#X obj 79 123 mtof;
#X obj 79 145 phasor~;
#X obj 79 167 *~;
#X obj 79 189 *~ 0.3;
#X obj 79 40 inlet;
#X obj 79 241 outlet~;
#X obj 136 145 *;
#X connect 0 0 1 0;
#X connect 0 1 7 0;
#X connect 1 0 2 0;
#X connect 2 0 3 0;
#X connect 3 0 4 0;
#X connect 4 0 6 0;
#X connect 5 0 0 0;
#X connect 7 0 3 1;
#X restore 314 121 pd vArchitecture;
#N canvas 200 241 450 300 vArchitecture 0;
#X obj 79 81 unpack 0 0;
#X obj 79 123 mtof;
#X obj 79 145 phasor~;
#X obj 79 167 *~;
#X obj 79 189 *~ 0.3;
#X obj 79 40 inlet;
#X obj 79 241 outlet~;
#X obj 136 145 *, f 10;
#X connect 0 0 1 0;
#X connect 0 1 7 0;
#X connect 1 0 2 0;
#X connect 2 0 3 0;
#X connect 3 0 4 0;
#X connect 4 0 6 0;
#X connect 5 0 0 0;
#X connect 7 0 3 1;
#X restore 429 123 pd vArchitecture;
#X connect 0 0 2 0;
#X connect 2 0 6 0;
#X connect 3 0 9 0;
#X connect 4 0 10 0;
#X connect 5 0 11 0;
#X connect 6 0 7 0;
#X connect 7 0 8 0;
#X connect 8 0 1 0;
#X connect 9 0 6 1;
#X connect 10 0 7 1;
#X connect 11 0 8 1;
#X restore 206 433 pd voices;
#X obj 206 455 dac~;
#X obj 243 126 bng 15 250 50 0 empty empty empty 17 7 0 10 -262144
-1 -1;
#X msg 243 164 1;
#X msg 286 208 0;
#X obj 286 188 bng 15 250 50 0 empty empty empty 17 7 0 10 -262144
-1 -1;
#X obj 286 164 pipe 1500;
#X msg 131 57 60, f 2;
#X text 60 18 note message triggers bang and gets feeded back to itself
to register the correct list index into poly - 60 1 // 60 0;
#X obj 111 185 f;
#X obj 188 92 t b b;
#N canvas 422 387 496 338 noteTrigger 1;
#X obj 243 126 bng 15 250 50 0 empty empty empty 17 7 0 10 -262144
-1 -1;
#X msg 243 164 1;
#X msg 286 208 0;
#X obj 286 188 bng 15 250 50 0 empty empty empty 17 7 0 10 -262144
-1 -1;
#X obj 286 164 pipe 1500;
#X obj 111 235 f;
#X obj 188 92 t b b;
#X obj 126 24 inlet;
#X obj 111 257 outlet;
#X obj 243 269 outlet;
#X connect 0 0 1 0;
#X connect 0 0 4 0;
#X connect 1 0 9 0;
#X connect 2 0 9 0;
#X connect 3 0 2 0;
#X connect 3 0 5 0;
#X connect 4 0 3 0;
#X connect 5 0 8 0;
#X connect 6 0 5 0;
#X connect 6 1 0 0;
#X connect 7 0 6 0;
#X connect 7 0 5 1;
#X restore 320 265 pd noteTrigger;
#X msg 418 155 60, f 2;
#X msg 464 157 70, f 2;
#X msg 546 172 80, f 2;
#X connect 0 0 2 0;
#X connect 0 0 3 0;
#X connect 1 0 0 0;
#X connect 1 1 0 1;
#X connect 1 2 0 2;
#X connect 2 0 6 0;
#X connect 2 1 6 1;
#X connect 2 2 6 2;
#X connect 2 3 6 3;
#X connect 6 0 7 0;
#X connect 8 0 9 0;
#X connect 8 0 12 0;
#X connect 9 0 1 1;
#X connect 10 0 1 1;
#X connect 11 0 10 0;
#X connect 11 0 15 0;
#X connect 12 0 11 0;
#X connect 13 0 15 1;
#X connect 13 0 16 0;
#X connect 15 0 1 0;
#X connect 16 0 15 0;
#X connect 16 1 8 0;
#X connect 17 0 1 0;
#X connect 17 1 1 1;
#X connect 18 0 17 0;
#X connect 19 0 17 0;
#X connect 20 0 17 0;
