#N canvas -176 30 822 632 10;
#X obj 185 357 pack 0 0 0;
#X obj 185 333 poly 4 1, f 10;
#X obj 185 379 route 1 2 3 4;
#X obj 49 405 print;
#X obj 87 458 print v1;
#X obj 82 522 print v1UP;
#N canvas 271 63 734 461 voices 0;
#X obj 76 60 inlet;
#X obj 76 307 outlet~;
#N canvas 200 241 450 300 vArchitecture 0;
#X obj 79 81 unpack 0 0;
#X obj 79 123 mtof;
#X obj 79 145 phasor~;
#X obj 79 167 *~;
#X obj 79 189 *~ 0.3;
#X obj 79 40 inlet;
#X obj 79 241 outlet~;
#X obj 136 145 *;
#X connect 0 0 1 0;
#X connect 0 1 7 0;
#X connect 1 0 2 0;
#X connect 2 0 3 0;
#X connect 3 0 4 0;
#X connect 4 0 6 0;
#X connect 5 0 0 0;
#X connect 7 0 3 1;
#X restore 76 122 pd vArchitecture;
#X obj 193 56 inlet;
#X obj 318 57 inlet;
#X obj 432 56 inlet;
#X obj 76 226 +~;
#X obj 76 248 +~;
#X obj 76 270 +~;
#N canvas 200 241 450 300 vArchitecture 0;
#X obj 79 81 unpack 0 0;
#X obj 79 123 mtof;
#X obj 79 145 phasor~;
#X obj 79 167 *~;
#X obj 79 189 *~ 0.3;
#X obj 79 40 inlet;
#X obj 79 241 outlet~;
#X obj 136 145 *;
#X connect 0 0 1 0;
#X connect 0 1 7 0;
#X connect 1 0 2 0;
#X connect 2 0 3 0;
#X connect 3 0 4 0;
#X connect 4 0 6 0;
#X connect 5 0 0 0;
#X connect 7 0 3 1;
#X restore 192 122 pd vArchitecture;
#N canvas 200 241 450 300 vArchitecture 0;
#X obj 79 81 unpack 0 0;
#X obj 79 123 mtof;
#X obj 79 145 phasor~;
#X obj 79 167 *~;
#X obj 79 189 *~ 0.3;
#X obj 79 40 inlet;
#X obj 79 241 outlet~;
#X obj 136 145 *;
#X connect 0 0 1 0;
#X connect 0 1 7 0;
#X connect 1 0 2 0;
#X connect 2 0 3 0;
#X connect 3 0 4 0;
#X connect 4 0 6 0;
#X connect 5 0 0 0;
#X connect 7 0 3 1;
#X restore 314 121 pd vArchitecture;
#N canvas 200 241 450 300 vArchitecture 0;
#X obj 79 81 unpack 0 0;
#X obj 79 123 mtof;
#X obj 79 145 phasor~;
#X obj 79 167 *~;
#X obj 79 189 *~ 0.3;
#X obj 79 40 inlet;
#X obj 79 241 outlet~;
#X obj 136 145 *, f 10;
#X connect 0 0 1 0;
#X connect 0 1 7 0;
#X connect 1 0 2 0;
#X connect 2 0 3 0;
#X connect 3 0 4 0;
#X connect 4 0 6 0;
#X connect 5 0 0 0;
#X connect 7 0 3 1;
#X restore 429 123 pd vArchitecture;
#X connect 0 0 2 0;
#X connect 2 0 6 0;
#X connect 3 0 9 0;
#X connect 4 0 10 0;
#X connect 5 0 11 0;
#X connect 6 0 7 0;
#X connect 7 0 8 0;
#X connect 8 0 1 0;
#X connect 9 0 6 1;
#X connect 10 0 7 1;
#X connect 11 0 8 1;
#X restore 206 433 pd voices;
#X obj 206 455 dac~;
#X obj 243 126 bng 15 250 50 0 empty empty empty 17 7 0 10 -262144
-1 -1;
#X msg 243 164 1;
#X msg 286 208 0;
#X obj 286 188 bng 15 250 50 0 empty empty empty 17 7 0 10 -262144
-1 -1;
#X obj 286 164 pipe 1500;
#X msg 131 57 60, f 2;
#X text 60 18 note message triggers bang and gets feeded back to itself
to register the correct list index into poly - 60 1 // 60 0;
#X obj 111 185 f;
#X obj 188 92 t b b;
#N canvas 337 290 685 513 noteTrigger 1;
#X obj 243 126 bng 15 250 50 0 empty empty empty 17 7 0 10 -262144
-1 -1;
#X msg 243 164 1;
#X msg 286 208 0;
#X obj 286 188 bng 15 250 50 0 empty empty empty 17 7 0 10 -262144
-1 -1;
#X obj 126 24 inlet;
#X obj 120 383 outlet;
#X obj 243 269 outlet;
#X obj 125 267 poly 4 1, f 10;
#X obj 208 213 f;
#X obj 125 299 pack 0 0 0;
#X obj 125 321 print in;
#X obj 286 164 pipe 1000;
#X connect 0 0 1 0;
#X connect 0 0 11 0;
#X connect 1 0 6 0;
#X connect 1 0 8 0;
#X connect 2 0 6 0;
#X connect 2 0 8 0;
#X connect 3 0 2 0;
#X connect 4 0 7 0;
#X connect 4 0 0 0;
#X connect 7 0 9 0;
#X connect 7 1 9 1;
#X connect 7 2 9 2;
#X connect 8 0 7 1;
#X connect 9 0 10 0;
#X connect 11 0 3 0;
#X restore 323 270 pd noteTrigger;
#X msg 418 155 60, f 2;
#X msg 464 157 70, f 2;
#X msg 546 172 80, f 2;
#X obj 185 333 poly 4 1, f 10;
#X obj 632 130 print;
#X msg 629 53 60;
#X obj 632 108 pack 0 s;
#X msg 676 77 symbol start;
#X obj 665 500 unpack 0 0;
#X obj 587 417 print L;
#X obj 733 542 print R;
#X obj 662 175 bng 15 250 50 0 empty empty empty 17 7 0 10 -262144
-1 -1;
#X obj 547 568 bng 15 250 50 0 empty empty empty 17 7 0 10 -262144
-1 -1;
#X obj 541 451 bng 15 250 50 0 empty empty empty 17 7 0 10 -262144
-1 -1;
#X obj 536 530 pipe 1500;
#X floatatom 616 223 5 0 0 0 - - -, f 5;
#X floatatom 700 220 5 0 0 0 - - -, f 5;
#X obj 635 285 pipe 0 0 1590;
#X obj 655 359 pack 0 0;
#X obj 712 242 t b;
#X connect 0 0 2 0;
#X connect 1 0 0 0;
#X connect 1 1 0 1;
#X connect 1 2 0 2;
#X connect 2 0 6 0;
#X connect 2 1 6 1;
#X connect 2 2 6 2;
#X connect 2 3 6 3;
#X connect 6 0 7 0;
#X connect 8 0 9 0;
#X connect 8 0 12 0;
#X connect 9 0 1 1;
#X connect 10 0 1 1;
#X connect 11 0 10 0;
#X connect 11 0 15 0;
#X connect 12 0 11 0;
#X connect 13 0 15 1;
#X connect 13 0 16 0;
#X connect 15 0 1 0;
#X connect 16 0 15 0;
#X connect 16 1 8 0;
#X connect 18 0 17 0;
#X connect 19 0 17 0;
#X connect 20 0 17 0;
#X connect 23 0 24 0;
#X connect 23 0 25 0;
#X connect 24 0 22 0;
#X connect 25 0 24 1;
#X connect 26 1 28 0;
#X connect 29 0 33 0;
#X connect 29 0 34 0;
#X connect 31 0 32 0;
#X connect 32 0 30 0;
#X connect 33 0 35 0;
#X connect 34 0 35 1;
#X connect 34 0 37 0;
#X connect 35 0 36 0;
#X connect 35 1 36 1;
#X connect 36 0 27 0;
#X connect 37 0 35 0;
