#N canvas 1 23 450 300 10;
#X obj 79 62 unpack 0 0;
#X obj 79 132 mtof;
#X obj 79 176 *~, f 10;
#X obj 79 40 inlet;
#X obj 79 220 outlet~;
#X obj 79 154 osc~;
#X obj 136 153 line~;
#X obj 136 86 sel 1 0, f 9;
#X obj 79 198 *~ 0.25;
#X msg 136 108 1 5, f 2;
#X msg 161 108 0 5, f 2;
#X connect 0 0 1 0;
#X connect 0 1 7 0;
#X connect 1 0 5 0;
#X connect 2 0 8 0;
#X connect 3 0 0 0;
#X connect 5 0 2 0;
#X connect 6 0 2 1;
#X connect 7 0 9 0;
#X connect 7 1 10 0;
#X connect 8 0 4 0;
#X connect 9 0 6 0;
#X connect 10 0 6 0;
