#N canvas 1 23 662 509 10;
#X obj 79 62 unpack 0 0;
#X obj 79 132 mtof;
#X obj 79 396 *~, f 10;
#X obj 79 40 inlet;
#X obj 79 440 outlet~;
#X obj 79 154 osc~;
#X obj 136 86 sel 1 0, f 9;
#X obj 79 418 *~ 0.25;
#X obj 138 286 tgl 15 0 empty empty empty 17 7 0 10 -262144 -1 -1 0
1;
#N canvas 0 23 954 646 adsr 0;
#X floatatom 494 290 5 0 0 0 - - -, f 5;
#X floatatom 534 290 5 0 0 0 - - -, f 5;
#X floatatom 574 290 5 0 0 0 - - -, f 5;
#X floatatom 614 290 5 0 0 0 - - -, f 5;
#X obj 354 535 line~;
#X obj 473 342 pipe;
#X obj 473 431 pack f f f, f 20;
#X msg 473 463 \$3 \$2;
#X obj 354 153 bng 15 250 50 0 empty empty empty 17 7 0 10 -262144
-1 -1;
#X msg 354 414 \$2 \$3;
#X obj 354 98 sel 1;
#X msg 651 458 \$2 \$3;
#X obj 651 436 pack f f f;
#X obj 651 98 sel 0;
#X obj 354 567 *~;
#X obj 494 228 inlet;
#X obj 354 25 inlet;
#X obj 354 589 outlet~;
#X obj 534 228 inlet;
#X obj 574 228 inlet;
#X obj 614 228 inlet;
#X obj 651 147 bng 15 250 50 0 empty empty empty 17 7 0 10 -262144
-1 -1;
#X obj 433 123 loadbang;
#X msg 433 345 1;
#X obj 354 381 pack f f f, f 27;
#X msg 679 306 0;
#X obj 679 284 loadbang;
#X obj 614 309 t b f;
#X obj 549 366 spigot;
#X obj 574 309 t b f, f 26;
#X connect 0 0 5 1;
#X connect 0 0 24 2;
#X connect 1 0 6 1;
#X connect 2 0 29 0;
#X connect 3 0 27 0;
#X connect 4 0 14 0;
#X connect 4 0 14 1;
#X connect 5 0 6 0;
#X connect 6 0 7 0;
#X connect 7 0 4 0;
#X connect 8 0 5 0;
#X connect 8 0 24 0;
#X connect 9 0 4 0;
#X connect 10 0 8 0;
#X connect 11 0 4 0;
#X connect 12 0 11 0;
#X connect 13 0 21 0;
#X connect 14 0 17 0;
#X connect 15 0 0 0;
#X connect 16 0 10 0;
#X connect 16 0 13 0;
#X connect 16 0 28 1;
#X connect 18 0 1 0;
#X connect 19 0 2 0;
#X connect 20 0 3 0;
#X connect 21 0 12 0;
#X connect 22 0 23 0;
#X connect 23 0 24 1;
#X connect 24 0 9 0;
#X connect 25 0 12 1;
#X connect 26 0 25 0;
#X connect 27 0 12 0;
#X connect 27 1 12 2;
#X connect 28 0 6 0;
#X connect 29 0 28 0;
#X connect 29 1 6 2;
#X restore 138 322 pd adsr;
#X obj 176 198 inlet;
#X obj 176 261 unpack f f f f, f 19;
#X connect 0 0 1 0;
#X connect 0 1 6 0;
#X connect 1 0 5 0;
#X connect 2 0 7 0;
#X connect 3 0 0 0;
#X connect 5 0 2 0;
#X connect 6 0 8 0;
#X connect 6 1 8 0;
#X connect 7 0 4 0;
#X connect 8 0 9 0;
#X connect 9 0 2 1;
#X connect 10 0 11 0;
#X connect 11 0 9 1;
#X connect 11 1 9 2;
#X connect 11 2 9 3;
#X connect 11 3 9 4;
