#N canvas 505 37 697 667 10;
#N canvas 0 22 557 372 (subpatch) 0;
#X array scale 7 float 3;
#A 0 0 2 4 5 7 9 11;
#X coords 0 12 7 0 200 140 1 0 0;
#X restore 91 9 graph;
#X obj 194 469 *~ 0.3;
#X obj 194 571 dac~;
#N canvas 175 198 570 475 wrapped 0;
#X floatatom 194 233 5 0 0 0 - - -, f 5;
#X obj 248 292 div 7;
#X obj 194 292 mod 7;
#X floatatom 248 314 5 0 0 0 - - -, f 5;
#X floatatom 194 314 5 0 0 0 - - -, f 5;
#X floatatom 248 356 5 0 0 0 - - -, f 5;
#X obj 248 333 * 12;
#X floatatom 275 233 5 0 0 0 - - -, f 5;
#X obj 194 403 +, f 14;
#X obj 248 375 t b f;
#X obj 194 343 tabread scale, f 7;
#X obj 194 425 mtof;
#X obj 194 187 inlet;
#X obj 194 447 outlet;
#X floatatom 136 439 5 0 0 0 - - -, f 5;
#X connect 0 0 1 0;
#X connect 0 0 2 0;
#X connect 1 0 3 0;
#X connect 2 0 4 0;
#X connect 3 0 6 0;
#X connect 4 0 10 0;
#X connect 5 0 9 0;
#X connect 6 0 5 0;
#X connect 7 0 1 1;
#X connect 7 0 2 1;
#X connect 8 0 11 0;
#X connect 8 0 14 0;
#X connect 9 0 8 0;
#X connect 9 1 8 1;
#X connect 10 0 8 0;
#X connect 11 0 13 0;
#X connect 12 0 0 0;
#X restore 194 329 pd wrapped;
#X obj 244 469 *~ 0.3;
#X obj 294 469 *~ 0.3;
#N canvas 0 22 570 475 wrapped 0;
#X floatatom 194 233 5 0 0 0 - - -, f 5;
#X obj 248 292 div 7;
#X obj 194 292 mod 7;
#X floatatom 248 314 5 0 0 0 - - -, f 5;
#X floatatom 194 314 5 0 0 0 - - -, f 5;
#X floatatom 248 356 5 0 0 0 - - -, f 5;
#X obj 248 333 * 12;
#X floatatom 275 233 5 0 0 0 - - -, f 5;
#X obj 194 403 +, f 14;
#X obj 248 375 t b f;
#X obj 194 343 tabread scale, f 7;
#X obj 194 425 mtof;
#X obj 194 187 inlet;
#X obj 194 447 outlet;
#X floatatom 133 409 5 0 0 0 - - -, f 5;
#X connect 0 0 1 0;
#X connect 0 0 2 0;
#X connect 1 0 3 0;
#X connect 2 0 4 0;
#X connect 3 0 6 0;
#X connect 4 0 10 0;
#X connect 5 0 9 0;
#X connect 6 0 5 0;
#X connect 7 0 1 1;
#X connect 7 0 2 1;
#X connect 8 0 11 0;
#X connect 8 0 14 0;
#X connect 9 0 8 0;
#X connect 9 1 8 1;
#X connect 10 0 8 0;
#X connect 11 0 13 0;
#X connect 12 0 0 0;
#X restore 264 329 pd wrapped;
#N canvas 0 22 570 475 wrapped 0;
#X floatatom 194 233 5 0 0 0 - - -, f 5;
#X obj 248 292 div 7;
#X obj 194 292 mod 7;
#X floatatom 248 314 5 0 0 0 - - -, f 5;
#X floatatom 194 314 5 0 0 0 - - -, f 5;
#X floatatom 248 356 5 0 0 0 - - -, f 5;
#X obj 248 333 * 12;
#X floatatom 275 233 5 0 0 0 - - -, f 5;
#X obj 194 403 +, f 14;
#X obj 248 375 t b f;
#X obj 194 343 tabread scale, f 7;
#X obj 194 425 mtof;
#X obj 194 187 inlet;
#X obj 194 447 outlet;
#X connect 0 0 1 0;
#X connect 0 0 2 0;
#X connect 1 0 3 0;
#X connect 2 0 4 0;
#X connect 3 0 6 0;
#X connect 4 0 10 0;
#X connect 5 0 9 0;
#X connect 6 0 5 0;
#X connect 7 0 1 1;
#X connect 7 0 2 1;
#X connect 8 0 11 0;
#X connect 9 0 8 0;
#X connect 9 1 8 1;
#X connect 10 0 8 0;
#X connect 11 0 13 0;
#X connect 12 0 0 0;
#X restore 334 329 pd wrapped;
#X obj 404 469 *~ 0.3;
#N canvas 0 22 570 475 wrapped 0;
#X floatatom 194 233 5 0 0 0 - - -, f 5;
#X obj 248 292 div 7;
#X obj 194 292 mod 7;
#X floatatom 248 314 5 0 0 0 - - -, f 5;
#X floatatom 194 314 5 0 0 0 - - -, f 5;
#X floatatom 248 356 5 0 0 0 - - -, f 5;
#X obj 248 333 * 12;
#X floatatom 275 233 5 0 0 0 - - -, f 5;
#X obj 194 403 +, f 14;
#X obj 248 375 t b f;
#X obj 194 343 tabread scale, f 7;
#X obj 194 425 mtof;
#X obj 194 187 inlet;
#X obj 194 447 outlet;
#X connect 0 0 1 0;
#X connect 0 0 2 0;
#X connect 1 0 3 0;
#X connect 2 0 4 0;
#X connect 3 0 6 0;
#X connect 4 0 10 0;
#X connect 5 0 9 0;
#X connect 6 0 5 0;
#X connect 7 0 1 1;
#X connect 7 0 2 1;
#X connect 8 0 11 0;
#X connect 9 0 8 0;
#X connect 9 1 8 1;
#X connect 10 0 8 0;
#X connect 11 0 13 0;
#X connect 12 0 0 0;
#X restore 404 329 pd wrapped;
#X obj 454 469 *~ 0.3;
#X obj 504 469 *~ 0.3;
#N canvas 0 22 570 475 wrapped 0;
#X floatatom 194 233 5 0 0 0 - - -, f 5;
#X obj 248 292 div 7;
#X obj 194 292 mod 7;
#X floatatom 248 314 5 0 0 0 - - -, f 5;
#X floatatom 194 314 5 0 0 0 - - -, f 5;
#X floatatom 248 356 5 0 0 0 - - -, f 5;
#X obj 248 333 * 12;
#X floatatom 275 233 5 0 0 0 - - -, f 5;
#X obj 194 403 +, f 14;
#X obj 248 375 t b f;
#X obj 194 343 tabread scale, f 7;
#X obj 194 425 mtof;
#X obj 194 187 inlet;
#X obj 194 447 outlet;
#X connect 0 0 1 0;
#X connect 0 0 2 0;
#X connect 1 0 3 0;
#X connect 2 0 4 0;
#X connect 3 0 6 0;
#X connect 4 0 10 0;
#X connect 5 0 9 0;
#X connect 6 0 5 0;
#X connect 7 0 1 1;
#X connect 7 0 2 1;
#X connect 8 0 11 0;
#X connect 9 0 8 0;
#X connect 9 1 8 1;
#X connect 10 0 8 0;
#X connect 11 0 13 0;
#X connect 12 0 0 0;
#X restore 474 329 pd wrapped;
#N canvas 0 22 570 475 wrapped 0;
#X floatatom 194 233 5 0 0 0 - - -, f 5;
#X obj 248 292 div 7;
#X obj 194 292 mod 7;
#X floatatom 248 314 5 0 0 0 - - -, f 5;
#X floatatom 194 314 5 0 0 0 - - -, f 5;
#X floatatom 248 356 5 0 0 0 - - -, f 5;
#X obj 248 333 * 12;
#X floatatom 275 233 5 0 0 0 - - -, f 5;
#X obj 194 403 +, f 14;
#X obj 248 375 t b f;
#X obj 194 343 tabread scale, f 7;
#X obj 194 425 mtof;
#X obj 194 187 inlet;
#X obj 194 447 outlet;
#X connect 0 0 1 0;
#X connect 0 0 2 0;
#X connect 1 0 3 0;
#X connect 2 0 4 0;
#X connect 3 0 6 0;
#X connect 4 0 10 0;
#X connect 5 0 9 0;
#X connect 6 0 5 0;
#X connect 7 0 1 1;
#X connect 7 0 2 1;
#X connect 8 0 11 0;
#X connect 9 0 8 0;
#X connect 9 1 8 1;
#X connect 10 0 8 0;
#X connect 11 0 13 0;
#X connect 12 0 0 0;
#X restore 544 329 pd wrapped;
#X obj 264 306 + 4;
#X obj 334 306 + 6;
#X obj 404 306 + 8;
#X obj 474 306 + 9;
#X obj 544 306 + 11;
#X obj 194 211 random 6;
#X floatatom 194 233 5 0 0 0 - - -, f 5;
#X obj 194 162 tgl 15 0 empty empty empty 17 7 0 10 -262144 -1 -1 0
1;
#X obj 194 184 metro 1000;
#X obj 194 252 + 27;
#N canvas 466 81 450 300 saw 0;
#X obj 192 70 inlet;
#X obj 192 172 phasor~;
#X obj 255 172 phasor~;
#X obj 254 134 +;
#X obj 254 80 inlet offset;
#X obj 254 102 t b f;
#X obj 192 224 +~, f 11;
#X obj 192 266 outlet~;
#X connect 0 0 1 0;
#X connect 0 0 3 0;
#X connect 1 0 6 0;
#X connect 2 0 6 1;
#X connect 3 0 2 0;
#X connect 4 0 5 0;
#X connect 5 0 3 0;
#X connect 5 1 3 1;
#X connect 6 0 7 0;
#X restore 194 383 pd saw pair;
#N canvas 466 81 450 300 saw 0;
#X obj 192 70 inlet;
#X obj 192 172 phasor~;
#X obj 255 172 phasor~;
#X obj 254 134 +;
#X obj 254 80 inlet offset;
#X obj 254 102 t b f;
#X obj 192 224 +~, f 11;
#X obj 192 266 outlet~;
#X connect 0 0 1 0;
#X connect 0 0 3 0;
#X connect 1 0 6 0;
#X connect 2 0 6 1;
#X connect 3 0 2 0;
#X connect 4 0 5 0;
#X connect 5 0 3 0;
#X connect 5 1 3 1;
#X connect 6 0 7 0;
#X restore 264 421 pd saw pair;
#N canvas 466 81 450 300 saw 0;
#X obj 192 70 inlet;
#X obj 192 172 phasor~;
#X obj 255 172 phasor~;
#X obj 254 134 +;
#X obj 254 80 inlet offset;
#X obj 254 102 t b f;
#X obj 192 224 +~, f 11;
#X obj 192 266 outlet~;
#X connect 0 0 1 0;
#X connect 0 0 3 0;
#X connect 1 0 6 0;
#X connect 2 0 6 1;
#X connect 3 0 2 0;
#X connect 4 0 5 0;
#X connect 5 0 3 0;
#X connect 5 1 3 1;
#X connect 6 0 7 0;
#X restore 334 383 pd saw pair;
#N canvas 466 81 450 300 saw 0;
#X obj 192 70 inlet;
#X obj 192 172 phasor~;
#X obj 255 172 phasor~;
#X obj 254 134 +;
#X obj 254 80 inlet offset;
#X obj 254 102 t b f;
#X obj 192 224 +~, f 11;
#X obj 192 266 outlet~;
#X connect 0 0 1 0;
#X connect 0 0 3 0;
#X connect 1 0 6 0;
#X connect 2 0 6 1;
#X connect 3 0 2 0;
#X connect 4 0 5 0;
#X connect 5 0 3 0;
#X connect 5 1 3 1;
#X connect 6 0 7 0;
#X restore 403 421 pd saw pair;
#N canvas 466 81 450 300 saw 0;
#X obj 192 70 inlet;
#X obj 192 172 phasor~;
#X obj 255 172 phasor~;
#X obj 254 134 +;
#X obj 254 80 inlet offset;
#X obj 254 102 t b f;
#X obj 192 224 +~, f 11;
#X obj 192 266 outlet~;
#X connect 0 0 1 0;
#X connect 0 0 3 0;
#X connect 1 0 6 0;
#X connect 2 0 6 1;
#X connect 3 0 2 0;
#X connect 4 0 5 0;
#X connect 5 0 3 0;
#X connect 5 1 3 1;
#X connect 6 0 7 0;
#X restore 474 383 pd saw pair;
#N canvas 466 81 450 300 saw 0;
#X obj 192 70 inlet;
#X obj 192 172 phasor~;
#X obj 255 172 phasor~;
#X obj 254 134 +;
#X obj 254 80 inlet offset;
#X obj 254 102 t b f;
#X obj 192 224 +~, f 11;
#X obj 192 266 outlet~;
#X connect 0 0 1 0;
#X connect 0 0 3 0;
#X connect 1 0 6 0;
#X connect 2 0 6 1;
#X connect 3 0 2 0;
#X connect 4 0 5 0;
#X connect 5 0 3 0;
#X connect 5 1 3 1;
#X connect 6 0 7 0;
#X restore 544 421 pd saw pair;
#X floatatom 71 306 5 0 0 0 - - -, f 5;
#N canvas 496 129 618 476 glide 0;
#X obj 430 59 inlet;
#X obj 364 245 lop~;
#X floatatom 358 373 5 0 0 0 - - -, f 5;
#X obj 442 295 snapshot~;
#X obj 482 220 tgl 15 0 empty empty empty 17 7 0 10 -262144 -1 -1 1
1;
#X obj 482 242 metro 50;
#X floatatom 388 214 5 0 0 0 - - -, f 5;
#X obj 341 143 inlet;
#X obj 482 191 loadbang;
#X msg 412 143 1;
#X obj 412 165 /, f 8;
#X obj 430 81 t b f;
#X obj 358 392 outlet;
#X connect 0 0 11 0;
#X connect 1 0 3 0;
#X connect 2 0 12 0;
#X connect 3 0 2 0;
#X connect 4 0 5 0;
#X connect 5 0 3 0;
#X connect 6 0 1 1;
#X connect 7 0 1 0;
#X connect 8 0 4 0;
#X connect 8 0 9 0;
#X connect 9 0 10 0;
#X connect 10 0 6 0;
#X connect 11 0 10 0;
#X connect 11 1 10 1;
#X restore 38 242 pd glide;
#X floatatom 31 186 5 0 0 0 - - -, f 5;
#X floatatom 76 189 5 0 0 0 - - -, f 5;
#X connect 1 0 2 0;
#X connect 3 0 24 0;
#X connect 4 0 2 0;
#X connect 5 0 2 0;
#X connect 6 0 25 0;
#X connect 7 0 26 0;
#X connect 8 0 2 0;
#X connect 9 0 27 0;
#X connect 10 0 2 0;
#X connect 11 0 2 0;
#X connect 12 0 28 0;
#X connect 13 0 29 0;
#X connect 14 0 6 0;
#X connect 15 0 7 0;
#X connect 16 0 9 0;
#X connect 17 0 12 0;
#X connect 18 0 13 0;
#X connect 19 0 20 0;
#X connect 20 0 23 0;
#X connect 21 0 22 0;
#X connect 22 0 19 0;
#X connect 23 0 3 0;
#X connect 23 0 14 0;
#X connect 23 0 15 0;
#X connect 23 0 16 0;
#X connect 23 0 17 0;
#X connect 23 0 18 0;
#X connect 24 0 1 0;
#X connect 25 0 4 0;
#X connect 26 0 5 0;
#X connect 27 0 8 0;
#X connect 28 0 10 0;
#X connect 29 0 11 0;
#X connect 30 0 24 1;
#X connect 30 0 25 1;
#X connect 30 0 26 1;
#X connect 30 0 27 1;
#X connect 30 0 28 1;
#X connect 30 0 29 1;
#X connect 31 0 20 0;
#X connect 32 0 31 0;
#X connect 33 0 31 1;
