#N canvas 148 124 675 550 10;
#N canvas 0 22 450 278 (subpatch) 0;
#X array scale 7 float 3;
#A 0 0 2 4 5 7 9 11;
#X coords 0 12 7 0 200 140 1 0 0;
#X restore 100 20 graph;
#X obj 194 469 *~ 0.3;
#X obj 194 511 dac~;
#X obj 194 264 line;
#X obj 194 447 osc~;
#N canvas 0 22 570 475 wrapped 0;
#X floatatom 194 233 5 0 0 0 - - -, f 5;
#X obj 248 292 div 7;
#X obj 194 292 mod 7;
#X floatatom 248 314 5 0 0 0 - - -, f 5;
#X floatatom 194 314 5 0 0 0 - - -, f 5;
#X floatatom 248 356 5 0 0 0 - - -, f 5;
#X obj 248 333 * 12;
#X floatatom 275 233 5 0 0 0 - - -, f 5;
#X obj 194 403 +, f 14;
#X obj 248 375 t b f;
#X obj 194 343 tabread scale, f 7;
#X obj 194 425 mtof;
#X obj 194 187 inlet;
#X obj 194 447 outlet;
#X connect 0 0 1 0;
#X connect 0 0 2 0;
#X connect 1 0 3 0;
#X connect 2 0 4 0;
#X connect 3 0 6 0;
#X connect 4 0 10 0;
#X connect 5 0 9 0;
#X connect 6 0 5 0;
#X connect 7 0 1 1;
#X connect 7 0 2 1;
#X connect 8 0 11 0;
#X connect 9 0 8 0;
#X connect 9 1 8 1;
#X connect 10 0 8 0;
#X connect 11 0 13 0;
#X connect 12 0 0 0;
#X restore 194 329 pd wrapped;
#X obj 244 469 *~ 0.3;
#X obj 244 447 osc~;
#X obj 294 469 *~ 0.3;
#X obj 294 447 osc~;
#X obj 264 306 + 2;
#X obj 334 306 + 4;
#N canvas 0 22 570 475 wrapped 0;
#X floatatom 194 233 5 0 0 0 - - -, f 5;
#X obj 248 292 div 7;
#X obj 194 292 mod 7;
#X floatatom 248 314 5 0 0 0 - - -, f 5;
#X floatatom 194 314 5 0 0 0 - - -, f 5;
#X floatatom 248 356 5 0 0 0 - - -, f 5;
#X obj 248 333 * 12;
#X floatatom 275 233 5 0 0 0 - - -, f 5;
#X obj 194 403 +, f 14;
#X obj 248 375 t b f;
#X obj 194 343 tabread scale, f 7;
#X obj 194 425 mtof;
#X obj 194 187 inlet;
#X obj 194 447 outlet;
#X connect 0 0 1 0;
#X connect 0 0 2 0;
#X connect 1 0 3 0;
#X connect 2 0 4 0;
#X connect 3 0 6 0;
#X connect 4 0 10 0;
#X connect 5 0 9 0;
#X connect 6 0 5 0;
#X connect 7 0 1 1;
#X connect 7 0 2 1;
#X connect 8 0 11 0;
#X connect 9 0 8 0;
#X connect 9 1 8 1;
#X connect 10 0 8 0;
#X connect 11 0 13 0;
#X connect 12 0 0 0;
#X restore 264 329 pd wrapped;
#N canvas 0 22 570 475 wrapped 0;
#X floatatom 194 233 5 0 0 0 - - -, f 5;
#X obj 248 292 div 7;
#X obj 194 292 mod 7;
#X floatatom 248 314 5 0 0 0 - - -, f 5;
#X floatatom 194 314 5 0 0 0 - - -, f 5;
#X floatatom 248 356 5 0 0 0 - - -, f 5;
#X obj 248 333 * 12;
#X floatatom 275 233 5 0 0 0 - - -, f 5;
#X obj 194 403 +, f 14;
#X obj 248 375 t b f;
#X obj 194 343 tabread scale, f 7;
#X obj 194 425 mtof;
#X obj 194 187 inlet;
#X obj 194 447 outlet;
#X connect 0 0 1 0;
#X connect 0 0 2 0;
#X connect 1 0 3 0;
#X connect 2 0 4 0;
#X connect 3 0 6 0;
#X connect 4 0 10 0;
#X connect 5 0 9 0;
#X connect 6 0 5 0;
#X connect 7 0 1 1;
#X connect 7 0 2 1;
#X connect 8 0 11 0;
#X connect 9 0 8 0;
#X connect 9 1 8 1;
#X connect 10 0 8 0;
#X connect 11 0 13 0;
#X connect 12 0 0 0;
#X restore 334 329 pd wrapped;
#X msg 194 168 36 500;
#X msg 246 168 37 500;
#X msg 303 168 38 500;
#X msg 360 168 39 500;
#X msg 416 168 40 500;
#X msg 473 168 41 500;
#X msg 530 168 42 500;
#X obj 404 469 *~ 0.3;
#X obj 404 447 osc~;
#N canvas 0 22 570 475 wrapped 0;
#X floatatom 194 233 5 0 0 0 - - -, f 5;
#X obj 248 292 div 7;
#X obj 194 292 mod 7;
#X floatatom 248 314 5 0 0 0 - - -, f 5;
#X floatatom 194 314 5 0 0 0 - - -, f 5;
#X floatatom 248 356 5 0 0 0 - - -, f 5;
#X obj 248 333 * 12;
#X floatatom 275 233 5 0 0 0 - - -, f 5;
#X obj 194 403 +, f 14;
#X obj 248 375 t b f;
#X obj 194 343 tabread scale, f 7;
#X obj 194 425 mtof;
#X obj 194 187 inlet;
#X obj 194 447 outlet;
#X connect 0 0 1 0;
#X connect 0 0 2 0;
#X connect 1 0 3 0;
#X connect 2 0 4 0;
#X connect 3 0 6 0;
#X connect 4 0 10 0;
#X connect 5 0 9 0;
#X connect 6 0 5 0;
#X connect 7 0 1 1;
#X connect 7 0 2 1;
#X connect 8 0 11 0;
#X connect 9 0 8 0;
#X connect 9 1 8 1;
#X connect 10 0 8 0;
#X connect 11 0 13 0;
#X connect 12 0 0 0;
#X restore 404 329 pd wrapped;
#X obj 454 469 *~ 0.3;
#X obj 454 447 osc~;
#X obj 504 469 *~ 0.3;
#X obj 504 447 osc~;
#X obj 474 306 + 2;
#X obj 544 306 + 4;
#N canvas 0 22 570 475 wrapped 0;
#X floatatom 194 233 5 0 0 0 - - -, f 5;
#X obj 248 292 div 7;
#X obj 194 292 mod 7;
#X floatatom 248 314 5 0 0 0 - - -, f 5;
#X floatatom 194 314 5 0 0 0 - - -, f 5;
#X floatatom 248 356 5 0 0 0 - - -, f 5;
#X obj 248 333 * 12;
#X floatatom 275 233 5 0 0 0 - - -, f 5;
#X obj 194 403 +, f 14;
#X obj 248 375 t b f;
#X obj 194 343 tabread scale, f 7;
#X obj 194 425 mtof;
#X obj 194 187 inlet;
#X obj 194 447 outlet;
#X connect 0 0 1 0;
#X connect 0 0 2 0;
#X connect 1 0 3 0;
#X connect 2 0 4 0;
#X connect 3 0 6 0;
#X connect 4 0 10 0;
#X connect 5 0 9 0;
#X connect 6 0 5 0;
#X connect 7 0 1 1;
#X connect 7 0 2 1;
#X connect 8 0 11 0;
#X connect 9 0 8 0;
#X connect 9 1 8 1;
#X connect 10 0 8 0;
#X connect 11 0 13 0;
#X connect 12 0 0 0;
#X restore 474 329 pd wrapped;
#N canvas 0 22 570 475 wrapped 0;
#X floatatom 194 233 5 0 0 0 - - -, f 5;
#X obj 248 292 div 7;
#X obj 194 292 mod 7;
#X floatatom 248 314 5 0 0 0 - - -, f 5;
#X floatatom 194 314 5 0 0 0 - - -, f 5;
#X floatatom 248 356 5 0 0 0 - - -, f 5;
#X obj 248 333 * 12;
#X floatatom 275 233 5 0 0 0 - - -, f 5;
#X obj 194 403 +, f 14;
#X obj 248 375 t b f;
#X obj 194 343 tabread scale, f 7;
#X obj 194 425 mtof;
#X obj 194 187 inlet;
#X obj 194 447 outlet;
#X connect 0 0 1 0;
#X connect 0 0 2 0;
#X connect 1 0 3 0;
#X connect 2 0 4 0;
#X connect 3 0 6 0;
#X connect 4 0 10 0;
#X connect 5 0 9 0;
#X connect 6 0 5 0;
#X connect 7 0 1 1;
#X connect 7 0 2 1;
#X connect 8 0 11 0;
#X connect 9 0 8 0;
#X connect 9 1 8 1;
#X connect 10 0 8 0;
#X connect 11 0 13 0;
#X connect 12 0 0 0;
#X restore 544 329 pd wrapped;
#X obj 404 306 + 4;
#X connect 1 0 2 0;
#X connect 3 0 10 0;
#X connect 3 0 11 0;
#X connect 3 0 5 0;
#X connect 4 0 1 0;
#X connect 5 0 4 0;
#X connect 6 0 2 0;
#X connect 7 0 6 0;
#X connect 8 0 2 0;
#X connect 9 0 8 0;
#X connect 10 0 12 0;
#X connect 11 0 13 0;
#X connect 12 0 7 0;
#X connect 13 0 9 0;
#X connect 14 0 3 0;
#X connect 15 0 3 0;
#X connect 16 0 3 0;
#X connect 17 0 3 0;
#X connect 18 0 3 0;
#X connect 19 0 3 0;
#X connect 20 0 3 0;
#X connect 22 0 21 0;
#X connect 23 0 22 0;
#X connect 25 0 24 0;
#X connect 27 0 26 0;
#X connect 28 0 30 0;
#X connect 29 0 31 0;
#X connect 30 0 25 0;
#X connect 31 0 27 0;
#X connect 32 0 23 0;
