#N canvas 9 23 1072 712 10;
#N canvas 234 49 672 469 out 0;
#X obj 12 271 dac~;
#X obj 12 163 inlet~;
#X obj 54 163 inlet~;
#X obj 12 237 *~;
#X obj 102 105 vsl 40 80 0 1 0 0 empty empty empty 0 -9 0 10 -262144
-1 -1 5530 1;
#X obj 54 236 *~;
#X obj 102 37 loadbang;
#X msg 102 67 0.7;
#X connect 1 0 3 0;
#X connect 2 0 5 0;
#X connect 3 0 0 0;
#X connect 4 0 3 1;
#X connect 4 0 5 1;
#X connect 5 0 0 1;
#X connect 6 0 7 0;
#X connect 7 0 4 0;
#X coords 0 -1 1 1 90 90 1 100 100;
#X restore 532 594 pd out;
#N canvas 0 22 450 278 (subpatch) 0;
#X array channelL 1 float 2;
#X coords 0 1 1 -1 200 50 1 0 0;
#X restore 271 100 graph;
#N canvas 0 22 450 278 (subpatch) 0;
#X array channelR 1 float 2;
#X coords 0 1 1 -1 200 50 1 0 0;
#X restore 271 169 graph;
#N canvas 517 87 788 562 playbackhead 0;
#X obj 103 103 hsl 195 15 0 1 0 0 empty empty empty -2 -8 0 10 -262144
-1 -1 0 1;
#N canvas 586 316 450 300 pbPosition 0;
#X obj 188 138 snapshot~;
#X obj 188 114 metro 50;
#X obj 188 92 tgl 15 0 empty empty empty 17 7 0 10 -262144 -1 -1 1
1;
#X floatatom 188 160 12 0 0 0 - - -, f 12;
#X obj 188 199 /, f 5;
#X obj 215 178 r sampleSize;
#X floatatom 188 221 5 0 0 0 - - -, f 5;
#X obj 92 93 r~ phsrPos;
#X obj 188 66 loadbang;
#X obj 188 240 outlet;
#X connect 0 0 3 0;
#X connect 1 0 0 0;
#X connect 2 0 1 0;
#X connect 3 0 4 0;
#X connect 4 0 6 0;
#X connect 5 0 4 1;
#X connect 6 0 9 0;
#X connect 7 0 0 0;
#X connect 8 0 2 0;
#X restore 100 62 pd pbPosition;
#X connect 1 0 0 0;
#X coords 0 -1 1 1 200 20 1 100 100;
#X restore 271 224 pd playbackhead;
#X obj 45 34 bng 15 250 50 0 empty empty empty 17 7 0 10 -262144 -1
-1;
#X msg 45 76 read -resize \$1 channelL channelR;
#X floatatom 55 123 12 0 0 0 - - -, f 12;
#X obj 55 142 s sampleSize;
#X obj 55 199 s sampleFrequency;
#X obj 532 525 route 1 2 3 4;
#N canvas 559 148 734 461 voices 1;
#X obj 76 72 inlet;
#X obj 76 377 outlet~;
#X obj 213 72 inlet;
#X obj 358 74 inlet;
#X obj 495 74 inlet;
#X obj 76 306 +~;
#X obj 76 328 +~;
#X obj 76 350 +~;
#X obj 606 84 inlet;
#X text 658 55 ADSR;
#X obj 186 377 outlet~;
#X obj 186 306 +~;
#X obj 186 328 +~;
#X obj 186 350 +~;
#X obj 76 166 smplrArch-2;
#X obj 213 166 smplrArch-2;
#X obj 358 166 smplrArch-2, f 13;
#X obj 495 166 smplrArch-2, f 13;
#X connect 0 0 14 0;
#X connect 2 0 15 0;
#X connect 3 0 16 0;
#X connect 4 0 17 0;
#X connect 5 0 6 0;
#X connect 6 0 7 0;
#X connect 7 0 1 0;
#X connect 8 0 14 1;
#X connect 8 0 15 1;
#X connect 8 0 16 1;
#X connect 8 0 17 1;
#X connect 11 0 12 0;
#X connect 12 0 13 0;
#X connect 13 0 10 0;
#X connect 14 0 5 0;
#X connect 14 1 11 0;
#X connect 15 0 5 1;
#X connect 15 1 11 1;
#X connect 16 0 6 1;
#X connect 16 1 12 1;
#X connect 17 0 7 1;
#X connect 17 1 13 1;
#X restore 532 559 pd voices;
#N canvas 0 137 731 551 notePipe 0;
#X msg 402 249 1;
#X msg 184 167 0;
#X obj 75 88 inlet;
#X obj 348 382 outlet;
#X obj 293 318 outlet;
#X obj 75 118 t f b f b, f 55;
#X text 536 169 change note length in ms;
#X obj 75 234 pipe 0 0 700, f 46;
#X obj 184 189 f;
#X obj 402 271 f;
#X connect 0 0 9 0;
#X connect 1 0 8 0;
#X connect 2 0 5 0;
#X connect 5 0 7 0;
#X connect 5 1 1 0;
#X connect 5 2 4 0;
#X connect 5 3 0 0;
#X connect 7 0 4 0;
#X connect 7 1 3 0;
#X connect 8 0 7 1;
#X connect 9 0 3 0;
#X restore 532 449 pd notePipe;
#N canvas 603 111 523 475 adsr 0;
#X obj 103 105 vsl 15 128 10 1000 0 0 empty empty empty 0 -9 0 10 -262130
-1 -1 8900 0;
#X obj 142 105 vsl 15 128 0 1000 0 0 empty empty empty 0 -9 0 10 -262144
-1 -1 9071 1;
#X obj 181 105 vsl 15 128 0 1 0 0 empty empty empty 0 -9 0 10 -262144
-1 -1 6450 1;
#X obj 220 105 vsl 15 128 20 10000 1 0 empty empty empty 0 -9 0 10
-262144 -1 -1 6379 1;
#X obj 103 52 unpack f f f f, f 20;
#X obj 103 -34 loadbang;
#X obj 103 361 pack f f f f, f 24;
#X obj 103 383 outlet;
#X obj 220 255 t b f;
#X obj 181 255 t b f;
#X obj 142 255 t b f;
#X floatatom 18 314 5 0 0 0 - - -, f 5;
#X floatatom 48 341 5 0 0 0 - - -, f 5;
#X floatatom 53 375 5 0 0 0 - - -, f 5;
#X floatatom 76 414 5 0 0 0 - - -, f 5;
#X obj 103 331 f;
#X msg 103 29 700 710 0.5 450;
#X connect 0 0 11 0;
#X connect 0 0 15 0;
#X connect 1 0 10 0;
#X connect 1 0 12 0;
#X connect 2 0 9 0;
#X connect 2 0 13 0;
#X connect 3 0 8 0;
#X connect 3 0 14 0;
#X connect 4 0 0 0;
#X connect 4 1 1 0;
#X connect 4 2 2 0;
#X connect 4 3 3 0;
#X connect 5 0 16 0;
#X connect 6 0 7 0;
#X connect 8 0 15 0;
#X connect 8 1 6 3;
#X connect 9 0 15 0;
#X connect 9 1 6 2;
#X connect 10 0 15 0;
#X connect 10 1 6 1;
#X connect 15 0 6 0;
#X connect 16 0 4 0;
#X coords 0 -1 1 1 140 140 2 100 100;
#X restore 669 377 pd adsr control;
#X obj 532 474 poly 4 1, f 11;
#X obj 571 52 tgl 15 0 empty empty empty 17 7 0 10 -262144 -1 -1 0
1;
#X obj 571 17 loadbang;
#N canvas 142 23 883 716 drunk 0;
#X obj 147 371 - 1;
#X floatatom 147 393 5 0 0 0 - - -, f 5;
#X obj 147 326 random 2;
#X obj 72 176 inlet;
#X obj 122 660 outlet;
#X floatatom 207 187 5 0 0 0 - - -, f 5;
#X obj 207 328 -, f 11;
#X obj 243 263 t b f;
#X floatatom 207 350 5 0 0 0 - - -, f 5;
#X obj 147 482 *, f 25;
#X obj 147 558 +, f 15;
#X floatatom 147 580 5 0 0 0 - - -, f 5;
#X obj 207 507 t b f;
#X obj 267 402 t b f;
#X obj 207 158 r drunk;
#X obj 207 373 * -1;
#X floatatom 302 381 5 0 0 0 - - -, f 5;
#X obj 302 337 +, f 10;
#X obj 302 359 - 1;
#X obj 302 245 < 6;
#X obj 332 245 > -6;
#X obj 332 268 t b f;
#X obj 207 236 > 5;
#X obj 243 236 < -5;
#X obj 180 627 +, f 5;
#X obj 72 660 s drunk;
#X text 348 439 Left creates value to add if outside range Right checks
if value is in range to cancel it Value is always plus or minus 1;
#X obj 147 347 * 2, f 4;
#X obj 264 19 inlet lowerBound, f 10;
#X obj 317 65 inlet upperBound, f 10;
#X obj 222 113 - 2;
#X obj 317 174 - 1;
#X obj 264 113 + 2;
#X obj 353 174 + 1;
#X obj 72 601 f 0, f 12;
#X obj 207 298 f;
#X obj 302 307 f;
#X obj 147 533 f;
#X obj 147 452 f;
#X connect 0 0 1 0;
#X connect 1 0 38 0;
#X connect 2 0 27 0;
#X connect 3 0 2 0;
#X connect 3 0 34 0;
#X connect 5 0 19 0;
#X connect 5 0 20 0;
#X connect 5 0 22 0;
#X connect 5 0 23 0;
#X connect 6 0 8 0;
#X connect 7 0 35 0;
#X connect 7 1 6 1;
#X connect 8 0 15 0;
#X connect 9 0 37 0;
#X connect 10 0 11 0;
#X connect 11 0 24 1;
#X connect 12 0 37 0;
#X connect 12 1 10 1;
#X connect 13 0 38 0;
#X connect 13 1 9 1;
#X connect 14 0 5 0;
#X connect 15 0 12 0;
#X connect 16 0 13 0;
#X connect 17 0 18 0;
#X connect 18 0 16 0;
#X connect 19 0 36 0;
#X connect 20 0 21 0;
#X connect 21 0 36 0;
#X connect 21 1 17 1;
#X connect 22 0 35 0;
#X connect 23 0 7 0;
#X connect 24 0 34 1;
#X connect 27 0 0 0;
#X connect 28 0 32 0;
#X connect 28 0 33 0;
#X connect 29 0 30 0;
#X connect 29 0 31 0;
#X connect 30 0 22 1;
#X connect 31 0 19 1;
#X connect 32 0 23 1;
#X connect 33 0 20 1;
#X connect 34 0 24 0;
#X connect 34 0 25 0;
#X connect 34 0 4 0;
#X connect 35 0 6 0;
#X connect 36 0 17 0;
#X connect 37 0 10 0;
#X connect 38 0 9 0;
#X restore 571 237 pd drunk;
#N canvas 0 22 450 278 (subpatch) 0;
#X array scale 7 float 3;
#A 0 0 3 5 7 10 9 11;
#X coords 0 12 7 0 200 140 1 0 0;
#X restore 929 300 graph;
#N canvas 499 23 243 350 scaleScaler 0;
#X obj 88 150 div 7;
#X obj 140 150 mod 7;
#X floatatom 88 172 5 0 0 0 - - -, f 5;
#X floatatom 140 172 5 0 0 0 - - -, f 5;
#X floatatom 88 214 5 0 0 0 - - -, f 5;
#X obj 88 191 * 12;
#X obj 88 91 inlet;
#X obj 167 90 inlet;
#X obj 140 250 outlet;
#X obj 88 250 outlet;
#X text 23 282 octave offset;
#X text 135 284 table index, f 17;
#X connect 0 0 2 0;
#X connect 1 0 3 0;
#X connect 2 0 5 0;
#X connect 3 0 8 0;
#X connect 4 0 9 0;
#X connect 5 0 4 0;
#X connect 6 0 1 0;
#X connect 6 0 0 0;
#X connect 7 0 1 1;
#X connect 7 0 0 1;
#X restore 571 299 pd scaleScaler;
#X floatatom 571 266 5 0 0 0 - - -, f 5;
#X floatatom 674 251 5 0 0 0 - - -, f 5;
#X text 533 266 index;
#X obj 670 322 tabread scale;
#X floatatom 593 197 5 0 0 0 - - -, f 5;
#X floatatom 633 211 5 0 0 0 - - -, f 5;
#X text 691 197 lo bound;
#X text 695 215 hi bound;
#X text 710 250 table/scale size;
#X obj 571 88 metro 150;
#X obj 592 110 loadbang;
#X msg 593 131 -3 6 3;
#X obj 593 153 unpack f f f, f 14;
#X obj 571 347 +, f 17;
#X floatatom 571 391 5 0 0 0 - - -, f 5;
#X floatatom 622 64 5 0 0 0 - - -, f 5;
#X msg 622 40 1200;
#X obj 571 369 + 48;
#X obj 404 562 print ply;
#X obj 100 390 samplerate~;
#X obj 100 412 /, f 14;
#X obj 100 358 t b f f, f 28;
#X obj 100 336 r setsamplearray @hv_param 0 2.646e+06 0;
#X obj 55 199 s sampleFrequency;
#X obj 100 440 s sampleFrequency;
#X obj 265 386 s sampleSize;
#N canvas 0 22 450 300 openpanel 0;
#X restore 45 54 pd openpanel;
#N canvas 0 22 450 300 soundfiler 0;
#X restore 45 98 pd soundfiler;
#N canvas 0 22 450 300 expr 0;
#X restore 45 166 pd expr 44100 / $f1;
#X obj 532 500 pack f f f, f 11;
#X connect 6 0 7 0;
#X connect 9 0 10 0;
#X connect 9 1 10 1;
#X connect 9 2 10 2;
#X connect 9 3 10 3;
#X connect 10 0 0 0;
#X connect 10 1 0 1;
#X connect 11 0 13 0;
#X connect 11 1 13 1;
#X connect 12 0 10 4;
#X connect 13 0 48 0;
#X connect 13 1 48 1;
#X connect 13 2 48 2;
#X connect 14 0 28 0;
#X connect 15 0 14 0;
#X connect 15 0 35 0;
#X connect 16 0 19 0;
#X connect 18 0 32 0;
#X connect 18 1 22 0;
#X connect 19 0 18 0;
#X connect 20 0 18 1;
#X connect 22 0 32 1;
#X connect 23 0 16 1;
#X connect 24 0 16 2;
#X connect 28 0 16 0;
#X connect 29 0 30 0;
#X connect 30 0 31 0;
#X connect 31 0 23 0;
#X connect 31 1 24 0;
#X connect 31 2 20 0;
#X connect 32 0 36 0;
#X connect 33 0 11 0;
#X connect 34 0 28 1;
#X connect 35 0 34 0;
#X connect 36 0 33 0;
#X connect 38 0 39 0;
#X connect 39 0 43 0;
#X connect 40 0 38 0;
#X connect 40 1 39 1;
#X connect 40 2 44 0;
#X connect 41 0 40 0;
#X connect 48 0 9 0;
#X connect 48 0 37 0;
