#N canvas 928 196 629 841 10;
#X obj 178 281 makenote 127 50;
#X floatatom 265 245 5 0 0 0 - - -, f 5;
#X obj 178 397 route 1 2 3 4, f 36;
#X obj 178 353 poly 4 1, f 10;
#N canvas 0 22 616 523 voiceSumming 0;
#X obj 86 130 inlet~;
#X obj 137 130 inlet~;
#X obj 187 130 inlet~;
#X obj 237 130 inlet~;
#X obj 287 130 inlet~;
#X obj 337 130 inlet~;
#X obj 387 130 inlet~;
#X obj 437 130 inlet~;
#X obj 86 192 +~;
#X obj 86 224 +~;
#X obj 86 261 +~;
#X obj 137 193 +~;
#X obj 137 225 +~;
#X obj 137 262 +~;
#X obj 86 315 *~ 0.25;
#X obj 137 315 *~ 0.25;
#X obj 86 337 outlet~;
#X obj 137 337 outlet~, f 32;
#X connect 0 0 8 0;
#X connect 1 0 11 0;
#X connect 2 0 8 1;
#X connect 3 0 11 1;
#X connect 4 0 9 1;
#X connect 5 0 12 1;
#X connect 6 0 10 1;
#X connect 7 0 13 1;
#X connect 8 0 9 0;
#X connect 9 0 10 0;
#X connect 10 0 14 0;
#X connect 11 0 12 0;
#X connect 12 0 13 0;
#X connect 13 0 15 0;
#X connect 14 0 16 0;
#X connect 15 0 17 0;
#X restore 178 520 pd voiceSumming;
#X obj 178 475 voice;
#X obj 178 582 outlet~;
#X obj 265 582 outlet~;
#X text 323 245 noteLength;
#X text 104 227 note input;
#X obj 178 240 inlet;
#X obj 178 375 pack f f f;
#X obj 178 303 pack f f;
#X obj 337 475 voice;
#X obj 231 475 voice;
#X obj 284 475 voice;
#X connect 0 0 12 0;
#X connect 0 1 12 1;
#X connect 1 0 0 2;
#X connect 2 0 5 0;
#X connect 2 1 14 0;
#X connect 2 2 15 0;
#X connect 2 3 13 0;
#X connect 3 0 11 0;
#X connect 3 1 11 1;
#X connect 3 2 11 2;
#X connect 4 0 6 0;
#X connect 4 1 7 0;
#X connect 5 0 4 0;
#X connect 5 1 4 1;
#X connect 10 0 0 0;
#X connect 11 0 2 0;
#X connect 12 0 3 0;
#X connect 13 0 4 6;
#X connect 13 1 4 7;
#X connect 14 0 4 2;
#X connect 14 1 4 3;
#X connect 15 0 4 4;
#X connect 15 1 4 5;
