#N canvas 1236 480 657 592 10;
#X obj 431 112 sel 0;
#X obj 296 23 inlet p;
#X obj 296 547 outlet~;
#X obj 458 255 hv.vline;
#X obj 317 188 r fRatio;
#X obj 339 278 r FMamount, f 13;
#X obj 147 16 r binauralPhase;
#X obj 147 129 t b f;
#X obj 147 235 f;
#X obj 147 260 +, f 5;
#X text 31 158 pitch + phase;
#X obj 147 552 outlet~;
#X obj 147 500 fm_voice, f 15;
#X obj 296 67 mtof;
#X obj 458 299 *~;
#X msg 458 213 1 2000 \, 0 2500 3500;
#X obj 296 117 line;
#X floatatom 296 139 5 0 0 0 - - -, f 5;
#X msg 296 95 \$1 100;
#X obj 296 45 unpack f f, f 23;
#X obj 296 499 fm_voice, f 15;
#X obj 317 231 line;
#X floatatom 317 253 5 0 0 0 - - -, f 5;
#X msg 317 209 \$1 100;
#X obj 339 324 line;
#X floatatom 339 346 5 0 0 0 - - -, f 5;
#X msg 339 302 \$1 1500;
#X obj 147 81 line;
#X floatatom 147 103 5 0 0 0 - - -, f 5;
#X msg 147 59 \$1 1000;
#X connect 0 1 15 0;
#X connect 1 0 19 0;
#X connect 3 0 14 0;
#X connect 3 0 14 1;
#X connect 4 0 23 0;
#X connect 5 0 26 0;
#X connect 6 0 29 0;
#X connect 7 0 8 0;
#X connect 7 1 9 1;
#X connect 8 0 9 0;
#X connect 9 0 12 0;
#X connect 12 0 11 0;
#X connect 13 0 18 0;
#X connect 14 0 12 4;
#X connect 14 0 12 3;
#X connect 14 0 20 4;
#X connect 14 0 20 3;
#X connect 15 0 3 0;
#X connect 16 0 17 0;
#X connect 17 0 20 0;
#X connect 17 0 8 0;
#X connect 18 0 16 0;
#X connect 19 0 13 0;
#X connect 19 1 0 0;
#X connect 20 0 2 0;
#X connect 21 0 22 0;
#X connect 22 0 20 1;
#X connect 22 0 12 1;
#X connect 23 0 21 0;
#X connect 24 0 25 0;
#X connect 25 0 20 2;
#X connect 25 0 12 2;
#X connect 26 0 24 0;
#X connect 27 0 28 0;
#X connect 28 0 7 0;
#X connect 29 0 27 0;
