#N canvas 0 55 567 597 10;
#X obj 311 74 bng 15 250 50 0 empty empty empty 17 7 0 10 -262144 -1
-1;
#X obj 311 18 tgl 15 0 empty empty empty 17 7 0 10 -262144 -1 -1 1
1;
#X obj 311 43 metro 200;
#X floatatom 362 19 5 0 0 0 - - -, f 5;
#N canvas 450 23 725 716 drunk 0;
#X obj 147 357 * 2, f 4;
#X obj 147 381 - 1;
#X floatatom 147 403 5 0 0 0 - - -, f 5;
#X obj 147 336 random 2;
#X obj 72 226 inlet;
#X obj 122 620 outlet;
#X floatatom 207 237 5 0 0 0 - - -, f 5;
#X obj 207 338 -, f 11;
#X obj 243 313 t b f;
#X floatatom 207 360 5 0 0 0 - - -, f 5;
#X obj 147 442 *, f 25;
#X obj 147 498 +, f 15;
#X floatatom 147 520 5 0 0 0 - - -, f 5;
#X obj 207 467 t b f;
#X obj 267 412 t b f;
#X obj 207 206 r drunk;
#X obj 207 383 * -1;
#X floatatom 302 391 5 0 0 0 - - -, f 5;
#X obj 302 347 +, f 10;
#X obj 302 369 - 1;
#X obj 302 295 < 6;
#X obj 332 295 > -6;
#X obj 332 318 t b f;
#X obj 207 286 > 5;
#X obj 243 286 < -5;
#X text 348 449 Left creates value to add if outside range Right checks
if value is in range to cancel it value is always plus or minus 1;
#X obj 120 560 +, f 5;
#X obj 72 561 f 12;
#X obj 72 620 s drunk;
#X connect 0 0 1 0;
#X connect 1 0 2 0;
#X connect 2 0 10 0;
#X connect 3 0 0 0;
#X connect 4 0 3 0;
#X connect 4 0 27 0;
#X connect 6 0 20 0;
#X connect 6 0 21 0;
#X connect 6 0 23 0;
#X connect 6 0 24 0;
#X connect 7 0 9 0;
#X connect 8 0 7 0;
#X connect 8 1 7 1;
#X connect 9 0 16 0;
#X connect 10 0 11 0;
#X connect 11 0 12 0;
#X connect 12 0 26 1;
#X connect 13 0 11 0;
#X connect 13 1 11 1;
#X connect 14 0 10 0;
#X connect 14 1 10 1;
#X connect 15 0 6 0;
#X connect 16 0 13 0;
#X connect 17 0 14 0;
#X connect 18 0 19 0;
#X connect 19 0 17 0;
#X connect 20 0 18 0;
#X connect 21 0 22 0;
#X connect 22 0 18 0;
#X connect 22 1 18 1;
#X connect 23 0 7 0;
#X connect 24 0 8 0;
#X connect 26 0 27 1;
#X connect 27 0 26 0;
#X connect 27 0 28 0;
#X connect 27 0 5 0;
#X restore 311 112 pd drunk;
#X floatatom 311 166 5 0 0 0 - - -, f 5;
#X connect 0 0 4 0;
#X connect 1 0 2 0;
#X connect 2 0 0 0;
#X connect 3 0 2 1;
#X connect 4 0 5 0;
