#N canvas 0 55 682 610 10;
#X obj 311 74 bng 15 250 50 0 empty empty empty 17 7 0 10 -262144 -1
-1;
#X floatatom 163 273 5 0 0 0 - - -, f 5;
#X obj 370 175 +;
#X obj 311 197 f 12;
#X obj 311 43 metro 500;
#X obj 311 13 tgl 15 0 empty empty empty 17 7 0 10 -262144 -1 -1 1
1;
#X floatatom 203 128 5 0 0 0 - - -, f 5;
#N canvas 0 22 450 300 rndmDir 0;
#X obj 147 97 * 2;
#X obj 147 121 - 1;
#X floatatom 147 143 5 0 0 0 - - -, f 5;
#X obj 147 76 random 2;
#X obj 147 50 inlet;
#X obj 147 167 outlet;
#X connect 0 0 1 0;
#X connect 1 0 2 0;
#X connect 2 0 5 0;
#X connect 3 0 0 0;
#X connect 4 0 3 0;
#X restore 385 139 pd rndmDir;
#N canvas 498 23 723 686 posCorrect 0;
#X obj 234 168 inlet;
#X obj 107 494 outlet;
#X obj 428 384 f;
#X floatatom 428 410 5 0 0 0 - - -, f 5;
#X obj 510 382 +;
#X floatatom 525 361 5 0 0 0 - - -, f 5;
#X obj 428 204 t b;
#X floatatom 234 242 5 0 0 0 - - -, f 5;
#X obj 234 272 sel 12;
#X obj 133 159 tgl 15 0 empty empty empty 17 7 0 10 -262144 -1 -1 0
1;
#X obj 428 278 spigot;
#X obj 234 218 spigot;
#X obj 290 237 tgl 15 0 empty empty empty 17 7 0 10 -262144 -1 -1 0
1;
#X obj 428 302 bng 15 250 50 0 empty empty empty 17 7 0 10 -262144
-1 -1;
#X obj 234 300 s sel12B;
#X obj 264 46 r sel12B;
#X obj 348 68 r sel7B;
#X obj 347 161 t b b;
#X obj 327 291 t b f;
#X obj 510 410 mod 8;
#X obj 428 466 s sel7B;
#X obj 428 433 sel 7;
#X floatatom 170 394 5 0 0 0 - - -, f 5;
#X obj 170 499 f;
#X floatatom 170 521 5 0 0 0 - - -, f 5;
#X obj 194 436 bng 15 250 50 0 empty empty empty 17 7 0 10 -262144
-1 -1;
#X floatatom 269 427 5 0 0 0 - - -, f 5;
#X obj 269 452 t b f;
#X obj 237 497 +, f 6;
#X floatatom 177 629 5 0 0 0 - - -, f 5;
#X obj 271 571 > 7, f 9;
#X floatatom 266 630 5 0 0 0 - - -, f 5;
#X obj 194 568 == 7, f 9;
#X connect 0 0 6 0;
#X connect 0 0 11 0;
#X connect 2 0 3 0;
#X connect 2 0 4 0;
#X connect 3 0 21 0;
#X connect 4 0 19 0;
#X connect 5 0 4 1;
#X connect 6 0 10 0;
#X connect 7 0 8 0;
#X connect 8 0 14 0;
#X connect 9 0 11 1;
#X connect 10 0 13 0;
#X connect 11 0 7 0;
#X connect 12 0 10 1;
#X connect 13 0 2 0;
#X connect 15 0 9 0;
#X connect 15 0 12 0;
#X connect 16 0 9 0;
#X connect 16 0 17 0;
#X connect 17 0 12 0;
#X connect 17 1 18 0;
#X connect 19 0 2 1;
#X connect 21 0 20 0;
#X connect 22 0 23 0;
#X connect 23 0 24 0;
#X connect 23 0 28 0;
#X connect 24 0 30 0;
#X connect 24 0 32 0;
#X connect 25 0 23 0;
#X connect 26 0 27 0;
#X connect 27 0 28 0;
#X connect 27 1 28 1;
#X connect 28 0 23 1;
#X connect 30 0 31 0;
#X connect 32 0 29 0;
#X restore 399 250 pd posCorrect;
#N canvas 498 23 723 686 posCorrect2 1;
#X obj 107 494 outlet;
#X obj 428 384 f;
#X floatatom 428 410 5 0 0 0 - - -, f 5;
#X obj 510 382 +;
#X floatatom 525 361 5 0 0 0 - - -, f 5;
#X obj 510 410 mod 8;
#X obj 428 433 sel 7;
#X floatatom 170 394 5 0 0 0 - - -, f 5;
#X obj 170 499 f;
#X floatatom 170 521 5 0 0 0 - - -, f 5;
#X obj 194 436 bng 15 250 50 0 empty empty empty 17 7 0 10 -262144
-1 -1;
#X floatatom 237 455 5 0 0 0 - - -, f 5;
#X obj 237 474 t b f;
#X obj 237 497 +, f 5;
#X floatatom 170 591 5 0 0 0 - - -, f 5;
#X obj 170 556 == 7, f 9;
#X obj 428 466 s a;
#X obj 548 175 inlet;
#X obj 447 166 tgl 15 0 empty empty empty 17 7 0 10 -262144 -1 -1 1
1;
#X obj 428 302 bng 15 250 50 0 empty empty empty 17 7 0 10 -262144
-1 -1;
#X obj 170 610 s hit7;
#X obj 379 84 r a;
#X obj 447 134 r hit7;
#X obj 144 249 +;
#N canvas 175 57 724 603 rndmDir 1;
#X obj 147 167 * 2;
#X obj 147 191 - 1;
#X floatatom 147 213 5 0 0 0 - - -, f 5;
#X obj 147 146 random 2;
#X obj 147 21 inlet;
#X obj 407 284 outlet;
#X obj 180 102 tgl 15 0 empty empty empty 17 7 0 10 -262144 -1 -1 1
1;
#X obj 180 54 r hit7;
#X obj 147 121 spigot;
#X obj 278 101 tgl 15 0 empty empty empty 17 7 0 10 -262144 -1 -1 1
1;
#X obj 278 53 r hit7;
#X obj 245 120 spigot;
#X floatatom 189 267 5 0 0 0 - - -, f 5;
#X obj 189 378 -, f 11;
#X obj 225 351 t b f;
#X floatatom 189 400 5 0 0 0 - - -, f 5;
#X obj 147 462 *;
#X obj 273 326 < 7;
#X obj 306 326 > -7;
#X floatatom 273 402 5 0 0 0 - - -, f 5;
#X obj 534 394 > 7;
#X floatatom 534 362 5 0 0 0 - - -, f 5;
#X obj 570 394 < -7;
#X obj 535 434 ||, f 6;
#X floatatom 535 456 5 0 0 0 - - -, f 5;
#X obj 273 358 +;
#X obj 273 380 - 1;
#X obj 147 498 +;
#X floatatom 147 520 5 0 0 0 - - -, f 5;
#X obj 189 471 t b f;
#X obj 243 430 t b f;
#X obj 189 419 * -1;
#X obj 189 326 > 6;
#X obj 225 326 < -6;
#X connect 0 0 1 0;
#X connect 1 0 2 0;
#X connect 2 0 16 0;
#X connect 3 0 0 0;
#X connect 4 0 8 0;
#X connect 4 0 11 0;
#X connect 6 0 8 1;
#X connect 7 0 6 0;
#X connect 8 0 3 0;
#X connect 9 0 11 1;
#X connect 10 0 9 0;
#X connect 12 0 17 0;
#X connect 12 0 18 0;
#X connect 12 0 32 0;
#X connect 12 0 33 0;
#X connect 13 0 15 0;
#X connect 14 0 13 0;
#X connect 14 1 13 1;
#X connect 15 0 31 0;
#X connect 16 0 27 0;
#X connect 17 0 25 0;
#X connect 18 0 25 1;
#X connect 19 0 30 0;
#X connect 20 0 23 0;
#X connect 21 0 20 0;
#X connect 21 0 22 0;
#X connect 22 0 23 1;
#X connect 23 0 24 0;
#X connect 25 0 26 0;
#X connect 26 0 19 0;
#X connect 27 0 28 0;
#X connect 29 0 27 0;
#X connect 29 1 27 1;
#X connect 30 0 16 0;
#X connect 30 1 16 1;
#X connect 31 0 29 0;
#X connect 32 0 13 0;
#X connect 33 0 14 0;
#X restore 159 165 pd rndmDir;
#X obj 93 123 bng 15 250 50 0 empty empty empty 17 7 0 10 -262144 -1
-1;
#X floatatom 93 282 5 0 0 0 - - -, f 5;
#X obj 93 250 f;
#X msg 22 107 7;
#X msg 23 136 6;
#X msg 23 163 0;
#X obj 93 307 == 7;
#X obj 93 329 s hit7;
#X connect 1 0 2 0;
#X connect 1 0 3 0;
#X connect 2 0 6 0;
#X connect 3 0 5 0;
#X connect 4 0 3 1;
#X connect 5 0 1 1;
#X connect 6 0 16 0;
#X connect 7 0 8 0;
#X connect 8 0 9 0;
#X connect 8 0 13 0;
#X connect 9 0 15 0;
#X connect 10 0 8 0;
#X connect 11 0 12 0;
#X connect 12 0 13 0;
#X connect 12 1 13 1;
#X connect 13 0 8 1;
#X connect 14 0 20 0;
#X connect 15 0 14 0;
#X connect 19 0 1 0;
#X connect 22 0 18 0;
#X connect 23 0 27 1;
#X connect 24 0 23 1;
#X connect 25 0 24 0;
#X connect 25 0 27 0;
#X connect 26 0 31 0;
#X connect 27 0 23 0;
#X connect 27 0 26 0;
#X connect 28 0 27 0;
#X connect 29 0 27 0;
#X connect 30 0 27 0;
#X connect 31 0 32 0;
#X restore 373 313 pd posCorrect2;
#X connect 0 0 3 0;
#X connect 0 0 7 0;
#X connect 2 0 3 1;
#X connect 3 0 1 0;
#X connect 3 0 2 0;
#X connect 3 0 8 0;
#X connect 4 0 0 0;
#X connect 5 0 4 0;
#X connect 6 0 3 0;
#X connect 7 0 2 1;
