#N canvas 515 256 781 536 10;
#X obj 83 295 sfxVoice;
#X msg 22 232 60;
#X msg 83 234 72;
#X obj 172 192 bng 15 250 50 0 empty empty empty 17 7 0 10 -262144
-1 -1;
#X msg 115 256 79;
#X obj 115 234 pipe 100;
#X msg 172 256 84;
#X obj 172 234 pipe 200;
#X obj 115 187 bng 15 250 50 0 empty empty empty 17 7 0 10 -262144
-1 -1;
#X obj 83 185 bng 15 250 50 0 empty empty empty 17 7 0 10 -262144 -1
-1;
#X obj 272 232 voice, f 15;
#X obj 83 327 +~, f 32;
#X obj 83 399 dac~;
#X obj 243 157 sel 0 1 2 3, f 20;
#X obj 359 211 tgl 15 0 empty empty empty 17 7 0 10 -262144 -1 -1 0
1;
#X obj 60 109 f, f 16;
#X obj 60 134 sel 0 1 2 3, f 16;
#X obj 60 85 bng 15 250 50 0 empty empty empty 17 7 0 10 -262144 -1
-1;
#X obj 22 20 r buttonOff @hv_event;
#X obj 243 59 r buttonCount @hv_param 0 3 0;
#X obj 60 53 r button1 @hv_param 0 100 0;
#X obj 359 189 r buttonDronesToggle @hv_param 0 1 0;
#X obj 83 357 +~, f 43;
#N canvas 0 22 627 371 whoosh 0;
#X obj 126 327 outlet~;
#X obj 404 40 inlet bang;
#X obj 126 188 noise~;
#X obj 126 210 *~, f 9;
#X obj 177 166 hv.vline;
#X obj 349 210 line;
#X obj 126 262 bp~ 100 10, f 75;
#X obj 404 137 pipe 50;
#X msg 349 137 3000 50;
#X msg 404 159 100 1500;
#X msg 177 137 0 10 \, 1 750 10 \, 0 750 760;
#X obj 126 284 *~ 0.5;
#X connect 1 0 7 0;
#X connect 1 0 8 0;
#X connect 1 0 10 0;
#X connect 2 0 3 0;
#X connect 3 0 6 0;
#X connect 4 0 3 1;
#X connect 5 0 6 1;
#X connect 6 0 11 0;
#X connect 7 0 9 0;
#X connect 8 0 5 0;
#X connect 9 0 5 0;
#X connect 10 0 4 0;
#X connect 11 0 0 0;
#X restore 338 324 pd whoosh;
#X obj 338 291 r finishWhoosh @hv_event;
#X obj 314 278 bng 15 250 50 0 empty empty empty 17 7 0 10 -262144
-1 -1;
#X connect 0 0 11 0;
#X connect 1 0 0 0;
#X connect 2 0 0 0;
#X connect 3 0 2 0;
#X connect 3 0 5 0;
#X connect 3 0 7 0;
#X connect 4 0 0 0;
#X connect 5 0 4 0;
#X connect 6 0 0 0;
#X connect 7 0 6 0;
#X connect 8 0 5 0;
#X connect 8 0 2 0;
#X connect 9 0 2 0;
#X connect 10 0 11 1;
#X connect 11 0 22 0;
#X connect 13 1 10 0;
#X connect 13 2 10 1;
#X connect 13 3 10 2;
#X connect 14 0 10 3;
#X connect 15 0 16 0;
#X connect 16 1 9 0;
#X connect 16 2 8 0;
#X connect 16 3 3 0;
#X connect 17 0 15 0;
#X connect 18 0 1 0;
#X connect 19 0 13 0;
#X connect 19 0 15 1;
#X connect 20 0 17 0;
#X connect 21 0 14 0;
#X connect 22 0 12 0;
#X connect 22 0 12 1;
#X connect 23 0 22 1;
#X connect 24 0 23 0;
#X connect 25 0 23 0;
