#N canvas 615 103 1072 881 10;
#X obj 155 582 osc~ 400;
#X obj 155 621 *~, f 65;
#X obj 155 242 osc~ 400;
#X floatatom 254 135 5 0 0 0 - - -, f 5;
#X obj 155 219 *, f 5;
#X floatatom 155 119 5 0 0 0 - - -, f 5;
#X obj 254 500 sig~;
#X floatatom 254 199 5 0 0 0 - - -, f 5;
#X obj 458 346 sig~;
#X floatatom 458 325 5 0 0 0 - - -, f 5;
#X obj 155 464 *~, f 51;
#X obj 155 526 +~, f 17;
#X obj 155 138 t b f;
#X text 491 325 FM amt;
#X text 305 134 root Freq;
#X text 99 118 F ratio;
#X obj 155 15 loadbang;
#X msg 155 37 1;
#X obj 254 31 inlet pitch;
#X obj 542 545 inlet~ carrierAmp;
#X obj 155 184 f;
#X obj 344 31 inlet fRatio;
#X obj 155 662 outlet~;
#X obj 458 31 inlet FMamount;
#X obj 833 360 inlet FMamtFreq;
#X obj 833 387 osc~, f 23;
#X obj 458 428 *~, f 63;
#X connect 0 0 1 0;
#X connect 1 0 22 0;
#X connect 2 0 10 0;
#X connect 3 0 7 0;
#X connect 3 0 20 0;
#X connect 4 0 2 0;
#X connect 5 0 12 0;
#X connect 6 0 11 1;
#X connect 7 0 6 0;
#X connect 8 0 26 0;
#X connect 9 0 8 0;
#X connect 10 0 11 0;
#X connect 11 0 0 0;
#X connect 12 0 20 0;
#X connect 12 1 4 1;
#X connect 16 0 17 0;
#X connect 17 0 5 0;
#X connect 18 0 3 0;
#X connect 19 0 1 1;
#X connect 20 0 4 0;
#X connect 21 0 5 0;
#X connect 23 0 9 0;
#X connect 24 0 25 0;
#X connect 25 0 26 1;
#X connect 26 0 10 1;
