#N canvas 67 164 970 640 10;
#X declare -path heavylib;
#X obj 245 408 sfxVoice;
#X obj 9 10 declare -path heavylib;
#X msg 184 345 60;
#X msg 245 347 72;
#X obj 359 193 bng 15 250 50 0 empty empty empty 17 7 0 10 -262144
-1 -1;
#X msg 292 367 79;
#X obj 292 345 pipe 100;
#X msg 359 367 84;
#X obj 359 345 pipe 200;
#X obj 245 110 r @hv_event button1;
#X obj 292 144 r @hv_event button2;
#X obj 359 170 r @hv_event button3;
#X obj 292 168 bng 15 250 50 0 empty empty empty 17 7 0 10 -262144
-1 -1;
#X obj 245 140 bng 15 250 50 0 empty empty empty 17 7 0 10 -262144
-1 -1;
#X obj 434 345 voice, f 15;
#X obj 184 73 r @hv_event buttonOff;
#X obj 521 280 r @hv_event fmStop;
#X obj 521 307 bng 15 250 50 0 empty empty empty 17 7 0 10 -262144
-1 -1;
#X obj 245 480 +~, f 32;
#X obj 245 502 dac~;
#X connect 0 0 18 0;
#X connect 2 0 0 0;
#X connect 3 0 0 0;
#X connect 4 0 3 0;
#X connect 4 0 6 0;
#X connect 4 0 8 0;
#X connect 4 0 14 2;
#X connect 5 0 0 0;
#X connect 6 0 5 0;
#X connect 7 0 0 0;
#X connect 8 0 7 0;
#X connect 9 0 13 0;
#X connect 10 0 12 0;
#X connect 11 0 4 0;
#X connect 12 0 6 0;
#X connect 12 0 3 0;
#X connect 12 0 14 1;
#X connect 13 0 3 0;
#X connect 13 0 14 0;
#X connect 14 0 18 1;
#X connect 15 0 2 0;
#X connect 16 0 17 0;
#X connect 17 0 14 3;
#X connect 18 0 19 0;
#X connect 18 0 19 1;
