#N canvas 866 194 1078 762 10;
#X obj 616 28 inlet p;
#X obj 695 483 hv.vline;
#X obj 695 507 *~;
#X obj 278 537 *~, f 70;
#X obj 278 603 outlet~;
#X obj 341 306 osc~ 845;
#X obj 278 368 +~, f 11;
#X obj 278 559 *~ 0.4;
#X obj 278 346 osc~ 587;
#X obj 341 328 *~ 0.5;
#X floatatom 278 200 5 0 0 0 - - -, f 5;
#X obj 341 277 * 1.44;
#X msg 695 461 0 1 \, 1 1 1 \, 0.5 30 2 \, 0 100 32;
#X obj 425 367 noise~;
#X obj 278 510 +~, f 25;
#X obj 425 411 *~, f 8;
#X obj 470 358 hv.vline;
#X obj 470 382 *~;
#X floatatom 459 462 5 0 0 0 - - -, f 5;
#X obj 425 483 bp~, f 12;
#X floatatom 494 462 5 0 0 0 - - -, f 5;
#X msg 469 336 0 1 \, 1 1 1 \, 0.4 20 2 \, 0 50 22;
#X obj 424 389 *~ 0.7;
#X obj 278 144 loadbang;
#X obj 550 404 loadbang;
#X msg 278 166 500;
#X msg 520 429 500;
#X msg 550 429 1;
#X obj 616 50 t f b, f 14;
#X obj 616 72 mtof;
#X connect 0 0 28 0;
#X connect 1 0 2 0;
#X connect 1 0 2 1;
#X connect 2 0 3 1;
#X connect 3 0 7 0;
#X connect 5 0 9 0;
#X connect 6 0 14 0;
#X connect 7 0 4 0;
#X connect 8 0 6 0;
#X connect 9 0 6 1;
#X connect 10 0 11 0;
#X connect 10 0 8 0;
#X connect 11 0 5 0;
#X connect 12 0 1 0;
#X connect 13 0 22 0;
#X connect 14 0 3 0;
#X connect 15 0 19 0;
#X connect 16 0 17 0;
#X connect 16 0 17 1;
#X connect 17 0 15 1;
#X connect 18 0 19 1;
#X connect 19 0 14 1;
#X connect 20 0 19 2;
#X connect 21 0 16 0;
#X connect 22 0 15 0;
#X connect 23 0 25 0;
#X connect 24 0 26 0;
#X connect 24 0 27 0;
#X connect 25 0 10 0;
#X connect 26 0 18 0;
#X connect 27 0 20 0;
#X connect 28 0 29 0;
#X connect 28 1 12 0;
#X connect 28 1 21 0;
#X connect 29 0 10 0;
