#N canvas 721 232 1007 757 10;
#X obj 102 539 outlet~;
#X obj 279 429 hv.vline;
#X obj 102 443 mtof;
#X obj 279 453 *~;
#X obj 102 480 fm_voice, f 40;
#X obj 161 391 line;
#X floatatom 161 413 5 0 0 0 - - -, f 5;
#X msg 161 369 \$1 100;
#X obj 220 436 line;
#X floatatom 220 456 5 0 0 0 - - -, f 5;
#X msg 220 416 \$1 1500;
#X msg 102 424 48;
#X floatatom 339 458 5 0 0 0 - - -, f 5;
#X obj 311 136 inlet start;
#X obj 102 513 *~ 0.25;
#X obj 557 147 inlet s2;
#X obj 691 150 inlet s3;
#X msg 557 177 400;
#X msg 610 178 1;
#X msg 311 178 300;
#X msg 739 179 3;
#X msg 691 180 700;
#X obj 339 434 line;
#X msg 339 412 \$1 1500;
#X msg 364 177 0.3;
#X obj 161 328 loadbang;
#X msg 161 347 2.4;
#X obj 311 201 s fmAmt;
#X obj 364 201 s fmAmtModF;
#X obj 339 388 r fmAmtModF;
#X obj 610 199 s fmAmtModF;
#X obj 739 201 s fmAmtModF;
#X obj 557 199 s fmAmt;
#X obj 691 201 s fmAmt;
#X obj 220 396 r fmAmt;
#X obj 279 406 r lineV;
#X obj 840 203 s lineV;
#X obj 102 402 loadbang;
#X obj 840 154 inlet toggle;
#X msg 840 177 \$1 2000;
#X connect 1 0 3 0;
#X connect 1 0 3 1;
#X connect 2 0 4 0;
#X connect 3 0 4 3;
#X connect 4 0 14 0;
#X connect 5 0 6 0;
#X connect 6 0 4 1;
#X connect 7 0 5 0;
#X connect 8 0 9 0;
#X connect 9 0 4 2;
#X connect 10 0 8 0;
#X connect 11 0 2 0;
#X connect 12 0 4 4;
#X connect 13 0 19 0;
#X connect 13 0 24 0;
#X connect 14 0 0 0;
#X connect 15 0 17 0;
#X connect 15 0 18 0;
#X connect 16 0 21 0;
#X connect 16 0 20 0;
#X connect 17 0 32 0;
#X connect 18 0 30 0;
#X connect 19 0 27 0;
#X connect 20 0 31 0;
#X connect 21 0 33 0;
#X connect 22 0 12 0;
#X connect 23 0 22 0;
#X connect 24 0 28 0;
#X connect 25 0 26 0;
#X connect 26 0 7 0;
#X connect 29 0 23 0;
#X connect 34 0 10 0;
#X connect 35 0 1 0;
#X connect 37 0 11 0;
#X connect 38 0 39 0;
#X connect 39 0 36 0;
