#N canvas 144 82 547 448 10;
#X obj 137 195 /, f 14;
#X floatatom 192 137 5 0 0 0 - - -, f 5;
#X floatatom 136 134 5 0 0 0 - - -, f 5;
#X floatatom 137 217 5 0 0 0 - - -, f 5;
#X obj 136 38 f;
#X obj 176 38 + 1;
#X obj 136 13 bng 15 250 50 0 empty empty empty 17 7 0 10 -262144 -1
-1;
#X obj 192 86 loadbang;
#X msg 192 108 5;
#X obj 379 332 f, f 5;
#X obj 298 367 /, f 14;
#X floatatom 379 247 5 0 0 0 - - -, f 5;
#X floatatom 298 256 5 0 0 0 - - -, f 5;
#X floatatom 298 389 5 0 0 0 - - -, f 5;
#X obj 379 297 t b f;
#X obj 191 157 t b f;
#X connect 0 0 3 0;
#X connect 1 0 15 0;
#X connect 2 0 0 0;
#X connect 4 0 5 0;
#X connect 4 0 2 0;
#X connect 5 0 4 1;
#X connect 6 0 4 0;
#X connect 7 0 8 0;
#X connect 8 0 1 0;
#X connect 9 0 10 1;
#X connect 10 0 13 0;
#X connect 11 0 14 0;
#X connect 12 0 10 0;
#X connect 14 0 9 0;
#X connect 14 1 9 1;
#X connect 15 0 2 0;
#X connect 15 1 0 1;
