#N canvas 421 102 698 637 10;
#X floatatom 223 61 5 0 0 0 - - -, f 5;
#X msg 259 222 1;
#X msg 305 129 0;
#X obj 268 166 pipe 0 0 4000;
#X msg 362 87 500;
#X msg 182 23 80;
#X msg 224 22 60;
#X msg 397 116 4000;
#X obj 185 357 pack 0 0 0;
#X obj 185 333 poly 4 1, f 10;
#X obj 185 416 route 1 2 3 4;
#N canvas 271 63 734 461 voices 1;
#X obj 76 60 inlet;
#X obj 76 307 outlet~;
#N canvas 200 241 450 300 vArchitecture 1;
#X obj 79 81 unpack 0 0;
#X obj 79 123 mtof;
#X obj 79 145 phasor~;
#X obj 79 167 *~, f 10;
#X obj 79 189 *~ 0.3;
#X obj 79 40 inlet;
#X obj 79 241 outlet~;
#X connect 0 0 1 0;
#X connect 0 1 3 1;
#X connect 1 0 2 0;
#X connect 2 0 3 0;
#X connect 3 0 4 0;
#X connect 4 0 6 0;
#X connect 5 0 0 0;
#X restore 76 122 pd vArchitecture;
#X obj 193 56 inlet;
#X obj 318 57 inlet;
#X obj 432 56 inlet;
#X obj 76 226 +~;
#X obj 76 248 +~;
#X obj 76 270 +~;
#N canvas 200 241 450 300 vArchitecture 0;
#X obj 79 81 unpack 0 0;
#X obj 79 123 mtof;
#X obj 79 145 phasor~;
#X obj 79 167 *~;
#X obj 79 189 *~ 0.3;
#X obj 79 40 inlet;
#X obj 79 241 outlet~;
#X obj 136 145 *;
#X connect 0 0 1 0;
#X connect 0 1 7 0;
#X connect 1 0 2 0;
#X connect 2 0 3 0;
#X connect 3 0 4 0;
#X connect 4 0 6 0;
#X connect 5 0 0 0;
#X connect 7 0 3 1;
#X restore 192 122 pd vArchitecture;
#N canvas 200 241 450 300 vArchitecture 0;
#X obj 79 81 unpack 0 0;
#X obj 79 123 mtof;
#X obj 79 145 phasor~;
#X obj 79 167 *~;
#X obj 79 189 *~ 0.3;
#X obj 79 40 inlet;
#X obj 79 241 outlet~;
#X obj 136 145 *;
#X connect 0 0 1 0;
#X connect 0 1 7 0;
#X connect 1 0 2 0;
#X connect 2 0 3 0;
#X connect 3 0 4 0;
#X connect 4 0 6 0;
#X connect 5 0 0 0;
#X connect 7 0 3 1;
#X restore 314 121 pd vArchitecture;
#N canvas 200 241 450 300 vArchitecture 0;
#X obj 79 81 unpack 0 0;
#X obj 79 123 mtof;
#X obj 79 145 phasor~;
#X obj 79 167 *~;
#X obj 79 189 *~ 0.3;
#X obj 79 40 inlet;
#X obj 79 241 outlet~;
#X obj 136 145 *, f 10;
#X connect 0 0 1 0;
#X connect 0 1 7 0;
#X connect 1 0 2 0;
#X connect 2 0 3 0;
#X connect 3 0 4 0;
#X connect 4 0 6 0;
#X connect 5 0 0 0;
#X connect 7 0 3 1;
#X restore 429 123 pd vArchitecture;
#X connect 0 0 2 0;
#X connect 2 0 6 0;
#X connect 3 0 9 0;
#X connect 4 0 10 0;
#X connect 5 0 11 0;
#X connect 6 0 7 0;
#X connect 7 0 8 0;
#X connect 8 0 1 0;
#X connect 9 0 6 1;
#X connect 10 0 7 1;
#X connect 11 0 8 1;
#X restore 185 449 pd voices;
#X obj 185 471 dac~;
#X obj 185 333 poly 4 1, f 10;
#X obj 395 414 print on;
#X obj 512 266 pack 0 0, f 13;
#X obj 404 265 pack 0 0, f 13;
#X msg 265 22 40;
#X msg 307 21 20;
#X connect 0 0 1 0;
#X connect 0 0 2 0;
#X connect 0 0 3 0;
#X connect 0 0 9 0;
#X connect 1 0 9 1;
#X connect 2 0 3 1;
#X connect 3 0 9 0;
#X connect 3 1 9 1;
#X connect 4 0 3 2;
#X connect 5 0 0 0;
#X connect 6 0 0 0;
#X connect 7 0 3 2;
#X connect 8 0 10 0;
#X connect 8 0 14 0;
#X connect 9 0 8 0;
#X connect 9 1 8 1;
#X connect 9 2 8 2;
#X connect 10 0 11 0;
#X connect 10 1 11 1;
#X connect 10 2 11 2;
#X connect 10 3 11 3;
#X connect 11 0 12 0;
#X connect 17 0 0 0;
#X connect 18 0 0 0;
