#N canvas 421 102 569 493 10;
#X floatatom 266 62 5 0 0 0 - - -, f 5;
#X msg 234 196 1;
#X msg 304 129 0;
#X obj 267 229 pack 0 0, f 13;
#X obj 159 228 pack 0 0, f 13;
#X obj 267 304 print on;
#X obj 268 166 pipe 0 0 4000;
#X msg 362 87 500;
#X msg 225 24 80;
#X msg 267 23 60;
#X msg 397 116 4000;
#X connect 0 0 4 0;
#X connect 0 0 1 0;
#X connect 0 0 2 0;
#X connect 0 0 6 0;
#X connect 1 0 4 1;
#X connect 2 0 6 1;
#X connect 3 0 5 0;
#X connect 4 0 5 0;
#X connect 6 0 3 0;
#X connect 6 1 3 1;
#X connect 7 0 6 2;
#X connect 8 0 0 0;
#X connect 9 0 0 0;
#X connect 10 0 6 2;
