#N canvas 287 34 956 698 10;
#X obj 178 182 pack 0 0 0;
#X obj 178 158 poly 4 1, f 10;
#X obj 178 211 route 1 2 3 4;
#N canvas 271 63 734 461 voices 0;
#X obj 76 122 inlet;
#X obj 76 297 outlet~;
#X obj 214 122 inlet;
#X obj 328 124 inlet;
#X obj 449 124 inlet;
#X obj 76 226 +~;
#X obj 76 248 +~;
#X obj 76 270 +~;
#X obj 76 166 vArchitecture;
#X obj 328 166 vArchitecture;
#X obj 214 166 vArchitecture;
#X obj 449 166 vArchitecture;
#X connect 0 0 8 0;
#X connect 2 0 10 0;
#X connect 3 0 9 0;
#X connect 4 0 11 0;
#X connect 5 0 6 0;
#X connect 6 0 7 0;
#X connect 7 0 1 0;
#X connect 8 0 5 0;
#X connect 9 0 6 1;
#X connect 10 0 5 1;
#X connect 11 0 7 1;
#X restore 178 244 pd voices;
#X obj 176 434 dac~;
#X obj 178 158 poly 4 1, f 10;
#X obj 178 66 random 4;
#X obj 178 41 metro 500;
#X obj 178 15 tgl 15 0 empty empty empty 17 7 0 10 -262144 -1 -1 1
1;
#X text 623 291 number fires poly and 1 and delayed 0 and delayed itself
;
#N canvas 62 137 731 551 notePipe 0;
#X msg 118 199 1;
#X msg 151 114 0;
#X obj 114 151 pipe 0 0 4000;
#X msg 243 101 1500;
#X msg 208 72 1000;
#X obj 116 -6 inlet;
#X obj 118 258 outlet;
#X obj 68 257 outlet;
#X floatatom 16 69 5 0 0 0 - - -, f 5;
#X obj 16 35 t b;
#X connect 0 0 6 0;
#X connect 1 0 2 1;
#X connect 2 0 7 0;
#X connect 2 1 6 0;
#X connect 3 0 2 2;
#X connect 4 0 2 2;
#X connect 5 0 9 0;
#X connect 5 0 8 0;
#X connect 8 0 1 0;
#X connect 8 0 2 0;
#X connect 8 0 0 0;
#X connect 8 0 7 0;
#X connect 9 0 8 0;
#X restore 178 120 pd notePipe, f 10;
#N canvas 0 22 450 278 (subpatch) 0;
#X array pitches 100 float 3;
#A 0 60 58 63 67 2.66432 2.77861 2.8929 3.03576 3.17862 3.3072 3.4072
3.52149 3.52863 0.457143 0.457143 0.457143 0.457143 0.457143 0.457143
0.457143 0.457143 0.457143 0.457143 0.457143 0.457143 0.457143 0.457143
0.457143 0.457143 0.457143 0.457143 0.457143 0.457143 0.457143 0.457143
0.457143 0.457143 0.457143 0.457143 0.457143 0.457143 0.457143 0.457143
0.457143 0.457143 0.457143 0.457143 0.457143 0.457143 0.457143 0.457143
0.457143 0.457143 0.457143 0.457143 0.457143 0.457143 0.457143 0.457143
0.457143 0.457143 0.457143 0.457143 0.457143 0.457143 0.457143 0.457143
0.457143 0.457143 0.457143 0.457143 0.457143 0.457143 0.457143 0.457143
0.457143 0.457143 0.457143 0.457143 0.457143 0.457143 0.457143 0.457143
0.457143 0.457143 0.457143 -1.45719 -1.45005 -1.4429 -1.43576 -1.43219
-1.42862 -1.42862 -1.42147 -1.42147 -1.41433 -1.40719 -1.40004 -1.3929
-1.09289;
#X coords 0 1 100 -0 200 140 1 0 0;
#X restore 701 665 graph;
#X obj 178 93 tabread pitches;
#X obj 42 97 print tab;
#X obj 289 231 pack 0 0 0;
#X obj 289 207 poly 4 1, f 10;
#X obj 289 260 route 1 2 3 4;
#N canvas 271 63 734 461 voices 0;
#X obj 76 122 inlet;
#X obj 76 297 outlet~;
#X obj 214 122 inlet;
#X obj 328 124 inlet;
#X obj 449 124 inlet;
#X obj 76 226 +~;
#X obj 76 248 +~;
#X obj 76 270 +~;
#X obj 76 166 vArchitecture;
#X obj 328 166 vArchitecture;
#X obj 214 166 vArchitecture;
#X obj 449 166 vArchitecture;
#X connect 0 0 8 0;
#X connect 2 0 10 0;
#X connect 3 0 9 0;
#X connect 4 0 11 0;
#X connect 5 0 6 0;
#X connect 6 0 7 0;
#X connect 7 0 1 0;
#X connect 8 0 5 0;
#X connect 9 0 6 1;
#X connect 10 0 5 1;
#X connect 11 0 7 1;
#X restore 289 293 pd voices;
#X obj 289 207 poly 4 1, f 10;
#X obj 289 70 random 4;
#N canvas 62 137 731 551 notePipe 0;
#X msg 118 199 1;
#X msg 151 114 0;
#X obj 114 151 pipe 0 0 4000;
#X msg 243 101 1500;
#X msg 208 72 1000;
#X obj 116 -6 inlet;
#X obj 118 258 outlet;
#X obj 68 257 outlet;
#X floatatom 16 69 5 0 0 0 - - -, f 5;
#X obj 16 35 t b, f 10;
#X connect 0 0 6 0;
#X connect 1 0 2 1;
#X connect 2 0 7 0;
#X connect 2 1 6 0;
#X connect 3 0 2 2;
#X connect 4 0 2 2;
#X connect 5 0 9 0;
#X connect 5 0 8 0;
#X connect 8 0 1 0;
#X connect 8 0 2 0;
#X connect 8 0 0 0;
#X connect 8 0 7 0;
#X connect 9 0 8 0;
#X restore 289 169 pd notePipe;
#X obj 289 97 tabread pitches;
#X obj 289 119 + 12;
#X obj 432 239 pack 0 0 0;
#X obj 432 215 poly 4 1, f 10;
#X obj 432 268 route 1 2 3 4;
#N canvas 271 63 734 461 voices 0;
#X obj 76 122 inlet;
#X obj 76 297 outlet~;
#X obj 214 122 inlet;
#X obj 328 124 inlet;
#X obj 449 124 inlet;
#X obj 76 226 +~;
#X obj 76 248 +~;
#X obj 76 270 +~;
#X obj 76 166 vArchitecture;
#X obj 328 166 vArchitecture;
#X obj 214 166 vArchitecture;
#X obj 449 166 vArchitecture;
#X connect 0 0 8 0;
#X connect 2 0 10 0;
#X connect 3 0 9 0;
#X connect 4 0 11 0;
#X connect 5 0 6 0;
#X connect 6 0 7 0;
#X connect 7 0 1 0;
#X connect 8 0 5 0;
#X connect 9 0 6 1;
#X connect 10 0 5 1;
#X connect 11 0 7 1;
#X restore 432 301 pd voices;
#X obj 432 215 poly 4 1, f 10;
#X obj 432 78 random 4;
#N canvas 62 137 731 551 notePipe 0;
#X msg 118 199 1;
#X msg 151 114 0;
#X obj 114 151 pipe 0 0 4000;
#X msg 243 101 1500;
#X obj 116 -6 inlet;
#X obj 118 258 outlet;
#X obj 68 257 outlet;
#X floatatom 16 69 5 0 0 0 - - -, f 5;
#X obj 16 35 t b, f 10;
#X msg 208 72 2500;
#X connect 0 0 5 0;
#X connect 1 0 2 1;
#X connect 2 0 6 0;
#X connect 2 1 5 0;
#X connect 3 0 2 2;
#X connect 4 0 8 0;
#X connect 4 0 7 0;
#X connect 7 0 1 0;
#X connect 7 0 2 0;
#X connect 7 0 0 0;
#X connect 7 0 6 0;
#X connect 8 0 7 0;
#X connect 9 0 2 2;
#X restore 432 177 pd notePipe;
#X obj 432 127 + 24;
#X obj 288 38 metro 2000;
#X obj 178 338 +~;
#X obj 178 360 +~;
#N canvas 0 22 450 278 (subpatch) 0;
#X array pitches_2 100 float 3;
#A 0 62 65 67 58 0 0 0 0 0 0 0 0 0 0 0 0 0 0 0 0 0 0 0 0 0 0 0 0 0
0 0 0 0 0 0 0 0 0 0 0 0 0 0 0 0 0 0 0 0 0 0 0 0 0 0 0 0 0 0 0 0 0 0
0 0 0 0 0 0 0 0 0 0 0 0 0 0 0 0 0 0 0 0 0 0 0 0 0 0 0 0 0 0 0 0 0 0
0 0 0;
#X coords 0 1 100 -1 200 140 1;
#X restore 451 733 graph;
#X msg 745 524 \; pitches_2 0 62 65 67 58;
#X obj 432 105 tabread pitches_2;
#X obj 450 463 % 12;
#X obj 449 326 bng 15 250 50 0 empty empty empty 17 7 0 10 -262144
-1 -1;
#X floatatom 451 438 5 0 0 0 - - -, f 5;
#X floatatom 450 485 5 0 0 0 - - -, f 5;
#X obj 488 407 +;
#X obj 540 363 * 2;
#X obj 540 387 - 1;
#X floatatom 540 409 5 0 0 0 - - -, f 5;
#X obj 540 342 random 2;
#X obj 450 406 f 12;
#X obj 341 553 bng 15 250 50 0 empty empty empty 17 7 0 10 -262144
-1 -1;
#X obj 375 550 bng 15 250 50 0 empty empty empty 17 7 0 10 -262144
-1 -1;
#X obj 319 500 sel 0;
#X connect 0 0 2 0;
#X connect 1 0 0 0;
#X connect 1 1 0 1;
#X connect 1 2 0 2;
#X connect 2 0 3 0;
#X connect 2 1 3 1;
#X connect 2 2 3 2;
#X connect 2 3 3 3;
#X connect 3 0 32 0;
#X connect 6 0 12 0;
#X connect 7 0 6 0;
#X connect 7 0 19 0;
#X connect 8 0 7 0;
#X connect 8 0 31 0;
#X connect 10 0 1 0;
#X connect 10 1 1 1;
#X connect 12 0 13 0;
#X connect 12 0 10 0;
#X connect 14 0 16 0;
#X connect 15 0 14 0;
#X connect 15 1 14 1;
#X connect 15 2 14 2;
#X connect 16 0 17 0;
#X connect 16 1 17 1;
#X connect 16 2 17 2;
#X connect 16 3 17 3;
#X connect 17 0 32 1;
#X connect 19 0 21 0;
#X connect 20 0 15 0;
#X connect 20 1 15 1;
#X connect 21 0 22 0;
#X connect 22 0 20 0;
#X connect 23 0 25 0;
#X connect 24 0 23 0;
#X connect 24 1 23 1;
#X connect 24 2 23 2;
#X connect 25 0 26 0;
#X connect 25 1 26 1;
#X connect 25 2 26 2;
#X connect 25 3 26 3;
#X connect 26 0 33 1;
#X connect 28 0 36 0;
#X connect 29 0 24 0;
#X connect 29 1 24 1;
#X connect 30 0 29 0;
#X connect 31 0 28 0;
#X connect 32 0 33 0;
#X connect 33 0 4 0;
#X connect 33 0 4 1;
#X connect 36 0 30 0;
#X connect 37 0 40 0;
#X connect 38 0 45 0;
#X connect 38 0 46 0;
#X connect 39 0 37 0;
#X connect 39 0 49 0;
#X connect 41 0 46 1;
#X connect 42 0 43 0;
#X connect 43 0 41 1;
#X connect 43 0 44 0;
#X connect 45 0 42 0;
#X connect 46 0 39 0;
#X connect 46 0 41 0;
#X connect 49 0 47 0;
#X connect 49 1 48 0;
