#N canvas 467 23 956 698 10;
#X floatatom 170 229 5 0 0 0 - - -, f 5;
#X obj 181 484 pack 0 0 0;
#X obj 181 460 poly 4 1, f 10;
#X obj 181 543 route 1 2 3 4;
#N canvas 271 63 734 461 voices 0;
#X obj 76 122 inlet;
#X obj 76 297 outlet~;
#X obj 214 122 inlet;
#X obj 328 124 inlet;
#X obj 449 124 inlet;
#X obj 76 226 +~;
#X obj 76 248 +~;
#X obj 76 270 +~;
#X obj 76 166 vArchitecture;
#X obj 328 166 vArchitecture;
#X obj 214 166 vArchitecture;
#X obj 449 166 vArchitecture;
#X connect 0 0 8 0;
#X connect 2 0 10 0;
#X connect 3 0 9 0;
#X connect 4 0 11 0;
#X connect 5 0 6 0;
#X connect 6 0 7 0;
#X connect 7 0 1 0;
#X connect 8 0 5 0;
#X connect 9 0 6 1;
#X connect 10 0 5 1;
#X connect 11 0 7 1;
#X restore 181 576 pd voices;
#X obj 181 598 dac~;
#X obj 181 460 poly 4 1, f 10;
#X obj 178 66 random 4;
#X obj 178 41 metro 500;
#X obj 178 15 tgl 15 0 empty empty empty 17 7 0 10 -262144 -1 -1 0
1;
#X obj 178 93 sel 0 1 2 3;
#X msg 178 150 60;
#X msg 220 149 58;
#X msg 261 149 63;
#X msg 303 148 67;
#X text 337 194 number fires poly and 1 and delayed 0 and delayed itself
;
#X msg 233 393 1;
#X msg 265 300 0;
#X obj 228 337 pipe 0 0 4000;
#X msg 357 287 1500;
#X msg 322 258 1000;
#N canvas 62 137 450 300 notePipe 1;
#X msg 118 199 1;
#X msg 151 114 0;
#X obj 114 151 pipe 0 0 4000;
#X msg 243 101 1500;
#X msg 208 72 1000;
#X obj 46 40 inlet;
#X obj 127 266 outlet;
#X obj 68 261 outlet;
#X connect 0 0 6 0;
#X connect 1 0 2 1;
#X connect 2 0 7 0;
#X connect 2 1 6 0;
#X connect 3 0 2 2;
#X connect 4 0 2 2;
#X connect 5 0 0 0;
#X connect 5 0 2 0;
#X connect 5 0 1 0;
#X restore 531 497 pd notePipe;
#X obj 101 543 print;
#X obj 123 195 t b;
#X connect 0 0 2 0;
#X connect 0 0 16 0;
#X connect 0 0 18 0;
#X connect 0 0 17 0;
#X connect 1 0 3 0;
#X connect 1 0 22 0;
#X connect 2 0 1 0;
#X connect 2 1 1 1;
#X connect 2 2 1 2;
#X connect 3 0 4 0;
#X connect 3 1 4 1;
#X connect 3 2 4 2;
#X connect 3 3 4 3;
#X connect 4 0 5 0;
#X connect 7 0 10 0;
#X connect 8 0 7 0;
#X connect 9 0 8 0;
#X connect 10 0 11 0;
#X connect 10 1 12 0;
#X connect 10 2 13 0;
#X connect 10 3 14 0;
#X connect 11 0 0 0;
#X connect 11 0 23 0;
#X connect 12 0 0 0;
#X connect 12 0 23 0;
#X connect 13 0 0 0;
#X connect 13 0 23 0;
#X connect 14 0 0 0;
#X connect 14 0 23 0;
#X connect 16 0 2 1;
#X connect 17 0 18 1;
#X connect 18 0 2 0;
#X connect 18 1 2 1;
#X connect 19 0 18 2;
#X connect 20 0 18 2;
#X connect 23 0 0 0;
