#N canvas -15 36 666 588 10;
#N canvas 403 516 971 512 pipe 1;
#X msg 512 249 1;
#X msg 294 147 0;
#X obj 185 88 inlet;
#X obj 512 323 outlet;
#X obj 403 323 outlet;
#X obj 185 118 t f b f b, f 55;
#X obj 294 169 f;
#X obj 512 271 f;
#X obj 294 194 pipe 0 700, f 13;
#X obj 185 196 pipe 0 700, f 13;
#X connect 0 0 7 0;
#X connect 1 0 6 0;
#X connect 2 0 5 0;
#X connect 5 0 9 0;
#X connect 5 1 1 0;
#X connect 5 2 4 0;
#X connect 5 3 0 0;
#X connect 6 0 8 0;
#X connect 7 0 3 0;
#X connect 8 0 3 0;
#X connect 9 0 4 0;
#X restore 190 144 pd pipe;
#X msg 177 87 60;
#X msg 217 87 70;
#X connect 1 0 0 0;
#X connect 2 0 0 0;
