#N canvas 0 22 811 523 10;
#X floatatom 544 281 0 0 0 0 - - -;
#X floatatom 535 392 0 0 0 0 - - -;
#X obj 534 364 pipe 5 6 7 1000;
#X obj 543 307 t f f f;
#X obj 563 338 + 1;
#X obj 597 337 + 2;
#X floatatom 590 390 0 0 0 0 - - -;
#X floatatom 658 391 0 0 0 0 - - -;
#X connect 0 0 3 0;
#X connect 2 0 1 0;
#X connect 2 1 6 0;
#X connect 2 2 7 0;
#X connect 3 0 2 0;
#X connect 3 1 4 0;
#X connect 3 2 5 0;
#X connect 4 0 2 1;
#X connect 5 0 2 2;
