#N canvas 27 22 535 274 10;
#X declare -path heavyLib;
#X obj 4 -701 declare -path heavyLib;
#N canvas 597 22 1213 665 summingOutput 0;
#X obj 164 78 catch~ monoMel;
#X obj 443 158 catch~ drMachL;
#X obj 515 178 catch~ drMachR;
#X obj 233 98 catch~ drum_1;
#X obj 305 117 catch~ kickObject;
#X obj 377 137 catch~ jazzChordObject;
#X obj 515 230 gainObject, f 5;
#X obj 164 230 gainObject, f 5;
#X obj 233 230 gainObject, f 5;
#X obj 305 230 gainObject, f 5;
#X obj 377 230 gainObject, f 5;
#X obj 443 230 gainObject, f 5;
#X obj 164 390 dac~, f 59;
#X obj 164 269 +~, f 12;
#X obj 164 289 +~, f 24;
#X obj 164 309 +~, f 36;
#X obj 164 329 +~, f 47;
#X obj 191 198 r mx1;
#X obj 260 198 r mx2;
#X obj 332 198 r mx3;
#X obj 404 198 r mx4;
#X obj 470 198 r mx5;
#X connect 0 0 7 0;
#X connect 1 0 11 0;
#X connect 2 0 6 0;
#X connect 3 0 8 0;
#X connect 4 0 9 0;
#X connect 5 0 10 0;
#X connect 6 0 12 1;
#X connect 7 0 13 0;
#X connect 8 0 13 1;
#X connect 9 0 14 1;
#X connect 10 0 15 1;
#X connect 11 0 16 1;
#X connect 13 0 14 0;
#X connect 14 0 15 0;
#X connect 15 0 16 0;
#X connect 16 0 12 0;
#X connect 16 0 12 1;
#X connect 17 0 7 1;
#X connect 18 0 8 1;
#X connect 19 0 9 1;
#X connect 20 0 10 1;
#X connect 21 0 6 1;
#X connect 21 0 11 1;
#X restore 4 -660 pd summingOutput;
#N canvas 419 310 1346 806 tablesScales 0;
#N canvas 0 22 450 278 (subpatch) 0;
#X array scale_minorPent 5 float 3;
#A 0 0 3 5 7 10;
#X coords 0 12 5 0 200 140 1 0 0;
#X restore 163 294 graph;
#N canvas 0 22 450 278 (subpatch) 0;
#X array scale_major 7 float 3;
#A 0 0 2 4 5 7 9 11;
#X coords 0 12 7 0 200 140 1 0 0;
#X restore 164 126 graph;
#N canvas 0 22 450 278 (subpatch) 0;
#X array arp1_triad_4_major 4 float 3;
#A 0 1 2 4 6;
#X coords 0 8 4 0 200 140 1 0 0;
#X restore 797 183 graph;
#N canvas 0 22 450 278 (subpatch) 0;
#X array arp1_triad_4_minorPent 4 float 3;
#A 0 0 1 3 5;
#X coords 0 8 4 0 200 140 1 0 0;
#X restore 797 351 graph;
#X restore 4 -643 pd tablesScales;
#N canvas 920 215 1346 806 tablesRhythms 0;
#N canvas 0 22 450 278 (subpatch) 0;
#X array jazzChord_1 16 float 3;
#A 0 0.985715 0 0.271429 0 0 0.464286 0 0 0.878571 0 0 0.2 -2.26498e-06
-2.20537e-06 0 0;
#X coords 0 1 16 -0 400 140 1 0 0;
#X restore 100 20 graph;
#X restore 4 -626 pd tablesRhythms;
#X obj 101 -562 drum_1;
#N canvas 735 183 519 261 clock 0;
#X obj 311 141 loadbang;
#X msg 311 163 120;
#X floatatom 311 193 5 0 0 0 - - -, f 5;
#X obj 248 141 tgl 15 0 empty empty empty 17 7 0 10 -262144 -1 -1 0
1;
#X obj 248 213 clockEngine;
#X obj 267 115 r clockStart @hv_event;
#X obj 248 115 bng 15 250 50 0 empty empty empty 17 7 0 10 -262144
-1 -1;
#X obj 344 162 r BPM @hv_param 20 200 120;
#X obj 100 100 bng 15 250 50 0 empty empty empty 17 7 0 10 -262144
-1 -1;
#X floatatom 118 100 5 0 0 0 - - -, f 5;
#X connect 0 0 1 0;
#X connect 1 0 2 0;
#X connect 1 0 9 0;
#X connect 2 0 4 1;
#X connect 3 0 4 0;
#X connect 5 0 3 0;
#X connect 6 0 3 0;
#X connect 7 0 2 0;
#X connect 8 0 6 0;
#X connect 9 0 2 0;
#X coords 0 -1 1 1 55 20 2 100 100;
#X restore 205 -695 pd clock interface;
#X text 202 -670 clock;
#X obj 101 -541 throw~ drum_1;
#N canvas 188 446 638 354 Mixer_UI 0;
#X obj 103 100 hsl 128 15 0 1 0 0 empty empty empty -2 -8 0 10 -262144
-1 -1 5080 1;
#X obj 103 115 hsl 128 15 0 1 0 0 empty empty empty -2 -8 0 10 -262144
-1 -1 5080 1;
#X obj 103 130 hsl 128 15 0 1 0 0 empty empty empty -2 -8 0 10 -262144
-1 -1 10160 1;
#X obj 103 145 hsl 128 15 0 1 0 0 empty empty empty -2 -8 0 10 -262144
-1 -1 6350 1;
#X obj 103 160 hsl 128 15 0 1 0 0 empty empty empty -2 -8 0 10 -262144
-1 -1 5080 1;
#X text 236 100 [1] monoMel;
#X text 236 115 [2] hats;
#X text 236 129 [3] kick;
#X text 236 144 [4] jazzChord;
#X text 236 158 [5] Drone;
#X obj -35 -9 loadbang;
#X obj 20 173 s mx1;
#X obj 20 190 s mx2;
#X obj 20 207 s mx3;
#X obj 20 224 s mx4;
#X obj 20 241 s mx5;
#X obj -35 65 unpack f f f f f;
#X msg -35 43 0.4 0.4 0.8 0.5 0.4;
#X obj -16 19 bng 15 250 50 0 empty empty empty 17 7 0 10 -262144 -1
-1;
#X connect 0 0 11 0;
#X connect 1 0 12 0;
#X connect 2 0 13 0;
#X connect 3 0 14 0;
#X connect 4 0 15 0;
#X connect 10 0 17 0;
#X connect 10 0 18 0;
#X connect 16 0 0 0;
#X connect 16 1 1 0;
#X connect 16 2 2 0;
#X connect 16 3 3 0;
#X connect 16 4 4 0;
#X connect 17 0 16 0;
#X connect 18 0 17 0;
#X coords 0 -1 1 1 250 75 2 100 100;
#X restore 210 -598 pd Mixer_UI;
#X connect 4 0 7 0;
#X coords 0 274 10 273 85 60 0;
