#N canvas 386 233 657 592 10;
#X obj 240 69 inlet p;
#X obj 315 358 outlet~;
#X obj 402 285 hv.vline;
#X obj 402 309 *~;
#X obj 240 91 unpack f f, f 23;
#X obj 315 332 *~, f 15;
#X obj 315 304 noise~;
#X obj 402 211 / 127;
#X obj 402 233 pack f f;
#X msg 402 263 0 2 \, \$1 2 2 \, 0 \$2 4;
#X text 496 210 hat decay;
#X obj 447 183 r hatDecay;
#X obj 375 136 sel 0;
#X obj 402 186 +;
#X connect 0 0 4 0;
#X connect 2 0 3 0;
#X connect 2 0 3 1;
#X connect 3 0 5 1;
#X connect 4 1 12 0;
#X connect 4 1 13 1;
#X connect 5 0 1 0;
#X connect 6 0 5 0;
#X connect 7 0 8 0;
#X connect 8 0 9 0;
#X connect 9 0 2 0;
#X connect 11 0 8 1;
#X connect 12 1 13 0;
#X connect 13 0 7 0;
