#N canvas 274 23 837 684 10;
#X obj 189 190 random 100;
#X obj 189 164 bng 15 250 50 0 empty empty empty 17 7 0 10 -262144
-1 -1;
#X floatatom 189 212 5 0 0 0 - - -, f 5;
#X text 307 248 If under 10 = 10% chance;
#X floatatom 264 216 5 0 0 0 - - -, f 5;
#X obj 189 241 <, f 13;
#X floatatom 189 263 5 0 0 0 - - -, f 5;
#X obj 84 150 metro 200;
#X obj 84 224 * 2;
#X obj 84 246 - 1;
#X floatatom 84 268 5 0 0 0 - - -, f 5;
#X obj 84 124 tgl 15 0 empty empty empty 17 7 0 10 -262144 -1 -1 1
1;
#X obj 84 202 random 2;
#X obj 264 99 vsl 20 100 0 100 0 0 empty empty empty 0 -9 0 10 -232576
-1 -1 4000 1;
#X obj 147 313 * 7, f 5;
#X floatatom 84 459 5 0 0 0 - - -, f 5;
#X obj 84 437 *, f 11;
#X obj 189 294 == 0;
#X floatatom 189 316 5 0 0 0 - - -, f 5;
#X obj 147 375 +, f 12;
#X obj 189 335 t b f;
#X floatatom 147 397 5 0 0 0 - - -, f 5;
#X floatatom 462 144 5 0 0 0 - - -, f 5;
#X obj 147 233 r ntv;
#X obj 462 163 send ntv;
#X obj 147 264 t b f;
#X obj 84 478 abs;
#X floatatom 84 500 5 0 0 0 - - -, f 5;
#X obj 84 553 bng 15 250 50 0 empty empty empty 17 7 0 10 -262144 -1
-1;
#X obj 148 559 f;
#X obj 192 532 + 1;
#X floatatom 148 581 5 0 0 0 - - -, f 5;
#X obj 192 579 mod, f 8;
#X floatatom 253 521 5 0 0 0 - - -, f 5;
#X obj 210 557 t b f;
#X obj 148 613 sel 0, f 18;
#X obj 253 579 - 1;
#X obj 148 641 bng 15 250 50 0 empty empty empty 17 7 0 10 -262144
-1 -1;
#X obj 84 528 sel 0, f 7;
#X obj 123 498 r ntv;
#X text 592 102 alternative chance interval;
#X text 292 518 count length Every x counts we randomise the chance
interval;
#X obj 148 661 s newChance;
#X obj 462 76 r newChance;
#X obj 462 98 random 10;
#X obj 462 120 + 2;
#X floatatom 135 127 5 0 0 0 - - -, f 5;
#N canvas 0 22 499 486 synth 0;
#X obj 178 232 pack 0 0 0;
#X obj 178 208 poly 4 1, f 10;
#X obj 178 261 route 1 2 3 4;
#N canvas 271 63 734 461 voices 0;
#X obj 76 122 inlet;
#X obj 76 297 outlet~;
#X obj 214 122 inlet;
#X obj 328 124 inlet;
#X obj 449 124 inlet;
#X obj 76 226 +~;
#X obj 76 248 +~;
#X obj 76 270 +~;
#X obj 76 166 vArchitecture;
#X obj 328 166 vArchitecture;
#X obj 214 166 vArchitecture;
#X obj 449 166 vArchitecture;
#X connect 0 0 8 0;
#X connect 2 0 10 0;
#X connect 3 0 9 0;
#X connect 4 0 11 0;
#X connect 5 0 6 0;
#X connect 6 0 7 0;
#X connect 7 0 1 0;
#X connect 8 0 5 0;
#X connect 9 0 6 1;
#X connect 10 0 5 1;
#X connect 11 0 7 1;
#X restore 178 294 pd voices;
#X obj 178 208 poly 4 1, f 10;
#X obj 178 338 +~;
#N canvas 444 112 731 551 notePipe 0;
#X msg 402 142 1;
#X msg 184 143 0;
#X obj 75 174 pipe 0 0 4000, f 37;
#X obj 75 88 inlet;
#X obj 294 236 outlet;
#X obj 75 244 outlet;
#X msg 460 170 2000;
#X obj 75 118 t f b f b, f 55;
#X msg 494 194 200;
#X connect 0 0 4 0;
#X connect 1 0 2 1;
#X connect 2 0 5 0;
#X connect 2 1 4 0;
#X connect 3 0 7 0;
#X connect 6 0 2 2;
#X connect 7 0 2 0;
#X connect 7 1 1 0;
#X connect 7 2 5 0;
#X connect 7 3 0 0;
#X connect 8 0 2 2;
#X restore 178 120 pd notePipe;
#X obj 178 360 *~ 0.3;
#X obj 178 142 + 0;
#X obj 177 69 inlet;
#X obj 178 382 outlet~;
#X connect 0 0 2 0;
#X connect 1 0 0 0;
#X connect 1 1 0 1;
#X connect 1 2 0 2;
#X connect 2 0 3 0;
#X connect 2 1 3 1;
#X connect 2 2 3 2;
#X connect 2 3 3 3;
#X connect 3 0 5 0;
#X connect 5 0 7 0;
#X connect 6 0 8 0;
#X connect 6 1 1 1;
#X connect 7 0 10 0;
#X connect 8 0 1 0;
#X connect 9 0 6 0;
#X restore 19 515 pd synth;
#X obj 19 537 dac~;
#X obj 21 477 + 72;
#X connect 0 0 2 0;
#X connect 1 0 0 0;
#X connect 1 0 12 0;
#X connect 2 0 5 0;
#X connect 4 0 5 1;
#X connect 5 0 6 0;
#X connect 6 0 14 0;
#X connect 6 0 17 0;
#X connect 7 0 12 0;
#X connect 7 0 0 0;
#X connect 8 0 9 0;
#X connect 9 0 10 0;
#X connect 10 0 16 0;
#X connect 11 0 7 0;
#X connect 12 0 8 0;
#X connect 13 0 4 0;
#X connect 14 0 19 0;
#X connect 15 0 26 0;
#X connect 15 0 49 0;
#X connect 16 0 15 0;
#X connect 17 0 18 0;
#X connect 18 0 20 0;
#X connect 19 0 21 0;
#X connect 20 0 19 0;
#X connect 20 1 19 1;
#X connect 21 0 16 1;
#X connect 22 0 24 0;
#X connect 23 0 25 0;
#X connect 25 0 14 0;
#X connect 25 1 14 1;
#X connect 26 0 27 0;
#X connect 27 0 38 0;
#X connect 28 0 29 0;
#X connect 29 0 30 0;
#X connect 29 0 31 0;
#X connect 30 0 32 0;
#X connect 31 0 35 0;
#X connect 32 0 29 1;
#X connect 33 0 34 0;
#X connect 33 0 36 0;
#X connect 34 0 32 0;
#X connect 34 1 32 1;
#X connect 35 0 37 0;
#X connect 36 0 35 1;
#X connect 37 0 42 0;
#X connect 38 0 28 0;
#X connect 39 0 38 1;
#X connect 43 0 44 0;
#X connect 44 0 45 0;
#X connect 45 0 22 0;
#X connect 46 0 7 1;
#X connect 47 0 48 0;
#X connect 49 0 47 0;
