#N canvas 0 22 737 529 10;
#N canvas 496 129 618 476 glide 1;
#X obj 430 59 inlet;
#X obj 364 245 lop~;
#X floatatom 358 373 5 0 0 0 - - -, f 5;
#X obj 442 295 snapshot~;
#X obj 482 220 tgl 15 0 empty empty empty 17 7 0 10 -262144 -1 -1 1
1;
#X obj 482 242 metro 50;
#X floatatom 388 214 5 0 0 0 - - -, f 5;
#X obj 341 143 inlet;
#X obj 482 191 loadbang;
#X msg 412 143 1;
#X obj 412 165 /, f 8;
#X obj 430 81 t b f;
#X obj 358 392 outlet;
#X connect 0 0 11 0;
#X connect 1 0 3 0;
#X connect 2 0 12 0;
#X connect 3 0 2 0;
#X connect 4 0 5 0;
#X connect 5 0 3 0;
#X connect 6 0 1 1;
#X connect 7 0 1 0;
#X connect 8 0 4 0;
#X connect 8 0 9 0;
#X connect 9 0 10 0;
#X connect 10 0 6 0;
#X connect 11 0 10 0;
#X connect 11 1 10 1;
#X restore 390 291 pd glide;
#X floatatom 383 235 5 0 0 0 - - -, f 5;
#X floatatom 428 238 5 0 0 0 - - -, f 5;
#X connect 1 0 0 0;
#X connect 2 0 0 1;
