#N canvas 0 23 739 693 10;
#X obj 234 239 random 5;
#X obj 235 194 tgl 15 0 empty empty empty 17 7 0 10 -262144 -1 -1 1
1;
#X obj 234 322 mtof;
#X floatatom 254 386 5 0 0 0 - - -, f 5;
#X obj 94 357 line~;
#X obj 94 279 bng 15 250 50 0 empty empty empty 17 7 0 10 -262144 -1
-1;
#X obj 94 406 *~;
#X obj 128 310 pipe 2;
#X floatatom 198 392 5 0 0 0 - - -, f 5;
#X obj 215 480 vcf~, f 7;
#X obj 215 502 *~ 200;
#X obj 292 481 vcf~, f 7;
#X obj 292 503 *~ 200;
#X obj 371 481 vcf~, f 7;
#X obj 371 503 *~ 200;
#X obj 328 348 * 2;
#X obj 438 482 vcf~, f 7;
#X obj 438 504 *~ 200;
#X obj 258 348 * 1.001;
#X obj 407 349 * 2.002;
#X msg 234 291 60;
#X msg 294 291 67;
#X obj 215 626 dac~;
#X obj 215 524 +~;
#X obj 215 546 +~;
#X obj 215 568 +~;
#X obj 234 214 metro 150;
#X obj 234 261 sel 0 1 2 3 4, f 17;
#X msg 354 291 72;
#X obj 487 106 f;
#X obj 520 106 + 1;
#X obj 487 81 bng 15 250 50 0 empty empty empty 17 7 0 10 -262144 -1
-1;
#X floatatom 487 150 5 0 0 0 - - -, f 5;
#X obj 487 128 % 8;
#X msg 487 203 160;
#X msg 547 203 320;
#X msg 608 203 160;
#X msg 669 203 640;
#X obj 487 173 sel 0 1 2 3 4 5 6 7, f 41;
#X floatatom 487 245 5 0 0 0 - - -, f 5;
#X obj 487 29 tgl 15 0 empty empty empty 17 7 0 10 -262144 -1 -1 1
1;
#X obj 487 54 metro 800;
#X msg 517 203 80;
#X msg 578 203 80;
#X msg 638 203 80;
#X msg 699 203 80;
#X obj 235 31 tgl 15 0 empty empty empty 17 7 0 10 -262144 -1 -1 1
1;
#X obj 566 373 loadbang;
#X msg 566 395 150;
#X msg 264 291 64;
#X msg 324 291 59;
#X obj 215 590 *~ 0.1;
#X obj 109 382 noise~ 400;
#X msg 128 332 0 0;
#X msg 94 310 1 0;
#X connect 0 0 27 0;
#X connect 1 0 26 0;
#X connect 2 0 8 0;
#X connect 2 0 9 1;
#X connect 2 0 15 0;
#X connect 2 0 18 0;
#X connect 2 0 19 0;
#X connect 3 0 9 2;
#X connect 3 0 11 2;
#X connect 3 0 13 2;
#X connect 3 0 16 2;
#X connect 4 0 6 0;
#X connect 5 0 54 0;
#X connect 5 0 7 0;
#X connect 6 0 9 0;
#X connect 6 0 11 0;
#X connect 6 0 13 0;
#X connect 6 0 16 0;
#X connect 7 0 53 0;
#X connect 9 0 10 0;
#X connect 10 0 23 0;
#X connect 11 0 12 0;
#X connect 12 0 23 1;
#X connect 13 0 14 0;
#X connect 14 0 24 1;
#X connect 15 0 13 1;
#X connect 16 0 17 0;
#X connect 17 0 25 1;
#X connect 18 0 11 1;
#X connect 19 0 16 1;
#X connect 20 0 2 0;
#X connect 21 0 2 0;
#X connect 23 0 24 0;
#X connect 24 0 25 0;
#X connect 25 0 51 0;
#X connect 26 0 0 0;
#X connect 26 0 5 0;
#X connect 27 0 20 0;
#X connect 27 1 49 0;
#X connect 27 2 21 0;
#X connect 27 3 50 0;
#X connect 27 4 28 0;
#X connect 28 0 2 0;
#X connect 29 0 30 0;
#X connect 29 0 33 0;
#X connect 30 0 29 1;
#X connect 31 0 29 0;
#X connect 32 0 38 0;
#X connect 33 0 32 0;
#X connect 34 0 39 0;
#X connect 35 0 39 0;
#X connect 36 0 39 0;
#X connect 37 0 39 0;
#X connect 38 0 34 0;
#X connect 38 1 42 0;
#X connect 38 2 35 0;
#X connect 38 3 43 0;
#X connect 38 4 36 0;
#X connect 38 5 44 0;
#X connect 38 6 37 0;
#X connect 38 7 45 0;
#X connect 39 0 26 1;
#X connect 40 0 41 0;
#X connect 41 0 31 0;
#X connect 42 0 39 0;
#X connect 43 0 39 0;
#X connect 44 0 39 0;
#X connect 45 0 39 0;
#X connect 46 0 40 0;
#X connect 46 0 1 0;
#X connect 47 0 48 0;
#X connect 48 0 3 0;
#X connect 49 0 2 0;
#X connect 50 0 2 0;
#X connect 51 0 22 0;
#X connect 51 0 22 1;
#X connect 52 0 6 1;
#X connect 53 0 4 0;
#X connect 54 0 4 0;
