#N canvas 762 122 493 505 10;
#N canvas 0 22 648 566 ranDom 0;
#X obj 115 88 bng 15 250 50 0 empty empty empty 17 7 0 10 -262144 -1
-1;
#X obj 115 108 random;
#X obj 115 130 t b f b f, f 25;
#X obj 115 242 f;
#X obj 115 264 sel 0;
#X obj 115 306 f;
#X floatatom 115 328 5 0 0 0 - - -, f 5;
#X obj 175 175 f;
#X floatatom 190 60 5 0 0 0 - - -, f 5;
#X obj 175 207 ==;
#X obj 29 189 sel 1;
#X obj 190 37 inlet;
#X obj 115 58 inlet;
#X obj 115 347 outlet;
#X connect 0 0 1 0;
#X connect 1 0 2 0;
#X connect 2 0 3 0;
#X connect 2 1 7 1;
#X connect 2 2 7 0;
#X connect 2 3 9 1;
#X connect 2 3 5 1;
#X connect 3 0 4 0;
#X connect 3 0 10 0;
#X connect 4 0 5 0;
#X connect 5 0 6 0;
#X connect 6 0 13 0;
#X connect 7 0 9 0;
#X connect 8 0 1 1;
#X connect 8 0 7 1;
#X connect 9 0 3 1;
#X connect 10 0 1 0;
#X connect 11 0 8 0;
#X connect 12 0 0 0;
#X restore 158 234 pd ranDom;
#X obj 158 215 bng 15 250 50 0 empty empty empty 17 7 0 10 -262144
-1 -1;
#X floatatom 208 192 5 0 0 0 - - -, f 5;
#X floatatom 158 256 5 0 0 0 - - -, f 5;
#X connect 0 0 3 0;
#X connect 1 0 0 0;
#X connect 2 0 0 1;
