#N canvas 148 124 675 550 10;
#X floatatom 194 233 5 0 0 0 - - -, f 5;
#X obj 248 292 div 7;
#X obj 194 292 mod 7;
#X floatatom 248 314 5 0 0 0 - - -, f 5;
#X floatatom 194 314 5 0 0 0 - - -, f 5;
#X floatatom 248 356 5 0 0 0 - - -, f 5;
#X obj 248 333 * 12;
#X floatatom 275 233 5 0 0 0 - - -, f 5;
#X obj 194 403 +, f 14;
#X obj 248 375 t b f;
#X obj 194 343 tabread scale, f 7;
#N canvas 0 22 450 278 (subpatch) 0;
#X array scale 7 float 3;
#A 0 0 2 4 5 7 9 11;
#X coords 0 12 7 0 200 140 1 0 0;
#X restore 100 20 graph;
#X obj 194 425 mtof;
#X obj 194 469 *~ 0.3;
#X obj 194 491 dac~;
#X obj 194 204 line;
#X msg 188 178 30 500;
#X msg 245 181 35 500;
#X obj 194 447 phasor~;
#X msg 302 181 40 500;
#X msg 136 181 20 500;
#X floatatom 112 433 5 0 0 0 - - -, f 5;
#X connect 0 0 1 0;
#X connect 0 0 2 0;
#X connect 1 0 3 0;
#X connect 2 0 4 0;
#X connect 3 0 6 0;
#X connect 4 0 10 0;
#X connect 5 0 9 0;
#X connect 6 0 5 0;
#X connect 7 0 1 1;
#X connect 7 0 2 1;
#X connect 8 0 12 0;
#X connect 8 0 21 0;
#X connect 9 0 8 0;
#X connect 9 1 8 1;
#X connect 10 0 8 0;
#X connect 12 0 18 0;
#X connect 13 0 14 0;
#X connect 15 0 0 0;
#X connect 16 0 15 0;
#X connect 17 0 15 0;
#X connect 18 0 13 0;
#X connect 19 0 15 0;
#X connect 20 0 15 0;
