#N canvas 568 70 517 709 10;
#X obj 382 86 metro 500;
#X obj 382 62 tgl 15 0 empty empty empty 17 7 0 10 -262144 -1 -1 1
1;
#X obj 155 512 osc~ 400;
#X obj 260 512 line~;
#X msg 224 479 1 5;
#X obj 260 455 pipe 5;
#X obj 382 118 bng 15 250 50 0 empty empty empty 17 7 0 10 -262144
-1 -1;
#X obj 155 613 dac~;
#X obj 155 551 *~, f 18;
#X obj 155 142 osc~ 400;
#X floatatom 254 75 5 0 0 0 - - -, f 5;
#X obj 156 110 *, f 5;
#X floatatom 156 59 5 0 0 0 - - -, f 5;
#X obj 254 340 sig~;
#X floatatom 254 139 5 0 0 0 - - -, f 5;
#X obj 170 346 sig~;
#X floatatom 170 325 5 0 0 0 - - -, f 5;
#X obj 155 374 *~;
#X obj 155 396 +~, f 17;
#X obj 156 78 t b f;
#X floatatom 433 61 5 0 0 0 - - -, f 5;
#X obj 206 266 line~;
#X msg 170 237 1 5;
#X obj 206 213 pipe 5;
#X obj 155 294 *~, f 9;
#X obj 382 142 s met;
#X obj 224 423 r met;
#X obj 170 183 r met;
#X text 203 325 FM amt;
#X text 254 48 root Freq;
#X text 153 38 F ratio;
#X msg 260 480 0 1000;
#X msg 206 238 0 750;
#X obj 155 573 *~ 0.3;
#X obj 25 -18 loadbang;
#X msg 25 4 0.9 400;
#X obj 25 26 unpack f f;
#X connect 0 0 6 0;
#X connect 1 0 0 0;
#X connect 2 0 8 0;
#X connect 3 0 8 1;
#X connect 4 0 3 0;
#X connect 5 0 31 0;
#X connect 6 0 25 0;
#X connect 8 0 33 0;
#X connect 9 0 24 0;
#X connect 10 0 11 0;
#X connect 10 0 14 0;
#X connect 11 0 9 0;
#X connect 12 0 19 0;
#X connect 13 0 18 1;
#X connect 14 0 13 0;
#X connect 15 0 17 1;
#X connect 16 0 15 0;
#X connect 17 0 18 0;
#X connect 18 0 2 0;
#X connect 19 0 11 0;
#X connect 19 1 11 1;
#X connect 20 0 0 1;
#X connect 21 0 24 1;
#X connect 22 0 21 0;
#X connect 23 0 32 0;
#X connect 24 0 17 0;
#X connect 26 0 4 0;
#X connect 26 0 5 0;
#X connect 27 0 23 0;
#X connect 27 0 22 0;
#X connect 31 0 3 0;
#X connect 32 0 21 0;
#X connect 33 0 7 0;
#X connect 33 0 7 1;
#X connect 34 0 35 0;
#X connect 35 0 36 0;
#X connect 36 0 12 0;
#X connect 36 1 10 0;
